G75*
%MOIN*%
%OFA0B0*%
%FSLAX24Y24*%
%IPPOS*%
%LPD*%
%AMOC8*
5,1,8,0,0,1.08239X$1,22.5*
%
%ADD10C,0.0000*%
D10*
X000185Y000244D02*
X028531Y000244D01*
X028531Y016779D01*
X000185Y016779D01*
X000185Y000244D01*
X026268Y006259D02*
X026270Y006311D01*
X026276Y006363D01*
X026286Y006414D01*
X026299Y006464D01*
X026317Y006514D01*
X026338Y006561D01*
X026362Y006607D01*
X026391Y006651D01*
X026422Y006693D01*
X026456Y006732D01*
X026493Y006769D01*
X026533Y006802D01*
X026576Y006833D01*
X026620Y006860D01*
X026666Y006884D01*
X026715Y006904D01*
X026764Y006920D01*
X026815Y006933D01*
X026866Y006942D01*
X026918Y006947D01*
X026970Y006948D01*
X027022Y006945D01*
X027074Y006938D01*
X027125Y006927D01*
X027175Y006913D01*
X027224Y006894D01*
X027271Y006872D01*
X027316Y006847D01*
X027360Y006818D01*
X027401Y006786D01*
X027440Y006751D01*
X027475Y006713D01*
X027508Y006672D01*
X027538Y006630D01*
X027564Y006585D01*
X027587Y006538D01*
X027606Y006489D01*
X027622Y006439D01*
X027634Y006389D01*
X027642Y006337D01*
X027646Y006285D01*
X027646Y006233D01*
X027642Y006181D01*
X027634Y006129D01*
X027622Y006079D01*
X027606Y006029D01*
X027587Y005980D01*
X027564Y005933D01*
X027538Y005888D01*
X027508Y005846D01*
X027475Y005805D01*
X027440Y005767D01*
X027401Y005732D01*
X027360Y005700D01*
X027316Y005671D01*
X027271Y005646D01*
X027224Y005624D01*
X027175Y005605D01*
X027125Y005591D01*
X027074Y005580D01*
X027022Y005573D01*
X026970Y005570D01*
X026918Y005571D01*
X026866Y005576D01*
X026815Y005585D01*
X026764Y005598D01*
X026715Y005614D01*
X026666Y005634D01*
X026620Y005658D01*
X026576Y005685D01*
X026533Y005716D01*
X026493Y005749D01*
X026456Y005786D01*
X026422Y005825D01*
X026391Y005867D01*
X026362Y005911D01*
X026338Y005957D01*
X026317Y006004D01*
X026299Y006054D01*
X026286Y006104D01*
X026276Y006155D01*
X026270Y006207D01*
X026268Y006259D01*
X026268Y010763D02*
X026270Y010815D01*
X026276Y010867D01*
X026286Y010918D01*
X026299Y010968D01*
X026317Y011018D01*
X026338Y011065D01*
X026362Y011111D01*
X026391Y011155D01*
X026422Y011197D01*
X026456Y011236D01*
X026493Y011273D01*
X026533Y011306D01*
X026576Y011337D01*
X026620Y011364D01*
X026666Y011388D01*
X026715Y011408D01*
X026764Y011424D01*
X026815Y011437D01*
X026866Y011446D01*
X026918Y011451D01*
X026970Y011452D01*
X027022Y011449D01*
X027074Y011442D01*
X027125Y011431D01*
X027175Y011417D01*
X027224Y011398D01*
X027271Y011376D01*
X027316Y011351D01*
X027360Y011322D01*
X027401Y011290D01*
X027440Y011255D01*
X027475Y011217D01*
X027508Y011176D01*
X027538Y011134D01*
X027564Y011089D01*
X027587Y011042D01*
X027606Y010993D01*
X027622Y010943D01*
X027634Y010893D01*
X027642Y010841D01*
X027646Y010789D01*
X027646Y010737D01*
X027642Y010685D01*
X027634Y010633D01*
X027622Y010583D01*
X027606Y010533D01*
X027587Y010484D01*
X027564Y010437D01*
X027538Y010392D01*
X027508Y010350D01*
X027475Y010309D01*
X027440Y010271D01*
X027401Y010236D01*
X027360Y010204D01*
X027316Y010175D01*
X027271Y010150D01*
X027224Y010128D01*
X027175Y010109D01*
X027125Y010095D01*
X027074Y010084D01*
X027022Y010077D01*
X026970Y010074D01*
X026918Y010075D01*
X026866Y010080D01*
X026815Y010089D01*
X026764Y010102D01*
X026715Y010118D01*
X026666Y010138D01*
X026620Y010162D01*
X026576Y010189D01*
X026533Y010220D01*
X026493Y010253D01*
X026456Y010290D01*
X026422Y010329D01*
X026391Y010371D01*
X026362Y010415D01*
X026338Y010461D01*
X026317Y010508D01*
X026299Y010558D01*
X026286Y010608D01*
X026276Y010659D01*
X026270Y010711D01*
X026268Y010763D01*
M02*
