%
M48
M72
T01C0.0140
T02C0.0197
T03C0.0236
T04C0.0240
T05C0.0320
T06C0.0354
T07C0.0360
T08C0.0394
T09C0.0400
T10C0.0787
T11C0.1378
%
T01
X27185Y3244
X22185Y6744
X21185Y5744
X19685Y6244
X18685Y5244
X21685Y4244
X13876Y2387
X10685Y3244
X6685Y3244
X9685Y10244
X6185Y14744
T02
X25338Y3626
X23415Y4455
X13868Y5467
X11410Y5006
X9894Y5865
X9028Y5547
X7196Y6558
X6436Y7000
X6340Y7475
X6125Y7864
X6079Y8590
X5618Y8879
X6305Y9162
X5648Y9420
X8212Y8109
X8701Y8497
X8928Y7904
X10160Y7712
X10558Y7445
X11485Y7927
X12098Y8687
X11062Y6886
X7420Y7198
X6936Y4850
X8556Y3337
X6854Y1806
X14127Y3951
X5472Y11234
X5859Y11588
X6376Y12308
T03
X12597Y3417
X17229Y5911
X20778Y4534
X22542Y5730
X26921Y8580
X17096Y7970
X15507Y9378
X13872Y9999
X14209Y10560
X12917Y10428
X12907Y9865
X12827Y11494
X11838Y12971
X11712Y13695
X10222Y12914
X8620Y14295
X8305Y15088
X5830Y13581
X4467Y14029
X4445Y15504
X5577Y12260
X8081Y11369
X8551Y11418
X9052Y11328
X7025Y9772
X7825Y9288
X8303Y9618
X6612Y8513
X5664Y8113
X3315Y8356
X19885Y2196
X25347Y2966
T04
X25185Y2244
X13685Y3244
X17685Y2822
X17646Y1704
X9185Y11888
T05
X9218Y4633
X10218Y4633
T06
X24335Y6759
X23335Y6259
X23335Y7259
X24335Y7759
X23335Y8259
X24335Y8759
X23335Y9259
X24335Y9759
X23335Y10244
X24335Y10755
T07
X2617Y11016
X1617Y11016
X1617Y10016
X2617Y10016
X2617Y9016
X1617Y9016
X1617Y8016
X2617Y8016
X2617Y7016
X1617Y7016
X1617Y6016
X2617Y6016
X2617Y5016
X1617Y5016
X1617Y4016
X2617Y4016
X2617Y3016
X1617Y3016
X1617Y12016
X2617Y12016
X2617Y13016
X1617Y13016
X1617Y14016
X2617Y14016
T08
X18775Y13581
X22775Y13581
T09
X14202Y15098
X13202Y15098
X12202Y15098
X11202Y15098
X10202Y15098
X9202Y15098
X4884Y1837
X3884Y1837
X2884Y1837
X1884Y1837
T10
X25748Y5409
X25756Y11586
T11
X26957Y6259
X26957Y10763
M30
