G75*
%MOIN*%
%OFA0B0*%
%FSLAX24Y24*%
%IPPOS*%
%LPD*%
%AMOC8*
5,1,8,0,0,1.08239X$1,22.5*
%
%ADD10C,0.0040*%
%ADD11C,0.0000*%
%ADD12C,0.0080*%
%ADD13C,0.0100*%
%ADD14R,0.0472X0.0079*%
%ADD15R,0.0079X0.0472*%
%ADD16C,0.0060*%
%ADD17C,0.0050*%
%ADD18C,0.0030*%
%ADD19C,0.0160*%
%ADD20R,0.0160X0.0230*%
%ADD21R,0.0200X0.0800*%
%ADD22R,0.0750X0.0200*%
D10*
X004056Y002495D02*
X004133Y002418D01*
X004286Y002418D01*
X004363Y002495D01*
X004516Y002418D02*
X004823Y002418D01*
X004670Y002418D02*
X004670Y002879D01*
X004516Y002725D01*
X004363Y002802D02*
X004286Y002879D01*
X004133Y002879D01*
X004056Y002802D01*
X004056Y002495D01*
X004977Y002418D02*
X005284Y002418D01*
X005130Y002418D02*
X005130Y002879D01*
X004977Y002725D01*
X005857Y002115D02*
X006088Y002115D01*
X006164Y002039D01*
X006164Y001885D01*
X006088Y001808D01*
X005857Y001808D01*
X005857Y001655D02*
X005857Y002115D01*
X006011Y001808D02*
X006164Y001655D01*
X006318Y001732D02*
X006395Y001655D01*
X006548Y001655D01*
X006625Y001732D01*
X006625Y001808D01*
X006548Y001885D01*
X006318Y001885D01*
X006318Y001732D01*
X006318Y001885D02*
X006471Y002039D01*
X006625Y002115D01*
X007533Y001989D02*
X007533Y001682D01*
X007610Y001605D01*
X007763Y001605D01*
X007840Y001682D01*
X007994Y001605D02*
X008301Y001605D01*
X008147Y001605D02*
X008147Y002065D01*
X007994Y001912D01*
X007840Y001989D02*
X007763Y002065D01*
X007610Y002065D01*
X007533Y001989D01*
X008454Y001835D02*
X008761Y001835D01*
X008684Y001605D02*
X008684Y002065D01*
X008454Y001835D01*
X009435Y001159D02*
X009665Y001159D01*
X009742Y001082D01*
X009742Y000929D01*
X009665Y000852D01*
X009435Y000852D01*
X009588Y000852D02*
X009742Y000698D01*
X009895Y000698D02*
X010202Y000698D01*
X010049Y000698D02*
X010049Y001159D01*
X009895Y001005D01*
X009435Y001159D02*
X009435Y000698D01*
X010356Y000775D02*
X010662Y001082D01*
X010662Y000775D01*
X010586Y000698D01*
X010432Y000698D01*
X010356Y000775D01*
X010356Y001082D01*
X010432Y001159D01*
X010586Y001159D01*
X010662Y001082D01*
X012789Y001067D02*
X012866Y000991D01*
X013173Y000991D01*
X013249Y001067D01*
X013249Y001221D01*
X013173Y001298D01*
X013249Y001451D02*
X012942Y001758D01*
X012866Y001758D01*
X012789Y001681D01*
X012789Y001528D01*
X012866Y001451D01*
X012866Y001298D02*
X012789Y001221D01*
X012789Y001067D01*
X012789Y000837D02*
X012789Y000684D01*
X012789Y000760D02*
X013249Y000760D01*
X013249Y000684D02*
X013249Y000837D01*
X013249Y001451D02*
X013249Y001758D01*
X012102Y003061D02*
X011795Y003061D01*
X011718Y003138D01*
X011718Y003291D01*
X011795Y003368D01*
X011872Y003521D02*
X011718Y003675D01*
X012179Y003675D01*
X012179Y003828D02*
X012179Y003521D01*
X012102Y003368D02*
X012179Y003291D01*
X012179Y003138D01*
X012102Y003061D01*
X012102Y003982D02*
X012179Y004059D01*
X012179Y004212D01*
X012102Y004289D01*
X012025Y004289D01*
X011949Y004212D01*
X011949Y004135D01*
X011949Y004212D02*
X011872Y004289D01*
X011795Y004289D01*
X011718Y004212D01*
X011718Y004059D01*
X011795Y003982D01*
X014358Y004462D02*
X014358Y004692D01*
X014435Y004769D01*
X014588Y004769D01*
X014665Y004692D01*
X014665Y004462D01*
X014665Y004615D02*
X014818Y004769D01*
X014818Y004922D02*
X014742Y004922D01*
X014435Y005229D01*
X014358Y005229D01*
X014358Y004922D01*
X014358Y004462D02*
X014818Y004462D01*
X014829Y006208D02*
X015136Y006515D01*
X015136Y006592D01*
X015059Y006669D01*
X014905Y006669D01*
X014829Y006592D01*
X014675Y006592D02*
X014598Y006669D01*
X014445Y006669D01*
X014368Y006592D01*
X014368Y006285D01*
X014445Y006208D01*
X014598Y006208D01*
X014675Y006285D01*
X014829Y006208D02*
X015136Y006208D01*
X011925Y006235D02*
X011848Y006158D01*
X011694Y006158D01*
X011618Y006235D01*
X011618Y006311D01*
X011694Y006388D01*
X011848Y006388D01*
X011925Y006311D01*
X011925Y006235D01*
X011848Y006388D02*
X011925Y006465D01*
X011925Y006542D01*
X011848Y006618D01*
X011694Y006618D01*
X011618Y006542D01*
X011618Y006465D01*
X011694Y006388D01*
X011464Y006388D02*
X011464Y006542D01*
X011388Y006618D01*
X011157Y006618D01*
X011157Y006158D01*
X011157Y006311D02*
X011388Y006311D01*
X011464Y006388D01*
X011311Y006311D02*
X011464Y006158D01*
X011486Y007308D02*
X011486Y007538D01*
X011410Y007615D01*
X011256Y007615D01*
X011179Y007538D01*
X011179Y007308D01*
X011640Y007308D01*
X011486Y007461D02*
X011640Y007615D01*
X011640Y007768D02*
X011640Y008075D01*
X011640Y007921D02*
X011179Y007921D01*
X011333Y007768D01*
X011956Y009186D02*
X012110Y009186D01*
X012187Y009263D01*
X012340Y009263D02*
X012417Y009186D01*
X012570Y009186D01*
X012647Y009263D01*
X012647Y009570D01*
X012570Y009647D01*
X012417Y009647D01*
X012340Y009570D01*
X012340Y009493D01*
X012417Y009417D01*
X012647Y009417D01*
X012187Y009570D02*
X012110Y009647D01*
X011956Y009647D01*
X011880Y009570D01*
X011880Y009263D01*
X011956Y009186D01*
X010952Y009356D02*
X010952Y009432D01*
X010876Y009509D01*
X010645Y009509D01*
X010645Y009356D01*
X010722Y009279D01*
X010876Y009279D01*
X010952Y009356D01*
X010799Y009662D02*
X010645Y009509D01*
X010492Y009356D02*
X010415Y009279D01*
X010262Y009279D01*
X010185Y009356D01*
X010185Y009662D01*
X010262Y009739D01*
X010415Y009739D01*
X010492Y009662D01*
X010799Y009662D02*
X010952Y009739D01*
X012903Y010563D02*
X012903Y011024D01*
X013133Y011024D01*
X013210Y010947D01*
X013210Y010794D01*
X013133Y010717D01*
X012903Y010717D01*
X013056Y010717D02*
X013210Y010563D01*
X013363Y010563D02*
X013670Y010563D01*
X013517Y010563D02*
X013517Y011024D01*
X013363Y010870D01*
X013824Y010870D02*
X013977Y011024D01*
X013977Y010563D01*
X013824Y010563D02*
X014131Y010563D01*
X014966Y010882D02*
X015043Y010805D01*
X015197Y010805D01*
X015273Y010882D01*
X015427Y010805D02*
X015734Y010805D01*
X015580Y010805D02*
X015580Y011266D01*
X015427Y011112D01*
X015273Y011189D02*
X015197Y011266D01*
X015043Y011266D01*
X014966Y011189D01*
X014966Y010882D01*
X015887Y010882D02*
X015964Y010805D01*
X016117Y010805D01*
X016194Y010882D01*
X016194Y010959D01*
X016117Y011036D01*
X015887Y011036D01*
X015887Y010882D01*
X015887Y011036D02*
X016041Y011189D01*
X016194Y011266D01*
X016448Y011132D02*
X016448Y011439D01*
X016525Y011439D01*
X016832Y011132D01*
X016909Y011132D01*
X016909Y010979D02*
X016909Y010672D01*
X016909Y010825D02*
X016448Y010825D01*
X016602Y010672D01*
X016525Y010519D02*
X016448Y010442D01*
X016448Y010288D01*
X016525Y010212D01*
X016832Y010212D01*
X016909Y010288D01*
X016909Y010442D01*
X016832Y010519D01*
X018155Y010366D02*
X018309Y010212D01*
X018232Y010059D02*
X018386Y010059D01*
X018462Y009982D01*
X018462Y009752D01*
X018462Y009905D02*
X018616Y010059D01*
X018616Y010212D02*
X018616Y010519D01*
X018616Y010366D02*
X018155Y010366D01*
X018232Y010672D02*
X018155Y010749D01*
X018155Y010903D01*
X018232Y010979D01*
X018309Y010979D01*
X018616Y010672D01*
X018616Y010979D01*
X018529Y011791D02*
X018222Y011791D01*
X018146Y011868D01*
X018146Y012021D01*
X018222Y012098D01*
X018299Y012251D02*
X018146Y012405D01*
X018606Y012405D01*
X018606Y012558D02*
X018606Y012251D01*
X018529Y012098D02*
X018606Y012021D01*
X018606Y011868D01*
X018529Y011791D01*
X018529Y012712D02*
X018453Y012712D01*
X018376Y012788D01*
X018376Y012942D01*
X018453Y013019D01*
X018529Y013019D01*
X018606Y012942D01*
X018606Y012788D01*
X018529Y012712D01*
X018376Y012788D02*
X018299Y012712D01*
X018222Y012712D01*
X018146Y012788D01*
X018146Y012942D01*
X018222Y013019D01*
X018299Y013019D01*
X018376Y012942D01*
X015725Y013358D02*
X015418Y013358D01*
X015571Y013358D02*
X015571Y013819D01*
X015418Y013665D01*
X015205Y014108D02*
X015282Y014185D01*
X015205Y014108D02*
X015051Y014108D01*
X014975Y014185D01*
X014975Y014492D01*
X015051Y014569D01*
X015205Y014569D01*
X015282Y014492D01*
X015435Y014338D02*
X015742Y014338D01*
X015665Y014108D02*
X015665Y014569D01*
X015435Y014338D01*
X014821Y014108D02*
X014668Y014108D01*
X014745Y014108D02*
X014745Y014569D01*
X014821Y014569D02*
X014668Y014569D01*
X013922Y014241D02*
X013845Y014318D01*
X013692Y014318D01*
X013615Y014241D01*
X013615Y014165D01*
X013692Y014088D01*
X013922Y014088D01*
X013922Y014241D02*
X013922Y013934D01*
X013845Y013858D01*
X013692Y013858D01*
X013615Y013934D01*
X013461Y013858D02*
X013155Y013858D01*
X013308Y013858D02*
X013308Y014318D01*
X013155Y014165D01*
X013001Y014241D02*
X013001Y014088D01*
X012924Y014011D01*
X012694Y014011D01*
X012658Y014063D02*
X012505Y014063D01*
X012428Y014140D01*
X012428Y014293D02*
X012581Y014370D01*
X012658Y014370D01*
X012735Y014293D01*
X012735Y014140D01*
X012658Y014063D01*
X012848Y014011D02*
X013001Y013858D01*
X012694Y013858D02*
X012694Y014318D01*
X012924Y014318D01*
X013001Y014241D01*
X012735Y014523D02*
X012428Y014523D01*
X012428Y014293D01*
X012275Y014063D02*
X011968Y014063D01*
X012121Y014063D02*
X012121Y014523D01*
X011968Y014370D01*
X011814Y014447D02*
X011737Y014523D01*
X011584Y014523D01*
X011507Y014447D01*
X011507Y014140D01*
X011584Y014063D01*
X011737Y014063D01*
X011814Y014140D01*
X013713Y013049D02*
X013790Y013125D01*
X013867Y013125D01*
X013943Y013049D01*
X014020Y013125D01*
X014097Y013125D01*
X014174Y013049D01*
X014174Y012895D01*
X014097Y012819D01*
X014174Y012665D02*
X014174Y012358D01*
X013867Y012665D01*
X013790Y012665D01*
X013713Y012588D01*
X013713Y012435D01*
X013790Y012358D01*
X013790Y012205D02*
X013713Y012128D01*
X013713Y011974D01*
X013790Y011898D01*
X014097Y011898D01*
X014174Y011974D01*
X014174Y012128D01*
X014097Y012205D01*
X013790Y012819D02*
X013713Y012895D01*
X013713Y013049D01*
X013943Y013049D02*
X013943Y012972D01*
X012524Y011791D02*
X012217Y011791D01*
X012217Y011561D01*
X012370Y011638D01*
X012447Y011638D01*
X012524Y011561D01*
X012524Y011407D01*
X012447Y011331D01*
X012294Y011331D01*
X012217Y011407D01*
X012064Y011331D02*
X011910Y011484D01*
X011987Y011484D02*
X011757Y011484D01*
X011757Y011331D02*
X011757Y011791D01*
X011987Y011791D01*
X012064Y011714D01*
X012064Y011561D01*
X011987Y011484D01*
X011594Y011576D02*
X011594Y011653D01*
X011517Y011730D01*
X011441Y011730D01*
X011517Y011730D02*
X011594Y011806D01*
X011594Y011883D01*
X011517Y011960D01*
X011364Y011960D01*
X011287Y011883D01*
X011134Y011883D02*
X011057Y011960D01*
X010903Y011960D01*
X010827Y011883D01*
X010827Y011576D01*
X010903Y011499D01*
X011057Y011499D01*
X011134Y011576D01*
X011287Y011576D02*
X011364Y011499D01*
X011517Y011499D01*
X011594Y011576D01*
X010673Y011499D02*
X010520Y011499D01*
X010596Y011499D02*
X010596Y011960D01*
X010520Y011960D02*
X010673Y011960D01*
X010316Y011939D02*
X010316Y012092D01*
X010239Y012169D01*
X010239Y012323D02*
X010162Y012323D01*
X010085Y012399D01*
X010085Y012553D01*
X010162Y012630D01*
X010239Y012630D01*
X010316Y012553D01*
X010316Y012399D01*
X010239Y012323D01*
X010085Y012399D02*
X010009Y012323D01*
X009932Y012323D01*
X009855Y012399D01*
X009855Y012553D01*
X009932Y012630D01*
X010009Y012630D01*
X010085Y012553D01*
X009932Y012169D02*
X009855Y012092D01*
X009855Y011939D01*
X009932Y011862D01*
X010239Y011862D01*
X010316Y011939D01*
X010013Y011789D02*
X009783Y011559D01*
X010090Y011559D01*
X010013Y011789D02*
X010013Y011328D01*
X009629Y011328D02*
X009476Y011482D01*
X009553Y011482D02*
X009322Y011482D01*
X009322Y011328D02*
X009322Y011789D01*
X009553Y011789D01*
X009629Y011712D01*
X009629Y011559D01*
X009553Y011482D01*
X008774Y011769D02*
X008697Y011693D01*
X008544Y011693D01*
X008467Y011769D01*
X008774Y012076D01*
X008774Y011769D01*
X008467Y011769D02*
X008467Y012076D01*
X008544Y012153D01*
X008697Y012153D01*
X008774Y012076D01*
X008314Y011693D02*
X008007Y011693D01*
X008160Y011693D02*
X008160Y012153D01*
X008007Y012000D01*
X007853Y012076D02*
X007777Y012153D01*
X007623Y012153D01*
X007546Y012076D01*
X007546Y011769D01*
X007623Y011693D01*
X007777Y011693D01*
X007853Y011769D01*
X007363Y011781D02*
X007287Y011781D01*
X006980Y012088D01*
X006903Y012088D01*
X006903Y011781D01*
X006980Y011627D02*
X006903Y011551D01*
X006903Y011397D01*
X006980Y011320D01*
X007287Y011320D01*
X007363Y011397D01*
X007363Y011551D01*
X007287Y011627D01*
X004943Y012676D02*
X004943Y012829D01*
X004866Y012906D01*
X004866Y013059D02*
X004943Y013136D01*
X004943Y013289D01*
X004866Y013366D01*
X004789Y013366D01*
X004713Y013289D01*
X004713Y013213D01*
X004713Y013289D02*
X004636Y013366D01*
X004559Y013366D01*
X004482Y013289D01*
X004482Y013136D01*
X004559Y013059D01*
X004559Y012906D02*
X004482Y012829D01*
X004482Y012676D01*
X004559Y012599D01*
X004866Y012599D01*
X004943Y012676D01*
X003922Y012690D02*
X003462Y012690D01*
X003462Y012921D01*
X003539Y012997D01*
X003692Y012997D01*
X003769Y012921D01*
X003769Y012690D01*
X003769Y012844D02*
X003922Y012997D01*
X003922Y013151D02*
X003615Y013458D01*
X003539Y013458D01*
X003462Y013381D01*
X003462Y013228D01*
X003539Y013151D01*
X003922Y013151D02*
X003922Y013458D01*
X006162Y013464D02*
X006162Y013924D01*
X006393Y013924D01*
X006469Y013847D01*
X006469Y013694D01*
X006393Y013617D01*
X006162Y013617D01*
X006316Y013617D02*
X006469Y013464D01*
X006623Y013540D02*
X006699Y013464D01*
X006853Y013464D01*
X006930Y013540D01*
X006930Y013847D01*
X006853Y013924D01*
X006699Y013924D01*
X006623Y013847D01*
X006623Y013770D01*
X006699Y013694D01*
X006930Y013694D01*
X007005Y014167D02*
X007082Y014244D01*
X007082Y014398D01*
X007005Y014474D01*
X006851Y014474D01*
X006775Y014398D01*
X006775Y014244D01*
X006851Y014167D01*
X007005Y014167D01*
X007235Y014244D02*
X007312Y014167D01*
X007388Y014244D01*
X007465Y014167D01*
X007542Y014244D01*
X007542Y014474D01*
X007695Y014398D02*
X007772Y014474D01*
X007926Y014474D01*
X008002Y014398D01*
X008002Y014321D01*
X007695Y014321D01*
X007695Y014244D02*
X007695Y014398D01*
X007695Y014244D02*
X007772Y014167D01*
X007926Y014167D01*
X008156Y014167D02*
X008156Y014474D01*
X008156Y014321D02*
X008309Y014474D01*
X008386Y014474D01*
X007235Y014474D02*
X007235Y014244D01*
X006621Y014398D02*
X006621Y014551D01*
X006544Y014628D01*
X006314Y014628D01*
X006314Y014167D01*
X006314Y014321D02*
X006544Y014321D01*
X006621Y014398D01*
X006788Y015526D02*
X007018Y015526D01*
X007095Y015602D01*
X007095Y015909D01*
X007018Y015986D01*
X006788Y015986D01*
X006788Y015526D01*
X007248Y015602D02*
X007325Y015526D01*
X007478Y015526D01*
X007555Y015602D01*
X007555Y015679D01*
X007478Y015756D01*
X007402Y015756D01*
X007478Y015756D02*
X007555Y015833D01*
X007555Y015909D01*
X007478Y015986D01*
X007325Y015986D01*
X007248Y015909D01*
X015906Y016043D02*
X015906Y015583D01*
X016136Y015583D01*
X016213Y015659D01*
X016213Y015966D01*
X016136Y016043D01*
X015906Y016043D01*
X016366Y016043D02*
X016366Y015813D01*
X016520Y015890D01*
X016596Y015890D01*
X016673Y015813D01*
X016673Y015659D01*
X016596Y015583D01*
X016443Y015583D01*
X016366Y015659D01*
X016366Y016043D02*
X016673Y016043D01*
X024127Y013110D02*
X024127Y012649D01*
X024127Y012803D02*
X024357Y012803D01*
X024434Y012880D01*
X024434Y013033D01*
X024357Y013110D01*
X024127Y013110D01*
X024280Y012803D02*
X024434Y012649D01*
X024587Y012649D02*
X024894Y012649D01*
X024741Y012649D02*
X024741Y013110D01*
X024587Y012956D01*
X025048Y012880D02*
X025048Y013110D01*
X025355Y013110D01*
X025278Y012956D02*
X025355Y012880D01*
X025355Y012726D01*
X025278Y012649D01*
X025124Y012649D01*
X025048Y012726D01*
X025048Y012880D02*
X025201Y012956D01*
X025278Y012956D01*
X018616Y009752D02*
X018155Y009752D01*
X018155Y009982D01*
X018232Y010059D01*
X015980Y008853D02*
X015673Y008853D01*
X015826Y008853D02*
X015826Y009313D01*
X015673Y009160D01*
X015519Y008853D02*
X015212Y008853D01*
X015212Y009313D01*
X014922Y009365D02*
X014922Y009058D01*
X014922Y009212D02*
X014461Y009212D01*
X014615Y009058D01*
X014538Y008905D02*
X014461Y008828D01*
X014461Y008675D01*
X014538Y008598D01*
X014845Y008598D01*
X014922Y008675D01*
X014922Y008828D01*
X014845Y008905D01*
X020079Y007587D02*
X020079Y007280D01*
X020079Y007587D02*
X020156Y007587D01*
X020463Y007280D01*
X020539Y007280D01*
X020539Y007127D02*
X020539Y006820D01*
X020539Y006973D02*
X020079Y006973D01*
X020232Y006820D01*
X020156Y006666D02*
X020309Y006666D01*
X020386Y006590D01*
X020386Y006359D01*
X020539Y006359D02*
X020079Y006359D01*
X020079Y006590D01*
X020156Y006666D01*
X020386Y006513D02*
X020539Y006666D01*
X022866Y004339D02*
X022789Y004263D01*
X022789Y003956D01*
X022866Y003879D01*
X023019Y003879D01*
X023096Y003956D01*
X023250Y003879D02*
X023557Y004186D01*
X023557Y004263D01*
X023480Y004339D01*
X023326Y004339D01*
X023250Y004263D01*
X023096Y004263D02*
X023019Y004339D01*
X022866Y004339D01*
X023250Y003879D02*
X023557Y003879D01*
X023710Y003879D02*
X024017Y004186D01*
X024017Y004263D01*
X023940Y004339D01*
X023787Y004339D01*
X023710Y004263D01*
X024168Y004339D02*
X024398Y004339D01*
X024475Y004262D01*
X024475Y004109D01*
X024398Y004032D01*
X024168Y004032D01*
X024168Y003878D02*
X024168Y004339D01*
X024322Y004032D02*
X024475Y003878D01*
X024629Y003878D02*
X024936Y003878D01*
X024782Y003878D02*
X024782Y004339D01*
X024629Y004185D01*
X025089Y004185D02*
X025089Y004262D01*
X025166Y004339D01*
X025319Y004339D01*
X025396Y004262D01*
X025396Y004185D01*
X025319Y004109D01*
X025166Y004109D01*
X025089Y004185D01*
X025166Y004109D02*
X025089Y004032D01*
X025089Y003955D01*
X025166Y003878D01*
X025319Y003878D01*
X025396Y003955D01*
X025396Y004032D01*
X025319Y004109D01*
X026431Y004262D02*
X026431Y003801D01*
X026661Y003801D01*
X026738Y003878D01*
X026738Y004185D01*
X026661Y004262D01*
X026431Y004262D01*
X026892Y004108D02*
X027045Y004262D01*
X027045Y003801D01*
X026892Y003801D02*
X027199Y003801D01*
X027212Y003582D02*
X026982Y003582D01*
X026905Y003505D01*
X026905Y003352D01*
X026982Y003275D01*
X027212Y003275D01*
X027121Y003107D02*
X026967Y003107D01*
X026890Y003030D01*
X026737Y003030D02*
X026660Y003107D01*
X026430Y003107D01*
X026430Y002647D01*
X026660Y002647D01*
X026737Y002723D01*
X026737Y003030D01*
X027121Y003107D02*
X027197Y003030D01*
X027197Y002954D01*
X026890Y002647D01*
X027197Y002647D01*
X027232Y002472D02*
X027232Y002011D01*
X027078Y002011D02*
X027002Y002088D01*
X027002Y002395D01*
X026925Y002318D02*
X027078Y002318D01*
X027232Y002241D02*
X027309Y002318D01*
X027462Y002318D01*
X027539Y002241D01*
X027539Y002011D01*
X027031Y001447D02*
X026954Y001523D01*
X026724Y001523D01*
X026724Y001063D01*
X026954Y001063D01*
X027031Y001140D01*
X027031Y001447D01*
X026110Y001370D02*
X025957Y001063D01*
X025803Y001370D01*
X025650Y001293D02*
X025650Y001216D01*
X025343Y001216D01*
X025343Y001140D02*
X025343Y001293D01*
X025419Y001370D01*
X025573Y001370D01*
X025650Y001293D01*
X025573Y001063D02*
X025419Y001063D01*
X025343Y001140D01*
X025112Y001370D02*
X024959Y001216D01*
X024959Y001063D02*
X024959Y001370D01*
X025112Y001370D02*
X025189Y001370D01*
X024345Y001370D02*
X024115Y001370D01*
X024038Y001293D01*
X024115Y001216D01*
X024268Y001216D01*
X024345Y001140D01*
X024268Y001063D01*
X024038Y001063D01*
X023885Y001063D02*
X023885Y001370D01*
X023578Y001370D02*
X023578Y001140D01*
X023655Y001063D01*
X023885Y001063D01*
X023424Y001216D02*
X023117Y001216D01*
X023117Y001140D02*
X023117Y001293D01*
X023194Y001370D01*
X023348Y001370D01*
X023424Y001293D01*
X023424Y001216D01*
X023348Y001063D02*
X023194Y001063D01*
X023117Y001140D01*
X022964Y001063D02*
X022657Y001063D01*
X022657Y001140D01*
X022964Y001447D01*
X022964Y001523D01*
X022657Y001523D01*
X022589Y001792D02*
X022282Y001792D01*
X022589Y002099D01*
X022589Y002176D01*
X022512Y002252D01*
X022359Y002252D01*
X022282Y002176D01*
X022128Y002176D02*
X022052Y002252D01*
X021898Y002252D01*
X021822Y002176D01*
X021822Y001869D01*
X021898Y001792D01*
X022052Y001792D01*
X022128Y001869D01*
X022742Y001792D02*
X023049Y001792D01*
X022896Y001792D02*
X022896Y002252D01*
X022742Y002099D01*
X022616Y002636D02*
X022156Y002636D01*
X022616Y002636D02*
X022616Y002942D01*
X022616Y003096D02*
X022309Y003403D01*
X022232Y003403D01*
X022156Y003326D01*
X022156Y003173D01*
X022232Y003096D01*
X022616Y003096D02*
X022616Y003403D01*
X023710Y003879D02*
X024017Y003879D01*
X026445Y003582D02*
X026445Y003275D01*
X026445Y003505D02*
X026752Y003505D01*
X026752Y003582D02*
X026752Y003275D01*
X026752Y003582D02*
X026598Y003736D01*
X026445Y003582D01*
X027366Y003582D02*
X027519Y003582D01*
X027442Y003659D02*
X027442Y003352D01*
X027519Y003275D01*
X026772Y002472D02*
X026465Y002472D01*
X026465Y002011D01*
X026772Y002011D01*
X026618Y002241D02*
X026465Y002241D01*
X020345Y002521D02*
X019884Y002521D01*
X019884Y002751D01*
X019961Y002828D01*
X020115Y002828D01*
X020191Y002751D01*
X020191Y002521D01*
X020191Y002675D02*
X020345Y002828D01*
X020345Y002982D02*
X020345Y003289D01*
X020345Y003135D02*
X019884Y003135D01*
X020038Y002982D01*
X019432Y002678D02*
X019432Y002601D01*
X019356Y002525D01*
X019432Y002448D01*
X019432Y002371D01*
X019356Y002294D01*
X019202Y002294D01*
X019126Y002371D01*
X018972Y002294D02*
X018665Y002294D01*
X018512Y002294D02*
X018358Y002448D01*
X018435Y002448D02*
X018205Y002448D01*
X018205Y002294D02*
X018205Y002755D01*
X018435Y002755D01*
X018512Y002678D01*
X018512Y002525D01*
X018435Y002448D01*
X018665Y002601D02*
X018819Y002755D01*
X018819Y002294D01*
X019126Y002678D02*
X019202Y002755D01*
X019356Y002755D01*
X019432Y002678D01*
X019356Y002525D02*
X019279Y002525D01*
X020115Y003442D02*
X020115Y003672D01*
X020191Y003749D01*
X020268Y003749D01*
X020345Y003672D01*
X020345Y003519D01*
X020268Y003442D01*
X020115Y003442D01*
X019961Y003596D01*
X019884Y003749D01*
X019305Y001275D02*
X019074Y001045D01*
X019381Y001045D01*
X019305Y000815D02*
X019305Y001275D01*
X018767Y001275D02*
X018767Y000815D01*
X018614Y000815D02*
X018921Y000815D01*
X018461Y000815D02*
X018307Y000968D01*
X018384Y000968D02*
X018154Y000968D01*
X018154Y000815D02*
X018154Y001275D01*
X018384Y001275D01*
X018461Y001199D01*
X018461Y001045D01*
X018384Y000968D01*
X018614Y001122D02*
X018767Y001275D01*
X008220Y004784D02*
X008143Y004707D01*
X007990Y004707D01*
X007913Y004784D01*
X007913Y004937D02*
X008067Y005014D01*
X008143Y005014D01*
X008220Y004937D01*
X008220Y004784D01*
X007913Y004937D02*
X007913Y005167D01*
X008220Y005167D01*
X007760Y005091D02*
X007683Y005167D01*
X007530Y005167D01*
X007453Y005091D01*
X007453Y004784D01*
X007530Y004707D01*
X007683Y004707D01*
X007760Y004784D01*
X006726Y004745D02*
X006419Y004745D01*
X006726Y005052D01*
X006726Y005128D01*
X006650Y005205D01*
X006496Y005205D01*
X006419Y005128D01*
X006112Y005205D02*
X005959Y005052D01*
X005805Y005128D02*
X005729Y005205D01*
X005575Y005205D01*
X005499Y005128D01*
X005499Y004821D01*
X005575Y004745D01*
X005729Y004745D01*
X005805Y004821D01*
X005959Y004745D02*
X006266Y004745D01*
X006112Y004745D02*
X006112Y005205D01*
X004195Y006828D02*
X004195Y007289D01*
X003964Y007059D01*
X004271Y007059D01*
X003811Y007212D02*
X003734Y007289D01*
X003581Y007289D01*
X003504Y007212D01*
X003504Y006905D01*
X003581Y006828D01*
X003734Y006828D01*
X003811Y006905D01*
X003743Y009688D02*
X003743Y010149D01*
X003973Y010149D01*
X004050Y010072D01*
X004050Y009918D01*
X003973Y009842D01*
X003743Y009842D01*
X003896Y009842D02*
X004050Y009688D01*
X004203Y009765D02*
X004280Y009688D01*
X004433Y009688D01*
X004510Y009765D01*
X004510Y009842D01*
X004433Y009918D01*
X004357Y009918D01*
X004433Y009918D02*
X004510Y009995D01*
X004510Y010072D01*
X004433Y010149D01*
X004280Y010149D01*
X004203Y010072D01*
D11*
X000185Y000244D02*
X028531Y000244D01*
X028531Y016779D01*
X000185Y016779D01*
X000185Y000244D01*
X026268Y006259D02*
X026270Y006311D01*
X026276Y006363D01*
X026286Y006414D01*
X026299Y006464D01*
X026317Y006514D01*
X026338Y006561D01*
X026362Y006607D01*
X026391Y006651D01*
X026422Y006693D01*
X026456Y006732D01*
X026493Y006769D01*
X026533Y006802D01*
X026576Y006833D01*
X026620Y006860D01*
X026666Y006884D01*
X026715Y006904D01*
X026764Y006920D01*
X026815Y006933D01*
X026866Y006942D01*
X026918Y006947D01*
X026970Y006948D01*
X027022Y006945D01*
X027074Y006938D01*
X027125Y006927D01*
X027175Y006913D01*
X027224Y006894D01*
X027271Y006872D01*
X027316Y006847D01*
X027360Y006818D01*
X027401Y006786D01*
X027440Y006751D01*
X027475Y006713D01*
X027508Y006672D01*
X027538Y006630D01*
X027564Y006585D01*
X027587Y006538D01*
X027606Y006489D01*
X027622Y006439D01*
X027634Y006389D01*
X027642Y006337D01*
X027646Y006285D01*
X027646Y006233D01*
X027642Y006181D01*
X027634Y006129D01*
X027622Y006079D01*
X027606Y006029D01*
X027587Y005980D01*
X027564Y005933D01*
X027538Y005888D01*
X027508Y005846D01*
X027475Y005805D01*
X027440Y005767D01*
X027401Y005732D01*
X027360Y005700D01*
X027316Y005671D01*
X027271Y005646D01*
X027224Y005624D01*
X027175Y005605D01*
X027125Y005591D01*
X027074Y005580D01*
X027022Y005573D01*
X026970Y005570D01*
X026918Y005571D01*
X026866Y005576D01*
X026815Y005585D01*
X026764Y005598D01*
X026715Y005614D01*
X026666Y005634D01*
X026620Y005658D01*
X026576Y005685D01*
X026533Y005716D01*
X026493Y005749D01*
X026456Y005786D01*
X026422Y005825D01*
X026391Y005867D01*
X026362Y005911D01*
X026338Y005957D01*
X026317Y006004D01*
X026299Y006054D01*
X026286Y006104D01*
X026276Y006155D01*
X026270Y006207D01*
X026268Y006259D01*
X026268Y010763D02*
X026270Y010815D01*
X026276Y010867D01*
X026286Y010918D01*
X026299Y010968D01*
X026317Y011018D01*
X026338Y011065D01*
X026362Y011111D01*
X026391Y011155D01*
X026422Y011197D01*
X026456Y011236D01*
X026493Y011273D01*
X026533Y011306D01*
X026576Y011337D01*
X026620Y011364D01*
X026666Y011388D01*
X026715Y011408D01*
X026764Y011424D01*
X026815Y011437D01*
X026866Y011446D01*
X026918Y011451D01*
X026970Y011452D01*
X027022Y011449D01*
X027074Y011442D01*
X027125Y011431D01*
X027175Y011417D01*
X027224Y011398D01*
X027271Y011376D01*
X027316Y011351D01*
X027360Y011322D01*
X027401Y011290D01*
X027440Y011255D01*
X027475Y011217D01*
X027508Y011176D01*
X027538Y011134D01*
X027564Y011089D01*
X027587Y011042D01*
X027606Y010993D01*
X027622Y010943D01*
X027634Y010893D01*
X027642Y010841D01*
X027646Y010789D01*
X027646Y010737D01*
X027642Y010685D01*
X027634Y010633D01*
X027622Y010583D01*
X027606Y010533D01*
X027587Y010484D01*
X027564Y010437D01*
X027538Y010392D01*
X027508Y010350D01*
X027475Y010309D01*
X027440Y010271D01*
X027401Y010236D01*
X027360Y010204D01*
X027316Y010175D01*
X027271Y010150D01*
X027224Y010128D01*
X027175Y010109D01*
X027125Y010095D01*
X027074Y010084D01*
X027022Y010077D01*
X026970Y010074D01*
X026918Y010075D01*
X026866Y010080D01*
X026815Y010089D01*
X026764Y010102D01*
X026715Y010118D01*
X026666Y010138D01*
X026620Y010162D01*
X026576Y010189D01*
X026533Y010220D01*
X026493Y010253D01*
X026456Y010290D01*
X026422Y010329D01*
X026391Y010371D01*
X026362Y010415D01*
X026338Y010461D01*
X026317Y010508D01*
X026299Y010558D01*
X026286Y010608D01*
X026276Y010659D01*
X026270Y010711D01*
X026268Y010763D01*
D12*
X015976Y002859D02*
X013063Y002859D01*
X013063Y000969D02*
X015976Y000969D01*
X009118Y006460D02*
X008961Y006303D01*
X005496Y006303D01*
X005339Y006460D01*
X005339Y009925D01*
X005496Y010082D01*
X008961Y010082D01*
X009118Y009925D01*
X009118Y006460D01*
D13*
X005543Y009767D02*
X005545Y009787D01*
X005550Y009807D01*
X005560Y009825D01*
X005572Y009842D01*
X005587Y009856D01*
X005605Y009866D01*
X005624Y009874D01*
X005644Y009878D01*
X005664Y009878D01*
X005684Y009874D01*
X005703Y009866D01*
X005721Y009856D01*
X005736Y009842D01*
X005748Y009825D01*
X005758Y009807D01*
X005763Y009787D01*
X005765Y009767D01*
X005763Y009747D01*
X005758Y009727D01*
X005748Y009709D01*
X005736Y009692D01*
X005721Y009678D01*
X005703Y009668D01*
X005684Y009660D01*
X005664Y009656D01*
X005644Y009656D01*
X005624Y009660D01*
X005605Y009668D01*
X005587Y009678D01*
X005572Y009692D01*
X005560Y009709D01*
X005550Y009727D01*
X005545Y009747D01*
X005543Y009767D01*
D14*
X005102Y009669D03*
X005102Y009472D03*
X005102Y009275D03*
X005102Y009078D03*
X005102Y008881D03*
X005102Y008684D03*
X005102Y008488D03*
X005102Y008291D03*
X005102Y008094D03*
X005102Y007897D03*
X005102Y007700D03*
X005102Y007503D03*
X005102Y007306D03*
X005102Y007110D03*
X005102Y006913D03*
X005102Y006716D03*
X009354Y006716D03*
X009354Y006913D03*
X009354Y007110D03*
X009354Y007306D03*
X009354Y007503D03*
X009354Y007700D03*
X009354Y007897D03*
X009354Y008094D03*
X009354Y008291D03*
X009354Y008488D03*
X009354Y008684D03*
X009354Y008881D03*
X009354Y009078D03*
X009354Y009275D03*
X009354Y009472D03*
X009354Y009669D03*
D15*
X008705Y010318D03*
X008508Y010318D03*
X008311Y010318D03*
X008114Y010318D03*
X007917Y010318D03*
X007720Y010318D03*
X007524Y010318D03*
X007327Y010318D03*
X007130Y010318D03*
X006933Y010318D03*
X006736Y010318D03*
X006539Y010318D03*
X006342Y010318D03*
X006146Y010318D03*
X005949Y010318D03*
X005752Y010318D03*
X005752Y006066D03*
X005949Y006066D03*
X006146Y006066D03*
X006342Y006066D03*
X006539Y006066D03*
X006736Y006066D03*
X006933Y006066D03*
X007130Y006066D03*
X007327Y006066D03*
X007524Y006066D03*
X007720Y006066D03*
X007917Y006066D03*
X008114Y006066D03*
X008311Y006066D03*
X008508Y006066D03*
X008705Y006066D03*
D16*
X009368Y003983D02*
X009368Y003833D01*
X010068Y003833D01*
X010118Y003833D01*
X010118Y001683D01*
X010116Y001666D01*
X010112Y001649D01*
X010105Y001633D01*
X010095Y001619D01*
X010082Y001606D01*
X010068Y001596D01*
X010052Y001589D01*
X010035Y001585D01*
X010018Y001583D01*
X009418Y001583D01*
X009401Y001585D01*
X009384Y001589D01*
X009368Y001596D01*
X009354Y001606D01*
X009341Y001619D01*
X009331Y001633D01*
X009324Y001649D01*
X009320Y001666D01*
X009318Y001683D01*
X009318Y003833D01*
X009368Y003833D01*
X009368Y003983D02*
X010068Y003983D01*
X010068Y003833D01*
X009718Y003183D02*
X009718Y002983D01*
X009518Y002983D01*
X009518Y002833D02*
X009518Y002683D01*
X009918Y002683D01*
X009918Y002833D01*
X009518Y002833D01*
X009718Y002983D02*
X009918Y002983D01*
X009918Y002533D02*
X009718Y002533D01*
X009518Y002533D01*
X009718Y002533D02*
X009718Y002333D01*
X005384Y002087D02*
X005384Y001587D01*
X005134Y001337D01*
X004634Y001337D01*
X004384Y001587D01*
X004134Y001337D01*
X003634Y001337D01*
X003384Y001587D01*
X003134Y001337D01*
X002634Y001337D01*
X002384Y001587D01*
X002134Y001337D01*
X001634Y001337D01*
X001384Y001587D01*
X001384Y002087D01*
X001634Y002337D01*
X002134Y002337D01*
X002384Y002087D01*
X002634Y002337D01*
X003134Y002337D01*
X003384Y002087D01*
X003634Y002337D01*
X004134Y002337D01*
X004384Y002087D01*
X004634Y002337D01*
X005134Y002337D01*
X005384Y002087D01*
X003317Y002766D02*
X003317Y014266D01*
X003315Y014296D01*
X003310Y014326D01*
X003301Y014355D01*
X003288Y014382D01*
X003273Y014408D01*
X003254Y014432D01*
X003233Y014453D01*
X003209Y014472D01*
X003183Y014487D01*
X003156Y014500D01*
X003127Y014509D01*
X003097Y014514D01*
X003067Y014516D01*
X001167Y014516D01*
X001137Y014514D01*
X001107Y014509D01*
X001078Y014500D01*
X001051Y014487D01*
X001025Y014472D01*
X001001Y014453D01*
X000980Y014432D01*
X000961Y014408D01*
X000946Y014382D01*
X000933Y014355D01*
X000924Y014326D01*
X000919Y014296D01*
X000917Y014266D01*
X000917Y002766D01*
X000919Y002736D01*
X000924Y002706D01*
X000933Y002677D01*
X000946Y002650D01*
X000961Y002624D01*
X000980Y002600D01*
X001001Y002579D01*
X001025Y002560D01*
X001051Y002545D01*
X001078Y002532D01*
X001107Y002523D01*
X001137Y002518D01*
X001167Y002516D01*
X003067Y002516D01*
X003097Y002518D01*
X003127Y002523D01*
X003156Y002532D01*
X003183Y002545D01*
X003209Y002560D01*
X003233Y002579D01*
X003254Y002600D01*
X003273Y002624D01*
X003288Y002650D01*
X003301Y002677D01*
X003310Y002706D01*
X003315Y002736D01*
X003317Y002766D01*
X005395Y010806D02*
X005608Y010806D01*
X005501Y010806D02*
X005501Y011447D01*
X005395Y011447D02*
X005608Y011447D01*
X005824Y011340D02*
X005824Y010913D01*
X005931Y010806D01*
X006145Y010806D01*
X006251Y010913D01*
X006469Y010806D02*
X006896Y010806D01*
X006682Y010806D02*
X006682Y011447D01*
X006469Y011233D01*
X006251Y011340D02*
X006145Y011447D01*
X005931Y011447D01*
X005824Y011340D01*
X008952Y014598D02*
X009452Y014598D01*
X009702Y014848D01*
X009952Y014598D01*
X010452Y014598D01*
X010702Y014848D01*
X010952Y014598D01*
X011452Y014598D01*
X011702Y014848D01*
X011952Y014598D01*
X012452Y014598D01*
X012702Y014848D01*
X012952Y014598D01*
X013452Y014598D01*
X013702Y014848D01*
X013952Y014598D01*
X014452Y014598D01*
X014702Y014848D01*
X014702Y015348D01*
X014452Y015598D01*
X013952Y015598D01*
X013702Y015348D01*
X013452Y015598D01*
X012952Y015598D01*
X012702Y015348D01*
X012452Y015598D01*
X011952Y015598D01*
X011702Y015348D01*
X011452Y015598D01*
X010952Y015598D01*
X010702Y015348D01*
X010452Y015598D01*
X009952Y015598D01*
X009702Y015348D01*
X009452Y015598D01*
X008952Y015598D01*
X008702Y015348D01*
X008702Y014848D01*
X008952Y014598D01*
X019875Y013881D02*
X019875Y013281D01*
X019877Y013264D01*
X019881Y013247D01*
X019888Y013231D01*
X019898Y013217D01*
X019911Y013204D01*
X019925Y013194D01*
X019941Y013187D01*
X019958Y013183D01*
X019975Y013181D01*
X021575Y013181D01*
X021592Y013183D01*
X021609Y013187D01*
X021625Y013194D01*
X021639Y013204D01*
X021652Y013217D01*
X021662Y013231D01*
X021669Y013247D01*
X021673Y013264D01*
X021675Y013281D01*
X021675Y013881D01*
X021673Y013898D01*
X021669Y013915D01*
X021662Y013931D01*
X021652Y013945D01*
X021639Y013958D01*
X021625Y013968D01*
X021609Y013975D01*
X021592Y013979D01*
X021575Y013981D01*
X019975Y013981D01*
X019958Y013979D01*
X019941Y013975D01*
X019925Y013968D01*
X019911Y013958D01*
X019898Y013945D01*
X019888Y013931D01*
X019881Y013915D01*
X019877Y013898D01*
X019875Y013881D01*
X020175Y013581D02*
X020775Y013581D01*
X020775Y013831D01*
X020775Y013581D02*
X020775Y013331D01*
X020775Y013581D02*
X020375Y013331D01*
X020375Y013831D01*
X020775Y013581D01*
X021025Y013581D01*
D17*
X020984Y013105D02*
X020984Y012655D01*
X020834Y012655D02*
X021134Y012655D01*
X020674Y012655D02*
X020374Y012655D01*
X020374Y012730D01*
X020674Y013030D01*
X020674Y013105D01*
X020374Y013105D01*
X020834Y012955D02*
X020984Y013105D01*
X021957Y012511D02*
X021957Y004511D01*
X030957Y004511D01*
X030957Y012511D01*
X021957Y012511D01*
X014313Y008523D02*
X012699Y008523D01*
X012699Y007067D01*
X014313Y007067D01*
X014313Y008523D01*
X015310Y007809D02*
X015312Y007897D01*
X015318Y007985D01*
X015328Y008073D01*
X015342Y008161D01*
X015359Y008247D01*
X015381Y008333D01*
X015406Y008417D01*
X015436Y008501D01*
X015468Y008583D01*
X015505Y008663D01*
X015545Y008742D01*
X015589Y008819D01*
X015636Y008894D01*
X015686Y008966D01*
X015740Y009037D01*
X015796Y009104D01*
X015856Y009170D01*
X015918Y009232D01*
X015984Y009292D01*
X016051Y009348D01*
X016122Y009402D01*
X016194Y009452D01*
X016269Y009499D01*
X016346Y009543D01*
X016425Y009583D01*
X016505Y009620D01*
X016587Y009652D01*
X016671Y009682D01*
X016755Y009707D01*
X016841Y009729D01*
X016927Y009746D01*
X017015Y009760D01*
X017103Y009770D01*
X017191Y009776D01*
X017279Y009778D01*
X017367Y009776D01*
X017455Y009770D01*
X017543Y009760D01*
X017631Y009746D01*
X017717Y009729D01*
X017803Y009707D01*
X017887Y009682D01*
X017971Y009652D01*
X018053Y009620D01*
X018133Y009583D01*
X018212Y009543D01*
X018289Y009499D01*
X018364Y009452D01*
X018436Y009402D01*
X018507Y009348D01*
X018574Y009292D01*
X018640Y009232D01*
X018702Y009170D01*
X018762Y009104D01*
X018818Y009037D01*
X018872Y008966D01*
X018922Y008894D01*
X018969Y008819D01*
X019013Y008742D01*
X019053Y008663D01*
X019090Y008583D01*
X019122Y008501D01*
X019152Y008417D01*
X019177Y008333D01*
X019199Y008247D01*
X019216Y008161D01*
X019230Y008073D01*
X019240Y007985D01*
X019246Y007897D01*
X019248Y007809D01*
X019246Y007721D01*
X019240Y007633D01*
X019230Y007545D01*
X019216Y007457D01*
X019199Y007371D01*
X019177Y007285D01*
X019152Y007201D01*
X019122Y007117D01*
X019090Y007035D01*
X019053Y006955D01*
X019013Y006876D01*
X018969Y006799D01*
X018922Y006724D01*
X018872Y006652D01*
X018818Y006581D01*
X018762Y006514D01*
X018702Y006448D01*
X018640Y006386D01*
X018574Y006326D01*
X018507Y006270D01*
X018436Y006216D01*
X018364Y006166D01*
X018289Y006119D01*
X018212Y006075D01*
X018133Y006035D01*
X018053Y005998D01*
X017971Y005966D01*
X017887Y005936D01*
X017803Y005911D01*
X017717Y005889D01*
X017631Y005872D01*
X017543Y005858D01*
X017455Y005848D01*
X017367Y005842D01*
X017279Y005840D01*
X017191Y005842D01*
X017103Y005848D01*
X017015Y005858D01*
X016927Y005872D01*
X016841Y005889D01*
X016755Y005911D01*
X016671Y005936D01*
X016587Y005966D01*
X016505Y005998D01*
X016425Y006035D01*
X016346Y006075D01*
X016269Y006119D01*
X016194Y006166D01*
X016122Y006216D01*
X016051Y006270D01*
X015984Y006326D01*
X015918Y006386D01*
X015856Y006448D01*
X015796Y006514D01*
X015740Y006581D01*
X015686Y006652D01*
X015636Y006724D01*
X015589Y006799D01*
X015545Y006876D01*
X015505Y006955D01*
X015468Y007035D01*
X015436Y007117D01*
X015406Y007201D01*
X015381Y007285D01*
X015359Y007371D01*
X015342Y007457D01*
X015328Y007545D01*
X015318Y007633D01*
X015312Y007721D01*
X015310Y007809D01*
X010018Y005419D02*
X010018Y005344D01*
X009717Y005044D01*
X010018Y005044D01*
X009557Y005044D02*
X009257Y005494D01*
X009557Y005494D02*
X009257Y005044D01*
X009717Y005419D02*
X009792Y005494D01*
X009943Y005494D01*
X010018Y005419D01*
X005734Y002062D02*
X005509Y001837D01*
X005809Y001837D01*
X005734Y001612D02*
X005734Y002062D01*
X005732Y001328D02*
X005882Y001328D01*
X005957Y001253D01*
X005957Y001178D01*
X005882Y001103D01*
X005957Y001028D01*
X005957Y000953D01*
X005882Y000878D01*
X005732Y000878D01*
X005657Y000953D01*
X005807Y001103D02*
X005882Y001103D01*
X005657Y001253D02*
X005732Y001328D01*
X005497Y001328D02*
X005346Y001328D01*
X005422Y001328D02*
X005422Y000953D01*
X005346Y000878D01*
X005271Y000878D01*
X005196Y000953D01*
X001259Y001612D02*
X000959Y001612D01*
X001109Y001612D02*
X001109Y002062D01*
X000959Y001912D01*
X000742Y002891D02*
X000742Y003192D01*
X000742Y003042D02*
X000291Y003042D01*
X000441Y002891D01*
X003566Y013691D02*
X003491Y013766D01*
X003491Y013917D01*
X003566Y013992D01*
X003641Y013992D01*
X003942Y013691D01*
X003942Y013992D01*
X003716Y014152D02*
X003716Y014452D01*
X003491Y014377D02*
X003716Y014152D01*
X003942Y014377D02*
X003491Y014377D01*
X008727Y015848D02*
X008802Y015773D01*
X008878Y015773D01*
X008953Y015848D01*
X008953Y016224D01*
X008878Y016224D02*
X009028Y016224D01*
X009188Y016224D02*
X009413Y016224D01*
X009488Y016149D01*
X009488Y015999D01*
X009413Y015923D01*
X009188Y015923D01*
X009188Y015773D02*
X009188Y016224D01*
X009648Y015999D02*
X009948Y015999D01*
X009873Y016224D02*
X009873Y015773D01*
X009648Y015999D02*
X009873Y016224D01*
X009128Y014424D02*
X009128Y013973D01*
X009278Y013973D02*
X008977Y013973D01*
X008977Y014274D02*
X009128Y014424D01*
X013977Y015848D02*
X014052Y015773D01*
X014203Y015773D01*
X014278Y015848D01*
X014278Y015923D01*
X014203Y015999D01*
X013977Y015999D01*
X013977Y015848D01*
X013977Y015999D02*
X014128Y016149D01*
X014278Y016224D01*
D18*
X014886Y007887D02*
X014886Y007640D01*
X014886Y007518D02*
X014516Y007272D01*
X014516Y007518D02*
X014886Y007272D01*
X014639Y007640D02*
X014516Y007763D01*
X014886Y007763D01*
X017215Y005537D02*
X017276Y005599D01*
X017400Y005599D01*
X017462Y005537D01*
X017583Y005476D02*
X017706Y005599D01*
X017706Y005229D01*
X017583Y005229D02*
X017830Y005229D01*
X017951Y005290D02*
X018013Y005229D01*
X018136Y005229D01*
X018198Y005290D01*
X018198Y005537D01*
X018136Y005599D01*
X018013Y005599D01*
X017951Y005537D01*
X017951Y005476D01*
X018013Y005414D01*
X018198Y005414D01*
X017462Y005290D02*
X017400Y005229D01*
X017276Y005229D01*
X017215Y005290D01*
X017215Y005537D01*
X016154Y003174D02*
X016215Y003112D01*
X015968Y002865D01*
X016030Y002803D01*
X016154Y002803D01*
X016215Y002865D01*
X016215Y003112D01*
X016154Y003174D02*
X016030Y003174D01*
X015968Y003112D01*
X015968Y002865D01*
X015847Y002803D02*
X015600Y002803D01*
X015847Y003050D01*
X015847Y003112D01*
X015785Y003174D01*
X015662Y003174D01*
X015600Y003112D01*
X015479Y003112D02*
X015417Y003174D01*
X015294Y003174D01*
X015232Y003112D01*
X015232Y002865D01*
X015294Y002803D01*
X015417Y002803D01*
X015479Y002865D01*
D19*
X009918Y004133D02*
X009918Y004333D01*
X009518Y004333D02*
X009518Y004183D01*
D20*
X009518Y004118D03*
X009918Y004118D03*
D21*
X021425Y013581D03*
D22*
X022050Y013581D03*
X019500Y013581D03*
M02*
