G75*
%MOIN*%
%OFA0B0*%
%FSLAX24Y24*%
%IPPOS*%
%LPD*%
%AMOC8*
5,1,8,0,0,1.08239X$1,22.5*
%
%ADD10R,0.0472X0.0118*%
%ADD11R,0.0118X0.0472*%
%ADD12R,0.0551X0.0472*%
%ADD13R,0.0630X0.0512*%
%ADD14R,0.0512X0.0591*%
%ADD15R,0.0512X0.0630*%
%ADD16R,0.0591X0.0512*%
%ADD17C,0.0480*%
%ADD18R,0.0866X0.0236*%
%ADD19C,0.0560*%
%ADD20C,0.0554*%
%ADD21R,0.0551X0.0551*%
%ADD22R,0.1024X0.1772*%
%ADD23C,0.0947*%
%ADD24C,0.0514*%
%ADD25C,0.0520*%
%ADD26OC8,0.0520*%
%ADD27R,0.0945X0.0945*%
%ADD28R,0.0630X0.0551*%
%ADD29R,0.0551X0.0394*%
%ADD30C,0.0320*%
%ADD31C,0.0160*%
%ADD32C,0.0120*%
%ADD33C,0.0100*%
%ADD34C,0.0240*%
%ADD35C,0.0070*%
%ADD36C,0.0317*%
%ADD37C,0.0360*%
%ADD38C,0.0260*%
%ADD39C,0.0356*%
%ADD40R,0.0356X0.0356*%
%ADD41C,0.0060*%
D10*
X004984Y006716D03*
X004984Y006913D03*
X004984Y007110D03*
X004984Y007306D03*
X004984Y007503D03*
X004984Y007700D03*
X004984Y007897D03*
X004984Y008094D03*
X004984Y008291D03*
X004984Y008488D03*
X004984Y008684D03*
X004984Y008881D03*
X004984Y009078D03*
X004984Y009275D03*
X004984Y009472D03*
X004984Y009669D03*
X009472Y009669D03*
X009472Y009472D03*
X009472Y009275D03*
X009472Y009078D03*
X009472Y008881D03*
X009472Y008684D03*
X009472Y008488D03*
X009472Y008291D03*
X009472Y008094D03*
X009472Y007897D03*
X009472Y007700D03*
X009472Y007503D03*
X009472Y007306D03*
X009472Y007110D03*
X009472Y006913D03*
X009472Y006716D03*
D11*
X008705Y005948D03*
X008508Y005948D03*
X008311Y005948D03*
X008114Y005948D03*
X007917Y005948D03*
X007720Y005948D03*
X007524Y005948D03*
X007327Y005948D03*
X007130Y005948D03*
X006933Y005948D03*
X006736Y005948D03*
X006539Y005948D03*
X006342Y005948D03*
X006146Y005948D03*
X005949Y005948D03*
X005752Y005948D03*
X005752Y010436D03*
X005949Y010436D03*
X006146Y010436D03*
X006342Y010436D03*
X006539Y010436D03*
X006736Y010436D03*
X006933Y010436D03*
X007130Y010436D03*
X007327Y010436D03*
X007524Y010436D03*
X007720Y010436D03*
X007917Y010436D03*
X008114Y010436D03*
X008311Y010436D03*
X008508Y010436D03*
X008705Y010436D03*
D12*
X013105Y008157D03*
X013947Y008157D03*
X013947Y007433D03*
X013081Y007433D03*
D13*
X012160Y007414D03*
X012160Y008162D03*
X019128Y010073D03*
X019128Y010821D03*
X021051Y007310D03*
X021051Y006562D03*
X020807Y003436D03*
X020807Y002688D03*
X024594Y002625D03*
X024594Y003373D03*
X011250Y002094D03*
X011250Y001346D03*
X003764Y011441D03*
X003764Y012189D03*
D14*
X006933Y015006D03*
X007602Y015006D03*
X010323Y013717D03*
X011071Y013717D03*
X012536Y012270D03*
X013284Y012270D03*
X015228Y010297D03*
X015976Y010297D03*
X014050Y008989D03*
X013302Y008989D03*
X012272Y010011D03*
X011524Y010011D03*
X011294Y008784D03*
X010546Y008784D03*
X013167Y006443D03*
X013915Y006443D03*
X006813Y004235D03*
X006065Y004235D03*
X007722Y002505D03*
X008470Y002505D03*
X020630Y001658D03*
X021378Y001658D03*
D15*
X019155Y001658D03*
X018407Y001658D03*
X018382Y003142D03*
X019130Y003142D03*
X013827Y004870D03*
X013079Y004870D03*
X011995Y005709D03*
X011247Y005709D03*
X006821Y002515D03*
X006073Y002515D03*
X004994Y010568D03*
X004246Y010568D03*
X005597Y012960D03*
X006345Y012960D03*
X009925Y010873D03*
X010673Y010873D03*
X011538Y010877D03*
X012286Y010877D03*
X013719Y011419D03*
X014467Y011419D03*
X013264Y013326D03*
X012516Y013326D03*
X024614Y013629D03*
X025362Y013629D03*
D16*
X019114Y012580D03*
X019114Y011910D03*
X017456Y011337D03*
X017456Y010589D03*
X009471Y012436D03*
X008382Y012473D03*
X007527Y012476D03*
X007527Y013224D03*
X008382Y013221D03*
X009471Y013184D03*
X004669Y012213D03*
X004669Y011465D03*
X003874Y008440D03*
X003874Y007692D03*
X007923Y004189D03*
X007923Y003440D03*
X011239Y003116D03*
X011239Y003864D03*
X021839Y003373D03*
X021839Y002625D03*
X023413Y002625D03*
X023413Y003373D03*
X026103Y003402D03*
X026103Y002785D03*
X026103Y002115D03*
X026103Y004071D03*
D17*
X010218Y004633D03*
X009218Y004633D03*
D18*
X012708Y002664D03*
X012708Y002164D03*
X012708Y001664D03*
X012708Y001164D03*
X016330Y001164D03*
X016330Y001664D03*
X016330Y002164D03*
X016330Y002664D03*
X016921Y012088D03*
X016921Y012588D03*
X016921Y013088D03*
X016921Y013588D03*
X014874Y013588D03*
X014874Y013088D03*
X014874Y012588D03*
X014874Y012088D03*
D19*
X014202Y014818D02*
X014202Y015378D01*
X013202Y015378D02*
X013202Y014818D01*
X012202Y014818D02*
X012202Y015378D01*
X011202Y015378D02*
X011202Y014818D01*
X010202Y014818D02*
X010202Y015378D01*
X009202Y015378D02*
X009202Y014818D01*
X004884Y002117D02*
X004884Y001557D01*
X003884Y001557D02*
X003884Y002117D01*
X002884Y002117D02*
X002884Y001557D01*
X001884Y001557D02*
X001884Y002117D01*
D20*
X018498Y013581D02*
X019052Y013581D01*
X022498Y013581D02*
X023052Y013581D01*
D21*
X016952Y015081D03*
X015455Y015081D03*
D22*
X015744Y007809D03*
X018814Y007809D03*
D23*
X025748Y005409D03*
X025756Y011586D03*
D24*
X024335Y010755D03*
X023335Y010244D03*
X024335Y009759D03*
X023335Y009259D03*
X024335Y008759D03*
X023335Y008259D03*
X024335Y007759D03*
X023335Y007259D03*
X024335Y006759D03*
X023335Y006259D03*
D25*
X001617Y003016D03*
D26*
X002617Y003016D03*
X002617Y004016D03*
X001617Y004016D03*
X001617Y005016D03*
X002617Y005016D03*
X002617Y006016D03*
X001617Y006016D03*
X001617Y007016D03*
X002617Y007016D03*
X002617Y008016D03*
X001617Y008016D03*
X001617Y009016D03*
X002617Y009016D03*
X002617Y010016D03*
X001617Y010016D03*
X001617Y011016D03*
X002617Y011016D03*
X002617Y012016D03*
X001617Y012016D03*
X001617Y013016D03*
X002617Y013016D03*
X002617Y014016D03*
X001617Y014016D03*
D27*
X015743Y005777D03*
X017346Y004417D03*
X015743Y003809D03*
X019314Y004417D03*
D28*
X006049Y003344D03*
X004809Y003344D03*
D29*
X010747Y012145D03*
X011613Y012519D03*
X010747Y012893D03*
D30*
X014874Y013588D02*
X015087Y013801D01*
X015692Y013196D01*
X015692Y012036D01*
X016119Y011608D01*
X016578Y011608D01*
X016795Y011391D01*
X016795Y009102D01*
X015744Y008051D01*
X015818Y008946D02*
X015132Y008946D01*
X014864Y008858D01*
X014863Y006680D01*
X014964Y006440D01*
X014980Y006405D02*
X014991Y003090D01*
X017403Y003089D01*
X017642Y003130D01*
X017688Y003130D02*
X017685Y002822D01*
X017719Y003142D02*
X018382Y003142D01*
X019885Y002196D02*
X019885Y001658D01*
X019155Y001658D01*
X019155Y001632D02*
X019772Y001114D01*
X021015Y001114D01*
X021431Y001348D01*
X021378Y001658D02*
X022294Y001658D01*
X022874Y002053D01*
X022874Y004018D01*
X023082Y004411D01*
X023372Y004411D01*
X023413Y004453D02*
X023413Y003373D01*
X025748Y005409D02*
X025756Y011586D01*
X026298Y012128D01*
X026298Y014427D01*
X025644Y015081D01*
X016952Y015081D01*
X016955Y015244D01*
X015455Y015081D02*
X015455Y014169D01*
X015087Y013801D01*
X016147Y013330D02*
X016230Y013577D01*
X016910Y013577D01*
X016921Y013588D02*
X018768Y013588D01*
X018775Y013581D02*
X019114Y013242D01*
X019114Y012580D01*
X019622Y011917D02*
X019929Y012225D01*
X019929Y014119D01*
X018967Y015081D01*
X016147Y013330D02*
X016147Y012261D01*
X016222Y012088D01*
X016921Y012088D01*
X018334Y012081D02*
X018564Y011850D01*
X019054Y011850D01*
X019316Y011910D02*
X019818Y011408D01*
X019818Y010324D01*
X019590Y010095D01*
X019151Y010095D01*
X019123Y010068D02*
X019123Y009458D01*
X018788Y009122D01*
X018315Y009122D01*
X017900Y008708D01*
X017900Y006577D01*
X019314Y005163D01*
X019314Y004417D01*
X017900Y006577D02*
X016543Y006577D01*
X015743Y005777D01*
X015818Y008946D02*
X016002Y009407D01*
X016002Y010271D01*
X017456Y010589D02*
X019085Y010116D01*
X019323Y011917D02*
X019622Y011917D01*
X018334Y012081D02*
X018334Y012919D01*
X018165Y013088D01*
X016921Y013088D01*
X022758Y013564D02*
X022758Y011024D01*
X023335Y010447D01*
X023335Y010244D01*
X026921Y008580D02*
X026949Y008552D01*
X027790Y008552D01*
X028098Y008244D01*
X028098Y001535D01*
X027447Y000694D01*
X002254Y000675D01*
X001896Y000972D01*
X001884Y001837D01*
X001888Y001259D01*
X001185Y001221D01*
X000841Y001578D01*
X000841Y012754D01*
X001104Y013016D01*
X002617Y013016D01*
X017646Y001704D02*
X018185Y001744D01*
D31*
X000465Y000524D02*
X000465Y013798D01*
X000490Y016397D01*
X000465Y016397D01*
X000465Y016404D01*
X000528Y016435D01*
X000528Y016397D01*
X028251Y016397D01*
X028251Y008515D01*
X028044Y008722D01*
X027960Y008807D01*
X027850Y008852D01*
X027096Y008852D01*
X026984Y008898D01*
X026858Y008898D01*
X026741Y008850D01*
X026651Y008761D01*
X026603Y008644D01*
X024717Y008644D01*
X024732Y008680D02*
X024732Y008838D01*
X024671Y008984D01*
X024560Y009096D01*
X024468Y009134D01*
X024459Y009188D01*
X024449Y009195D01*
X024447Y009206D01*
X024377Y009247D01*
X024165Y009400D01*
X024256Y009362D01*
X024414Y009362D01*
X024560Y009423D01*
X024671Y009534D01*
X024732Y009680D01*
X024732Y009838D01*
X024671Y009984D01*
X024560Y010096D01*
X024414Y010156D01*
X024256Y010156D01*
X024110Y010096D01*
X024082Y010068D01*
X024082Y010419D01*
X024083Y010422D01*
X024116Y010399D01*
X024174Y010369D01*
X024237Y010348D01*
X024302Y010338D01*
X024326Y010338D01*
X024326Y010747D01*
X024343Y010747D01*
X024343Y010764D01*
X024326Y010764D01*
X024326Y011172D01*
X024302Y011172D01*
X024237Y011162D01*
X024174Y011142D01*
X024116Y011112D01*
X024063Y011074D01*
X024016Y011027D01*
X023978Y010974D01*
X023948Y010915D01*
X023928Y010853D01*
X023917Y010788D01*
X023917Y010783D01*
X023905Y010804D01*
X023905Y011152D01*
X024776Y012024D01*
X024905Y012152D01*
X024905Y013174D01*
X024928Y013174D01*
X024988Y013234D01*
X025048Y013174D01*
X025676Y013174D01*
X025758Y013256D01*
X025758Y014002D01*
X025676Y014084D01*
X025601Y014084D01*
X025601Y014125D01*
X025607Y014132D01*
X025601Y014215D01*
X025601Y014298D01*
X025594Y014305D01*
X025593Y014314D01*
X025531Y014368D01*
X025472Y014427D01*
X025462Y014427D01*
X025292Y014573D01*
X025234Y014631D01*
X025224Y014631D01*
X025216Y014638D01*
X025134Y014631D01*
X022269Y014637D01*
X022242Y014653D01*
X022181Y014638D01*
X022118Y014638D01*
X022096Y014616D01*
X022066Y014608D01*
X022033Y014554D01*
X021989Y014509D01*
X021989Y014478D01*
X021384Y013459D01*
X021338Y013410D01*
X021339Y013383D01*
X021325Y013360D01*
X021342Y013295D01*
X021358Y012785D01*
X021355Y009655D01*
X021355Y009655D01*
X021355Y009566D01*
X021355Y009473D01*
X021354Y008637D01*
X020473Y008037D01*
X020450Y008037D01*
X020400Y007987D01*
X020342Y007947D01*
X020338Y007924D01*
X020321Y007908D01*
X020321Y007837D01*
X020308Y007768D01*
X020321Y007749D01*
X020322Y005675D01*
X020322Y005275D01*
X020142Y005131D01*
X020128Y005131D01*
X020072Y005075D01*
X020010Y005026D01*
X020009Y005012D01*
X019999Y005003D01*
X019999Y004924D01*
X019990Y004845D01*
X019998Y004834D01*
X019994Y003156D01*
X019991Y003153D01*
X019994Y003066D01*
X019993Y002978D01*
X019994Y002977D01*
X019993Y002975D01*
X019999Y002889D01*
X020001Y002802D01*
X020005Y002799D01*
X020005Y002794D01*
X020070Y002737D01*
X020134Y002677D01*
X020139Y002677D01*
X020319Y002520D01*
X020352Y002488D01*
X020352Y002374D01*
X020410Y002317D01*
X020410Y002093D01*
X020316Y002093D01*
X020234Y002011D01*
X020234Y001304D01*
X020316Y001222D01*
X020944Y001222D01*
X020991Y001270D01*
X020994Y001264D01*
X021024Y001234D01*
X021060Y001213D01*
X021101Y001202D01*
X021330Y001202D01*
X021330Y001610D01*
X021426Y001610D01*
X021426Y001706D01*
X021330Y001706D01*
X021330Y002113D01*
X021101Y002113D01*
X021060Y002102D01*
X021024Y002081D01*
X020994Y002051D01*
X020991Y002046D01*
X020944Y002093D01*
X020850Y002093D01*
X020850Y002292D01*
X021180Y002292D01*
X021262Y002374D01*
X021262Y003002D01*
X021202Y003062D01*
X021262Y003123D01*
X021262Y003524D01*
X021276Y003524D01*
X021403Y003651D01*
X021403Y003060D01*
X021463Y002999D01*
X021403Y002939D01*
X021403Y002311D01*
X021485Y002229D01*
X022192Y002229D01*
X022274Y002311D01*
X022274Y002455D01*
X022475Y002656D01*
X022586Y002767D01*
X022586Y004773D01*
X022816Y005003D01*
X023274Y005003D01*
X023350Y005001D01*
X023352Y005003D01*
X023356Y005003D01*
X023409Y005056D01*
X023915Y005533D01*
X023915Y003975D01*
X023783Y003843D01*
X023783Y003771D01*
X023770Y003778D01*
X023730Y003789D01*
X023461Y003789D01*
X023461Y003421D01*
X023365Y003421D01*
X023365Y003325D01*
X022958Y003325D01*
X022958Y003096D01*
X022969Y003056D01*
X022990Y003019D01*
X023020Y002989D01*
X023025Y002986D01*
X022978Y002939D01*
X022978Y002311D01*
X023060Y002229D01*
X023767Y002229D01*
X023849Y002311D01*
X023849Y002405D01*
X024140Y002405D01*
X024140Y002311D01*
X024222Y002229D01*
X024865Y002229D01*
X024865Y002180D01*
X024914Y002062D01*
X025004Y001972D01*
X025121Y001924D01*
X025249Y001924D01*
X025366Y001972D01*
X025448Y002054D01*
X025667Y002054D01*
X025667Y001801D01*
X025749Y001719D01*
X026456Y001719D01*
X026538Y001801D01*
X026538Y002429D01*
X026517Y002450D01*
X026538Y002471D01*
X026538Y003069D01*
X026978Y003069D01*
X027032Y003015D01*
X027131Y002974D01*
X027239Y002974D01*
X027338Y003015D01*
X027414Y003091D01*
X027455Y003190D01*
X027455Y003297D01*
X027414Y003396D01*
X027338Y003472D01*
X027239Y003514D01*
X027131Y003514D01*
X027032Y003472D01*
X026978Y003419D01*
X026538Y003419D01*
X026538Y003716D01*
X026517Y003737D01*
X026538Y003757D01*
X026538Y004385D01*
X026456Y004467D01*
X025749Y004467D01*
X025667Y004385D01*
X025667Y004267D01*
X025620Y004268D01*
X025590Y004283D01*
X025544Y004269D01*
X025496Y004269D01*
X025472Y004246D01*
X025440Y004236D01*
X025418Y004193D01*
X025383Y004160D01*
X025383Y004126D01*
X025278Y003925D01*
X025169Y003879D01*
X025085Y003795D01*
X025043Y003694D01*
X024967Y003769D01*
X024555Y003769D01*
X024555Y006420D01*
X024560Y006423D01*
X024671Y006534D01*
X024732Y006680D01*
X024732Y006838D01*
X024671Y006984D01*
X024560Y007096D01*
X024414Y007156D01*
X024256Y007156D01*
X024110Y007096D01*
X024054Y007041D01*
X024054Y007288D01*
X024183Y007392D01*
X024256Y007362D01*
X024414Y007362D01*
X024560Y007423D01*
X024671Y007534D01*
X024732Y007680D01*
X024732Y007838D01*
X024671Y007984D01*
X024560Y008096D01*
X024414Y008156D01*
X024256Y008156D01*
X024110Y008096D01*
X023998Y007984D01*
X023996Y007979D01*
X023616Y007979D01*
X023671Y008034D01*
X023732Y008180D01*
X023732Y008338D01*
X023671Y008484D01*
X023560Y008596D01*
X023414Y008656D01*
X023256Y008656D01*
X023110Y008596D01*
X022998Y008484D01*
X022937Y008338D01*
X022937Y008180D01*
X022998Y008034D01*
X023053Y007979D01*
X021409Y007979D01*
X021136Y007706D01*
X020770Y007706D01*
X021642Y008300D01*
X021665Y008300D01*
X021715Y008350D01*
X021773Y008390D01*
X021777Y008412D01*
X021794Y008429D01*
X021794Y008499D01*
X021807Y008569D01*
X021794Y008588D01*
X021795Y009565D01*
X021798Y012702D01*
X021800Y012705D01*
X021798Y012792D01*
X021798Y012880D01*
X021795Y012883D01*
X021783Y013269D01*
X022334Y014197D01*
X025061Y014192D01*
X025161Y014106D01*
X025161Y014084D01*
X025048Y014084D01*
X024988Y014024D01*
X024928Y014084D01*
X024300Y014084D01*
X024218Y014002D01*
X024218Y013256D01*
X024300Y013174D01*
X024465Y013174D01*
X024465Y012335D01*
X023465Y011335D01*
X023465Y010771D01*
X023459Y010747D01*
X023058Y011148D01*
X023058Y013164D01*
X023135Y013164D01*
X023288Y013228D01*
X023406Y013345D01*
X023469Y013498D01*
X023469Y013664D01*
X023406Y013817D01*
X023288Y013934D01*
X023135Y013998D01*
X022416Y013998D01*
X022262Y013934D01*
X022145Y013817D01*
X022082Y013664D01*
X022082Y013498D01*
X022145Y013345D01*
X022262Y013228D01*
X022416Y013164D01*
X022458Y013164D01*
X022458Y010964D01*
X022504Y010854D01*
X022588Y010769D01*
X022966Y010391D01*
X022937Y010323D01*
X022937Y010165D01*
X022998Y010019D01*
X023110Y009907D01*
X023256Y009846D01*
X023414Y009846D01*
X023560Y009907D01*
X023642Y009989D01*
X023641Y009543D01*
X023606Y009577D01*
X023553Y009616D01*
X023495Y009646D01*
X023432Y009666D01*
X023367Y009676D01*
X023343Y009676D01*
X023343Y009268D01*
X023326Y009268D01*
X023326Y009676D01*
X023302Y009676D01*
X023237Y009666D01*
X023174Y009646D01*
X023116Y009616D01*
X023063Y009577D01*
X023016Y009531D01*
X022978Y009478D01*
X022948Y009419D01*
X022928Y009357D01*
X022917Y009292D01*
X022917Y009268D01*
X023326Y009268D01*
X023326Y009251D01*
X022917Y009251D01*
X022917Y009226D01*
X022928Y009162D01*
X022948Y009099D01*
X022978Y009041D01*
X023016Y008987D01*
X023063Y008941D01*
X023116Y008902D01*
X023174Y008873D01*
X023237Y008852D01*
X023302Y008842D01*
X023326Y008842D01*
X023326Y009251D01*
X023343Y009251D01*
X023343Y008842D01*
X023367Y008842D01*
X023432Y008852D01*
X023495Y008873D01*
X023553Y008902D01*
X023606Y008941D01*
X023653Y008987D01*
X023691Y009041D01*
X023721Y009099D01*
X023740Y009157D01*
X023769Y009128D01*
X023790Y009128D01*
X023996Y008979D01*
X023937Y008838D01*
X023937Y008680D01*
X023998Y008534D01*
X024110Y008423D01*
X024256Y008362D01*
X024414Y008362D01*
X024560Y008423D01*
X024671Y008534D01*
X024732Y008680D01*
X024732Y008803D02*
X026693Y008803D01*
X026603Y008644D02*
X026603Y008517D01*
X026651Y008400D01*
X026741Y008311D01*
X026858Y008262D01*
X026865Y008262D01*
X026890Y008252D01*
X027666Y008252D01*
X027798Y008120D01*
X027798Y006760D01*
X027778Y006808D01*
X027506Y007081D01*
X027149Y007228D01*
X026764Y007228D01*
X026408Y007081D01*
X026135Y006808D01*
X025988Y006452D01*
X025988Y006067D01*
X026024Y005980D01*
X025991Y005996D01*
X025896Y006027D01*
X025828Y006038D01*
X025828Y005489D01*
X025668Y005489D01*
X025668Y006038D01*
X025600Y006027D01*
X025505Y005996D01*
X025416Y005951D01*
X025335Y005892D01*
X025265Y005822D01*
X025206Y005741D01*
X025161Y005652D01*
X025130Y005557D01*
X025119Y005489D01*
X025668Y005489D01*
X025668Y005329D01*
X025119Y005329D01*
X025130Y005260D01*
X025161Y005166D01*
X025206Y005077D01*
X025265Y004996D01*
X025335Y004925D01*
X025416Y004867D01*
X025505Y004822D01*
X025600Y004791D01*
X025668Y004780D01*
X025668Y005329D01*
X025828Y005329D01*
X025828Y005489D01*
X026357Y005489D01*
X026408Y005438D01*
X026764Y005290D01*
X027149Y005290D01*
X027506Y005438D01*
X027778Y005710D01*
X027798Y005759D01*
X027798Y001637D01*
X027300Y000994D01*
X016902Y000986D01*
X016903Y000988D01*
X016903Y001340D01*
X016861Y001382D01*
X016875Y001381D01*
X016923Y001378D01*
X016927Y001379D01*
X016930Y001379D01*
X016976Y001396D01*
X017021Y001411D01*
X017024Y001413D01*
X017027Y001415D01*
X017063Y001447D01*
X017099Y001479D01*
X017101Y001482D01*
X017104Y001485D01*
X017124Y001528D01*
X017383Y002050D01*
X017482Y002149D01*
X018766Y002149D01*
X018799Y002144D01*
X018817Y002149D01*
X018837Y002149D01*
X018867Y002162D01*
X018899Y002170D01*
X018914Y002181D01*
X018932Y002189D01*
X018955Y002212D01*
X018982Y002232D01*
X018992Y002248D01*
X019005Y002262D01*
X019018Y002292D01*
X019253Y002687D01*
X019444Y002687D01*
X019526Y002769D01*
X019526Y003515D01*
X019444Y003597D01*
X019343Y003597D01*
X019257Y003682D01*
X019154Y003785D01*
X019234Y003785D01*
X019234Y004337D01*
X019394Y004337D01*
X019394Y003785D01*
X019808Y003785D01*
X019849Y003796D01*
X019885Y003817D01*
X019915Y003847D01*
X019936Y003883D01*
X019947Y003924D01*
X019947Y004337D01*
X019394Y004337D01*
X019394Y004497D01*
X019947Y004497D01*
X019947Y004911D01*
X019936Y004952D01*
X019915Y004988D01*
X019885Y005018D01*
X019849Y005039D01*
X019808Y005050D01*
X019394Y005050D01*
X019394Y004497D01*
X019234Y004497D01*
X019234Y004337D01*
X018682Y004337D01*
X018682Y003976D01*
X018666Y003976D01*
X018653Y004112D01*
X018665Y004162D01*
X018644Y004199D01*
X018639Y004241D01*
X018599Y004274D01*
X018539Y004375D01*
X018682Y004696D01*
X018682Y004497D01*
X019234Y004497D01*
X019234Y005050D01*
X018873Y005050D01*
X018914Y005091D01*
X018955Y005190D01*
X018955Y005297D01*
X018914Y005396D01*
X018838Y005472D01*
X018739Y005514D01*
X018631Y005514D01*
X018532Y005472D01*
X018456Y005396D01*
X018415Y005297D01*
X018415Y005190D01*
X018418Y005184D01*
X018176Y004643D01*
X017958Y004648D01*
X017958Y004948D01*
X017876Y005030D01*
X016815Y005030D01*
X016733Y004948D01*
X016733Y004637D01*
X016261Y004637D01*
X016045Y004421D01*
X015287Y004421D01*
X015284Y005145D01*
X015663Y005145D01*
X015663Y005697D01*
X015823Y005697D01*
X015823Y005145D01*
X016237Y005145D01*
X016277Y005155D01*
X016314Y005177D01*
X016344Y005206D01*
X016365Y005243D01*
X016376Y005284D01*
X016376Y005697D01*
X015823Y005697D01*
X015823Y005857D01*
X015663Y005857D01*
X015663Y006409D01*
X015280Y006409D01*
X015280Y006465D01*
X015234Y006575D01*
X015232Y006577D01*
X015163Y006740D01*
X015163Y006794D01*
X015174Y006783D01*
X016313Y006783D01*
X016395Y006865D01*
X016395Y008278D01*
X016965Y008848D01*
X017049Y008932D01*
X017095Y009043D01*
X017095Y010186D01*
X017099Y010184D01*
X017140Y010173D01*
X017408Y010173D01*
X017408Y010541D01*
X017504Y010541D01*
X017504Y010173D01*
X017772Y010173D01*
X017813Y010184D01*
X017850Y010205D01*
X017879Y010235D01*
X017900Y010271D01*
X017911Y010312D01*
X017911Y010541D01*
X017504Y010541D01*
X017504Y010637D01*
X017911Y010637D01*
X017911Y010866D01*
X017900Y010907D01*
X017879Y010943D01*
X017850Y010973D01*
X017844Y010976D01*
X017891Y011023D01*
X017891Y011077D01*
X018504Y011077D01*
X018673Y010908D01*
X018673Y010507D01*
X018720Y010460D01*
X018715Y010456D01*
X018685Y010427D01*
X018664Y010390D01*
X018653Y010349D01*
X018653Y010120D01*
X019080Y010120D01*
X019080Y010025D01*
X018653Y010025D01*
X018653Y009796D01*
X018664Y009755D01*
X018685Y009718D01*
X018715Y009689D01*
X018751Y009668D01*
X018792Y009657D01*
X019080Y009657D01*
X019080Y010025D01*
X019176Y010025D01*
X019176Y010120D01*
X019603Y010120D01*
X019603Y010349D01*
X019592Y010390D01*
X019571Y010427D01*
X019541Y010456D01*
X019536Y010460D01*
X019583Y010507D01*
X019583Y011134D01*
X019501Y011216D01*
X019100Y011216D01*
X018822Y011494D01*
X019066Y011494D01*
X019066Y011862D01*
X019162Y011862D01*
X019162Y011494D01*
X019430Y011494D01*
X019471Y011505D01*
X019508Y011526D01*
X019537Y011556D01*
X019559Y011593D01*
X019569Y011633D01*
X019569Y011862D01*
X019162Y011862D01*
X019162Y011958D01*
X019569Y011958D01*
X019569Y012187D01*
X019559Y012228D01*
X019541Y012258D01*
X019549Y012266D01*
X019549Y012894D01*
X019467Y012976D01*
X019414Y012976D01*
X019414Y013302D01*
X019399Y013338D01*
X019406Y013345D01*
X019469Y013498D01*
X019469Y013664D01*
X019406Y013817D01*
X019288Y013934D01*
X019135Y013998D01*
X018416Y013998D01*
X018262Y013934D01*
X018216Y013888D01*
X016862Y013888D01*
X016834Y013877D01*
X016278Y013877D01*
X016268Y013880D01*
X016219Y013877D01*
X016170Y013877D01*
X016160Y013872D01*
X016149Y013872D01*
X016105Y013850D01*
X016060Y013831D01*
X016052Y013823D01*
X016042Y013818D01*
X016010Y013781D01*
X015975Y013747D01*
X015971Y013736D01*
X015964Y013728D01*
X015948Y013682D01*
X015930Y013636D01*
X015930Y013625D01*
X015869Y013443D01*
X015511Y013801D01*
X015710Y014000D01*
X015755Y014110D01*
X015755Y014666D01*
X015789Y014666D01*
X015871Y014748D01*
X015871Y015415D01*
X015789Y015497D01*
X015122Y015497D01*
X015040Y015415D01*
X015040Y014748D01*
X015122Y014666D01*
X015155Y014666D01*
X015155Y014294D01*
X014917Y014055D01*
X014833Y013971D01*
X014708Y013846D01*
X014383Y013846D01*
X014301Y013764D01*
X014301Y013412D01*
X014375Y013338D01*
X014301Y013264D01*
X014301Y012912D01*
X014365Y012848D01*
X014330Y012848D01*
X014235Y012809D01*
X014033Y012607D01*
X013783Y012467D01*
X013772Y012465D01*
X013738Y012442D01*
X013703Y012422D01*
X013700Y012419D01*
X013700Y012586D01*
X013689Y012627D01*
X013668Y012663D01*
X013638Y012693D01*
X013602Y012714D01*
X013561Y012725D01*
X013332Y012725D01*
X013332Y012318D01*
X013236Y012318D01*
X013236Y012222D01*
X012932Y012222D01*
X012932Y012318D01*
X013236Y012318D01*
X013236Y012725D01*
X013007Y012725D01*
X012967Y012714D01*
X012930Y012693D01*
X012900Y012663D01*
X012897Y012658D01*
X012872Y012683D01*
X013061Y012872D01*
X013578Y012872D01*
X013660Y012954D01*
X013660Y013699D01*
X013578Y013781D01*
X012950Y013781D01*
X012890Y013721D01*
X012830Y013781D01*
X012202Y013781D01*
X012120Y013699D01*
X012120Y013468D01*
X011763Y013464D01*
X011761Y013466D01*
X011691Y013464D01*
X011620Y013463D01*
X011619Y013461D01*
X011616Y013461D01*
X011568Y013410D01*
X011519Y013359D01*
X011519Y013357D01*
X011163Y012976D01*
X011163Y013148D01*
X011081Y013230D01*
X010413Y013230D01*
X010378Y013194D01*
X010285Y013232D01*
X010158Y013232D01*
X010041Y013184D01*
X010040Y013182D01*
X010031Y013197D01*
X010031Y013223D01*
X009989Y013265D01*
X009958Y013315D01*
X009932Y013321D01*
X009914Y013340D01*
X009909Y013340D01*
X009930Y013361D01*
X010009Y013282D01*
X010637Y013282D01*
X010684Y013329D01*
X010687Y013323D01*
X010717Y013294D01*
X010754Y013273D01*
X010794Y013262D01*
X011023Y013262D01*
X011023Y013669D01*
X011119Y013669D01*
X011119Y013262D01*
X011348Y013262D01*
X011389Y013273D01*
X011425Y013294D01*
X011455Y013323D01*
X011476Y013360D01*
X011487Y013401D01*
X011487Y013669D01*
X011119Y013669D01*
X011119Y013765D01*
X011023Y013765D01*
X011023Y014172D01*
X010794Y014172D01*
X010754Y014161D01*
X010717Y014140D01*
X010687Y014111D01*
X010684Y014105D01*
X010637Y014152D01*
X010402Y014152D01*
X010402Y014447D01*
X010440Y014462D01*
X010558Y014580D01*
X010622Y014735D01*
X010622Y015462D01*
X010558Y015616D01*
X010440Y015734D01*
X010408Y015748D01*
X010408Y015782D01*
X010291Y015900D01*
X010154Y016037D01*
X008817Y016037D01*
X008735Y015954D01*
X007036Y015954D01*
X006918Y015837D01*
X006733Y015652D01*
X006733Y015441D01*
X006619Y015441D01*
X006537Y015359D01*
X006537Y014919D01*
X006392Y014919D01*
X006338Y014972D01*
X006239Y015014D01*
X006131Y015014D01*
X006032Y014972D01*
X005956Y014896D01*
X005915Y014797D01*
X005915Y014690D01*
X005956Y014591D01*
X006032Y014515D01*
X006131Y014474D01*
X006239Y014474D01*
X006250Y014478D01*
X006171Y014408D01*
X005749Y014408D01*
X005735Y014418D01*
X005668Y014408D01*
X005600Y014408D01*
X005588Y014396D01*
X005572Y014394D01*
X005531Y014339D01*
X005483Y014291D01*
X005483Y014274D01*
X005309Y014039D01*
X005261Y013991D01*
X005261Y013974D01*
X005251Y013960D01*
X005261Y013893D01*
X005261Y013825D01*
X005263Y013823D01*
X005261Y013392D01*
X005202Y013333D01*
X005202Y012587D01*
X005284Y012505D01*
X005911Y012505D01*
X005971Y012565D01*
X006007Y012529D01*
X006007Y012490D01*
X006007Y012408D01*
X006007Y012407D01*
X006007Y012407D01*
X006066Y012349D01*
X006078Y012337D01*
X006078Y012248D01*
X006123Y012139D01*
X006171Y012091D01*
X005655Y012090D01*
X005612Y012105D01*
X005579Y012090D01*
X005544Y012090D01*
X005511Y012057D01*
X005470Y012037D01*
X005458Y012003D01*
X005433Y011978D01*
X005433Y011932D01*
X005367Y011746D01*
X005263Y011696D01*
X005258Y011698D01*
X005193Y011662D01*
X005160Y011646D01*
X005124Y011640D01*
X005124Y011742D01*
X005113Y011783D01*
X005092Y011819D01*
X005062Y011849D01*
X005057Y011852D01*
X005104Y011899D01*
X005104Y012527D01*
X005022Y012609D01*
X004316Y012609D01*
X004234Y012527D01*
X004234Y012315D01*
X004219Y012300D01*
X004219Y012502D01*
X004137Y012584D01*
X003957Y012584D01*
X003965Y013556D01*
X003966Y013556D01*
X003966Y013634D01*
X003966Y013712D01*
X003966Y013713D01*
X003966Y013714D01*
X003911Y013769D01*
X003856Y013824D01*
X003855Y013824D01*
X003584Y014095D01*
X003473Y014206D01*
X002992Y014206D01*
X002782Y014416D01*
X002451Y014416D01*
X002217Y014182D01*
X002217Y013851D01*
X002451Y013616D01*
X002782Y013616D01*
X002992Y013826D01*
X003316Y013826D01*
X003585Y013557D01*
X003577Y012584D01*
X003391Y012584D01*
X003309Y012502D01*
X003309Y011875D01*
X003370Y011815D01*
X003309Y011754D01*
X003309Y011127D01*
X003391Y011045D01*
X003465Y011045D01*
X003465Y010888D01*
X003582Y010771D01*
X003850Y010503D01*
X003850Y010195D01*
X003932Y010113D01*
X004560Y010113D01*
X004620Y010173D01*
X004680Y010113D01*
X005166Y010113D01*
X005316Y009963D01*
X005374Y009963D01*
X005609Y009718D01*
X005588Y009718D01*
X005479Y009673D01*
X005395Y009589D01*
X005360Y009506D01*
X005360Y009786D01*
X005278Y009868D01*
X004690Y009868D01*
X004608Y009786D01*
X004608Y009310D01*
X004508Y009412D01*
X004441Y009483D01*
X004441Y009484D01*
X004387Y009540D01*
X004334Y009596D01*
X004333Y009596D01*
X004299Y009631D01*
X004249Y009687D01*
X004245Y009687D01*
X004242Y009690D01*
X004167Y009692D01*
X003994Y009701D01*
X003767Y009759D01*
X003239Y010571D01*
X003239Y010593D01*
X003197Y010635D01*
X003165Y010685D01*
X003144Y010690D01*
X003128Y010705D01*
X003069Y010705D01*
X003011Y010718D01*
X002993Y010706D01*
X002872Y010706D01*
X003017Y010851D01*
X003017Y011182D01*
X002782Y011416D01*
X002451Y011416D01*
X002217Y011182D01*
X002217Y010851D01*
X002358Y010709D01*
X002216Y010710D01*
X002215Y010710D01*
X002191Y010710D01*
X002017Y010885D01*
X002017Y011182D01*
X001782Y011416D01*
X001451Y011416D01*
X001217Y011182D01*
X001217Y010851D01*
X001451Y010616D01*
X001748Y010616D01*
X002034Y010330D01*
X002136Y010330D01*
X002364Y010329D01*
X002217Y010182D01*
X002217Y009851D01*
X002350Y009718D01*
X002209Y009718D01*
X002017Y009900D01*
X002017Y010182D01*
X001782Y010416D01*
X001451Y010416D01*
X001217Y010182D01*
X001217Y009851D01*
X001451Y009616D01*
X001763Y009616D01*
X002001Y009392D01*
X002055Y009338D01*
X002058Y009338D01*
X002060Y009336D01*
X002136Y009338D01*
X002372Y009338D01*
X002217Y009182D01*
X002217Y008851D01*
X002349Y008719D01*
X002146Y008720D01*
X002017Y008861D01*
X002017Y009182D01*
X001782Y009416D01*
X001451Y009416D01*
X001217Y009182D01*
X001217Y008851D01*
X001451Y008616D01*
X001725Y008616D01*
X001871Y008457D01*
X001871Y008453D01*
X001924Y008399D01*
X001975Y008344D01*
X001979Y008344D01*
X001982Y008341D01*
X002057Y008340D01*
X002132Y008337D01*
X002135Y008340D01*
X002373Y008338D01*
X002217Y008182D01*
X002217Y007851D01*
X002355Y007713D01*
X002189Y007713D01*
X002017Y007885D01*
X002017Y008182D01*
X001782Y008416D01*
X001451Y008416D01*
X001217Y008182D01*
X001217Y007851D01*
X001451Y007616D01*
X001748Y007616D01*
X001920Y007444D01*
X002032Y007333D01*
X002367Y007333D01*
X002217Y007182D01*
X002217Y006851D01*
X002355Y006712D01*
X002190Y006712D01*
X002017Y006885D01*
X002017Y007182D01*
X001782Y007416D01*
X001451Y007416D01*
X001217Y007182D01*
X001217Y006851D01*
X001451Y006616D01*
X001748Y006616D01*
X001914Y006450D01*
X001914Y006443D01*
X001970Y006388D01*
X002026Y006332D01*
X002106Y006332D01*
X002183Y006332D01*
X002367Y006332D01*
X002217Y006182D01*
X002217Y005851D01*
X002451Y005616D01*
X002782Y005616D01*
X002992Y005826D01*
X004346Y005826D01*
X004864Y006344D01*
X004975Y006456D01*
X004975Y006517D01*
X005278Y006517D01*
X005360Y006599D01*
X005360Y007498D01*
X005661Y007498D01*
X005729Y007430D01*
X005745Y006987D01*
X005315Y006354D01*
X005270Y006308D01*
X005270Y006287D01*
X005258Y006269D01*
X005270Y006207D01*
X005270Y003687D01*
X005252Y003718D01*
X005222Y003748D01*
X005186Y003769D01*
X005145Y003780D01*
X004867Y003780D01*
X004867Y003402D01*
X004751Y003402D01*
X004751Y003286D01*
X004867Y003286D01*
X004867Y002909D01*
X005145Y002909D01*
X005186Y002920D01*
X005222Y002941D01*
X005252Y002970D01*
X005270Y003002D01*
X005270Y002328D01*
X005260Y002347D01*
X005220Y002403D01*
X005171Y002452D01*
X005115Y002493D01*
X005053Y002524D01*
X004987Y002546D01*
X004919Y002557D01*
X004904Y002557D01*
X004904Y001857D01*
X004864Y001857D01*
X004864Y002557D01*
X004849Y002557D01*
X004781Y002546D01*
X004715Y002524D01*
X004653Y002493D01*
X004597Y002452D01*
X004548Y002403D01*
X004508Y002347D01*
X004476Y002286D01*
X004455Y002220D01*
X004444Y002151D01*
X004444Y001857D01*
X004864Y001857D01*
X004864Y001817D01*
X004444Y001817D01*
X004444Y001522D01*
X004455Y001454D01*
X004476Y001388D01*
X004508Y001326D01*
X004548Y001270D01*
X004597Y001221D01*
X004653Y001180D01*
X004715Y001149D01*
X004781Y001127D01*
X004849Y001117D01*
X004864Y001117D01*
X004864Y001817D01*
X004904Y001817D01*
X004904Y001857D01*
X005324Y001857D01*
X005324Y001977D01*
X005781Y001372D01*
X005781Y001357D01*
X005830Y001308D01*
X005872Y001253D01*
X005887Y001251D01*
X005898Y001240D01*
X005968Y001239D01*
X006036Y001230D01*
X006049Y001239D01*
X008661Y001236D01*
X008698Y001219D01*
X008926Y000991D01*
X010575Y000991D01*
X010692Y001108D01*
X010712Y001128D01*
X010795Y001128D01*
X010795Y001033D01*
X010846Y000982D01*
X002362Y000975D01*
X002194Y001114D01*
X002192Y001270D01*
X002240Y001319D01*
X002304Y001473D01*
X002304Y002067D01*
X002464Y001859D01*
X002464Y001473D01*
X002528Y001319D01*
X002646Y001201D01*
X002800Y001137D01*
X002967Y001137D01*
X003122Y001201D01*
X003240Y001319D01*
X003304Y001473D01*
X003304Y002200D01*
X003240Y002355D01*
X003122Y002473D01*
X002967Y002537D01*
X002800Y002537D01*
X002646Y002473D01*
X002528Y002355D01*
X002522Y002341D01*
X002344Y002572D01*
X002346Y002693D01*
X002443Y002596D01*
X002607Y002596D01*
X002607Y003006D01*
X002627Y003006D01*
X002627Y003026D01*
X003037Y003026D01*
X003037Y003190D01*
X002791Y003436D01*
X002627Y003436D01*
X002627Y003026D01*
X002607Y003026D01*
X002607Y003425D01*
X002770Y003588D01*
X002789Y003592D01*
X002818Y003636D01*
X002855Y003673D01*
X002855Y003689D01*
X003017Y003851D01*
X003017Y004182D01*
X002782Y004416D01*
X002451Y004416D01*
X002217Y004182D01*
X002217Y003851D01*
X002384Y003683D01*
X002066Y003365D01*
X002016Y003317D01*
X002016Y003315D01*
X002015Y003314D01*
X002015Y003245D01*
X002014Y003154D01*
X002006Y003178D01*
X001976Y003237D01*
X001937Y003290D01*
X001890Y003337D01*
X001837Y003376D01*
X001778Y003406D01*
X001715Y003426D01*
X001650Y003436D01*
X001627Y003436D01*
X001627Y003026D01*
X001607Y003026D01*
X001607Y003006D01*
X001627Y003006D01*
X001627Y002596D01*
X001650Y002596D01*
X001715Y002607D01*
X001778Y002627D01*
X001837Y002657D01*
X001890Y002696D01*
X001937Y002743D01*
X001976Y002796D01*
X002006Y002855D01*
X002009Y002864D01*
X002003Y002528D01*
X002003Y002522D01*
X001967Y002537D01*
X001800Y002537D01*
X001646Y002473D01*
X001528Y002355D01*
X001464Y002200D01*
X001464Y001536D01*
X001306Y001528D01*
X001141Y001699D01*
X001141Y012630D01*
X001228Y012716D01*
X001351Y012716D01*
X001451Y012616D01*
X001782Y012616D01*
X001882Y012716D01*
X002351Y012716D01*
X002451Y012616D01*
X002782Y012616D01*
X003017Y012851D01*
X003017Y013182D01*
X002782Y013416D01*
X002451Y013416D01*
X002351Y013316D01*
X001882Y013316D01*
X001782Y013416D01*
X001451Y013416D01*
X001351Y013316D01*
X001044Y013316D01*
X000934Y013271D01*
X000671Y013008D01*
X000587Y012924D01*
X000541Y012814D01*
X000541Y001580D01*
X000540Y001523D01*
X000541Y001521D01*
X000541Y001518D01*
X000563Y001465D01*
X000584Y001412D01*
X000586Y001410D01*
X000587Y001408D01*
X000627Y001367D01*
X000936Y001047D01*
X000941Y001037D01*
X000977Y001005D01*
X001011Y000970D01*
X001021Y000965D01*
X001029Y000958D01*
X001075Y000941D01*
X001120Y000922D01*
X001131Y000922D01*
X001142Y000918D01*
X001191Y000921D01*
X001239Y000920D01*
X001250Y000924D01*
X001596Y000943D01*
X001597Y000908D01*
X001601Y000897D01*
X001603Y000884D01*
X001625Y000842D01*
X001644Y000798D01*
X001653Y000790D01*
X001658Y000779D01*
X001695Y000748D01*
X001729Y000715D01*
X001741Y000711D01*
X001967Y000524D01*
X000465Y000524D01*
X000465Y000561D02*
X001922Y000561D01*
X001725Y000719D02*
X000465Y000719D01*
X000465Y000878D02*
X001606Y000878D01*
X002193Y001195D02*
X002661Y001195D01*
X002514Y001353D02*
X002254Y001353D01*
X002304Y001512D02*
X002464Y001512D01*
X002464Y001670D02*
X002304Y001670D01*
X002304Y001829D02*
X002464Y001829D01*
X002365Y001987D02*
X002304Y001987D01*
X002428Y002463D02*
X002636Y002463D01*
X002627Y002596D02*
X002791Y002596D01*
X003037Y002842D01*
X003037Y003006D01*
X002627Y003006D01*
X002627Y002596D01*
X002627Y002621D02*
X002607Y002621D01*
X002607Y002780D02*
X002627Y002780D01*
X002627Y002938D02*
X002607Y002938D01*
X002606Y002973D02*
X002617Y003016D01*
X002606Y002973D02*
X004606Y002973D01*
X004809Y003344D01*
X004751Y003286D02*
X004751Y002909D01*
X004473Y002909D01*
X004432Y002920D01*
X004396Y002941D01*
X004366Y002970D01*
X004345Y003007D01*
X004334Y003048D01*
X004334Y003286D01*
X004751Y003286D01*
X004751Y003255D02*
X004867Y003255D01*
X004867Y003097D02*
X004751Y003097D01*
X004751Y002938D02*
X004867Y002938D01*
X005218Y002938D02*
X005270Y002938D01*
X005270Y002780D02*
X002974Y002780D01*
X003037Y002938D02*
X004400Y002938D01*
X004334Y003097D02*
X003037Y003097D01*
X002972Y003255D02*
X004334Y003255D01*
X004334Y003402D02*
X004751Y003402D01*
X004751Y003780D01*
X004473Y003780D01*
X004432Y003769D01*
X004396Y003748D01*
X004366Y003718D01*
X004345Y003682D01*
X004334Y003641D01*
X004334Y003402D01*
X004334Y003414D02*
X002814Y003414D01*
X002754Y003572D02*
X004334Y003572D01*
X004378Y003731D02*
X002896Y003731D01*
X003017Y003889D02*
X005270Y003889D01*
X005270Y003731D02*
X005240Y003731D01*
X005270Y004048D02*
X003017Y004048D01*
X002993Y004206D02*
X005270Y004206D01*
X005270Y004365D02*
X002834Y004365D01*
X002782Y004616D02*
X002451Y004616D01*
X002217Y004851D01*
X002217Y005182D01*
X002451Y005416D01*
X002782Y005416D01*
X003017Y005182D01*
X003017Y004851D01*
X002782Y004616D01*
X002847Y004682D02*
X005270Y004682D01*
X005270Y004840D02*
X003006Y004840D01*
X003017Y004999D02*
X005270Y004999D01*
X005270Y005157D02*
X003017Y005157D01*
X002883Y005316D02*
X005270Y005316D01*
X005270Y005474D02*
X001141Y005474D01*
X001141Y005316D02*
X001350Y005316D01*
X001451Y005416D02*
X001217Y005182D01*
X001217Y004851D01*
X001451Y004616D01*
X001782Y004616D01*
X002017Y004851D01*
X002017Y005182D01*
X001782Y005416D01*
X001451Y005416D01*
X001451Y005616D02*
X001782Y005616D01*
X002017Y005851D01*
X002017Y006182D01*
X001782Y006416D01*
X001451Y006416D01*
X001217Y006182D01*
X001217Y005851D01*
X001451Y005616D01*
X001435Y005633D02*
X001141Y005633D01*
X001141Y005791D02*
X001276Y005791D01*
X001217Y005950D02*
X001141Y005950D01*
X001141Y006108D02*
X001217Y006108D01*
X001141Y006267D02*
X001301Y006267D01*
X001141Y006425D02*
X001933Y006425D01*
X001914Y006443D02*
X001914Y006443D01*
X001914Y006443D01*
X002026Y006332D02*
X002026Y006332D01*
X002026Y006332D01*
X001932Y006267D02*
X002301Y006267D01*
X002183Y006332D02*
X002183Y006332D01*
X002217Y006108D02*
X002017Y006108D01*
X002017Y005950D02*
X002217Y005950D01*
X002276Y005791D02*
X001957Y005791D01*
X001798Y005633D02*
X002435Y005633D01*
X002350Y005316D02*
X001883Y005316D01*
X002017Y005157D02*
X002217Y005157D01*
X002217Y004999D02*
X002017Y004999D01*
X002006Y004840D02*
X002227Y004840D01*
X002386Y004682D02*
X001847Y004682D01*
X001782Y004416D02*
X001451Y004416D01*
X001217Y004182D01*
X001217Y003851D01*
X001451Y003616D01*
X001782Y003616D01*
X002017Y003851D01*
X002017Y004182D01*
X001782Y004416D01*
X001834Y004365D02*
X002399Y004365D01*
X002241Y004206D02*
X001993Y004206D01*
X002017Y004048D02*
X002217Y004048D01*
X002217Y003889D02*
X002017Y003889D01*
X001896Y003731D02*
X002337Y003731D01*
X002273Y003572D02*
X001141Y003572D01*
X001141Y003414D02*
X001480Y003414D01*
X001455Y003406D02*
X001397Y003376D01*
X001343Y003337D01*
X001296Y003290D01*
X001257Y003237D01*
X001227Y003178D01*
X001207Y003115D01*
X001197Y003049D01*
X001197Y003026D01*
X001607Y003026D01*
X001607Y003436D01*
X001584Y003436D01*
X001518Y003426D01*
X001455Y003406D01*
X001607Y003414D02*
X001627Y003414D01*
X001754Y003414D02*
X002115Y003414D01*
X002015Y003255D02*
X001962Y003255D01*
X001627Y003255D02*
X001607Y003255D01*
X001607Y003097D02*
X001627Y003097D01*
X001607Y003006D02*
X001197Y003006D01*
X001197Y002983D01*
X001207Y002918D01*
X001227Y002855D01*
X001257Y002796D01*
X001296Y002743D01*
X001343Y002696D01*
X001397Y002657D01*
X001455Y002627D01*
X001518Y002607D01*
X001584Y002596D01*
X001607Y002596D01*
X001607Y003006D01*
X001607Y002938D02*
X001627Y002938D01*
X001627Y002780D02*
X001607Y002780D01*
X001607Y002621D02*
X001627Y002621D01*
X001759Y002621D02*
X002005Y002621D01*
X002007Y002780D02*
X001964Y002780D01*
X002345Y002621D02*
X002418Y002621D01*
X002815Y002621D02*
X005270Y002621D01*
X005270Y002463D02*
X005156Y002463D01*
X004904Y002463D02*
X004864Y002463D01*
X004864Y002304D02*
X004904Y002304D01*
X004904Y002146D02*
X004864Y002146D01*
X004864Y001987D02*
X004904Y001987D01*
X004904Y001829D02*
X005436Y001829D01*
X005324Y001817D02*
X004904Y001817D01*
X004904Y001117D01*
X004919Y001117D01*
X004987Y001127D01*
X005053Y001149D01*
X005115Y001180D01*
X005171Y001221D01*
X005220Y001270D01*
X005260Y001326D01*
X005292Y001388D01*
X005313Y001454D01*
X005324Y001522D01*
X005324Y001817D01*
X005324Y001670D02*
X005556Y001670D01*
X005676Y001512D02*
X005322Y001512D01*
X005274Y001353D02*
X005785Y001353D01*
X005134Y001195D02*
X008722Y001195D01*
X008881Y001036D02*
X002289Y001036D01*
X003107Y001195D02*
X003661Y001195D01*
X003646Y001201D02*
X003800Y001137D01*
X003967Y001137D01*
X004122Y001201D01*
X004240Y001319D01*
X004304Y001473D01*
X004304Y002200D01*
X004240Y002355D01*
X004122Y002473D01*
X003967Y002537D01*
X003800Y002537D01*
X003646Y002473D01*
X003528Y002355D01*
X003464Y002200D01*
X003464Y001473D01*
X003528Y001319D01*
X003646Y001201D01*
X003514Y001353D02*
X003254Y001353D01*
X003304Y001512D02*
X003464Y001512D01*
X003464Y001670D02*
X003304Y001670D01*
X003304Y001829D02*
X003464Y001829D01*
X003464Y001987D02*
X003304Y001987D01*
X003304Y002146D02*
X003464Y002146D01*
X003507Y002304D02*
X003261Y002304D01*
X003132Y002463D02*
X003636Y002463D01*
X004132Y002463D02*
X004611Y002463D01*
X004486Y002304D02*
X004261Y002304D01*
X004304Y002146D02*
X004444Y002146D01*
X004444Y001987D02*
X004304Y001987D01*
X004304Y001829D02*
X004864Y001829D01*
X004864Y001670D02*
X004904Y001670D01*
X004904Y001512D02*
X004864Y001512D01*
X004864Y001353D02*
X004904Y001353D01*
X004904Y001195D02*
X004864Y001195D01*
X004634Y001195D02*
X004107Y001195D01*
X004254Y001353D02*
X004494Y001353D01*
X004446Y001512D02*
X004304Y001512D01*
X004304Y001670D02*
X004444Y001670D01*
X006445Y002912D02*
X006445Y002952D01*
X006504Y003011D01*
X006504Y003678D01*
X006445Y003737D01*
X006445Y003825D01*
X006459Y003811D01*
X006495Y003790D01*
X006536Y003779D01*
X006765Y003779D01*
X006765Y004187D01*
X006461Y004187D01*
X006461Y004283D01*
X006765Y004283D01*
X006765Y004599D01*
X006767Y004597D01*
X006861Y004558D01*
X006861Y004283D01*
X006765Y004283D01*
X006765Y004187D01*
X006861Y004187D01*
X006861Y004283D01*
X007229Y004283D01*
X007229Y004551D01*
X007218Y004592D01*
X007197Y004628D01*
X007167Y004658D01*
X007166Y004659D01*
X007189Y004681D01*
X007234Y004791D01*
X007234Y004910D01*
X007189Y005019D01*
X007123Y005085D01*
X007123Y005572D01*
X007190Y005572D01*
X007206Y005563D01*
X007247Y005552D01*
X007320Y005552D01*
X007320Y004843D01*
X007315Y004837D01*
X007320Y004761D01*
X007320Y004685D01*
X007326Y004680D01*
X007326Y004672D01*
X007383Y004622D01*
X007437Y004568D01*
X007445Y004568D01*
X007491Y004528D01*
X007478Y004506D01*
X007467Y004465D01*
X007467Y004236D01*
X007875Y004236D01*
X007875Y004141D01*
X007467Y004141D01*
X007467Y003912D01*
X007478Y003871D01*
X007499Y003834D01*
X007529Y003805D01*
X007534Y003801D01*
X007487Y003754D01*
X007487Y003127D01*
X007569Y003045D01*
X008276Y003045D01*
X008351Y003120D01*
X008379Y003091D01*
X008347Y003058D01*
X008297Y003029D01*
X008290Y003002D01*
X008270Y002982D01*
X008270Y002940D01*
X008156Y002940D01*
X008109Y002893D01*
X008106Y002899D01*
X008076Y002928D01*
X008040Y002949D01*
X007999Y002960D01*
X007770Y002960D01*
X007770Y002553D01*
X007674Y002553D01*
X007674Y002457D01*
X007306Y002457D01*
X007306Y002189D01*
X007317Y002148D01*
X007338Y002111D01*
X007368Y002082D01*
X007405Y002061D01*
X007445Y002050D01*
X007674Y002050D01*
X007674Y002457D01*
X007770Y002457D01*
X007770Y002050D01*
X007999Y002050D01*
X008040Y002061D01*
X008076Y002082D01*
X008106Y002111D01*
X008109Y002117D01*
X008156Y002070D01*
X008669Y002070D01*
X008600Y002007D01*
X007076Y002007D01*
X007044Y002039D01*
X007044Y002060D01*
X007135Y002060D01*
X007217Y002142D01*
X007217Y002888D01*
X007135Y002970D01*
X006507Y002970D01*
X006447Y002910D01*
X006445Y002912D01*
X006445Y002938D02*
X006475Y002938D01*
X006504Y003097D02*
X007517Y003097D01*
X007445Y002960D02*
X007405Y002949D01*
X007368Y002928D01*
X007338Y002899D01*
X007317Y002862D01*
X007306Y002821D01*
X007306Y002553D01*
X007674Y002553D01*
X007674Y002960D01*
X007445Y002960D01*
X007385Y002938D02*
X007167Y002938D01*
X007217Y002780D02*
X007306Y002780D01*
X007306Y002621D02*
X007217Y002621D01*
X007217Y002463D02*
X007674Y002463D01*
X007674Y002621D02*
X007770Y002621D01*
X007770Y002780D02*
X007674Y002780D01*
X007674Y002938D02*
X007770Y002938D01*
X008060Y002938D02*
X008154Y002938D01*
X008328Y003097D02*
X008374Y003097D01*
X008840Y002884D02*
X008866Y002858D01*
X008866Y002250D01*
X009033Y002403D01*
X009094Y002464D01*
X009100Y002464D01*
X009104Y002467D01*
X009190Y002464D01*
X010851Y002464D01*
X010877Y002490D01*
X011546Y002490D01*
X011547Y002502D01*
X011547Y002700D01*
X011287Y002700D01*
X011287Y003068D01*
X011191Y003068D01*
X010784Y003068D01*
X010784Y002839D01*
X010795Y002798D01*
X010816Y002762D01*
X010846Y002732D01*
X010882Y002711D01*
X010923Y002700D01*
X011191Y002700D01*
X011191Y003068D01*
X011191Y003164D01*
X010784Y003164D01*
X010784Y003393D01*
X010795Y003434D01*
X010816Y003470D01*
X010846Y003500D01*
X010851Y003503D01*
X010804Y003550D01*
X010804Y003918D01*
X010541Y004181D01*
X010541Y004181D01*
X010424Y004298D01*
X010424Y004307D01*
X010293Y004253D01*
X010142Y004253D01*
X010003Y004311D01*
X009896Y004418D01*
X009838Y004558D01*
X009838Y004709D01*
X009886Y004825D01*
X009550Y004825D01*
X009598Y004709D01*
X009598Y004558D01*
X009540Y004418D01*
X009433Y004311D01*
X009293Y004253D01*
X009142Y004253D01*
X009112Y004266D01*
X009105Y004262D01*
X009089Y004170D01*
X009089Y003200D01*
X009104Y003175D01*
X009089Y003120D01*
X009089Y003062D01*
X009069Y003042D01*
X009062Y003015D01*
X009013Y002986D01*
X008972Y002945D01*
X008944Y002945D01*
X008840Y002884D01*
X008931Y002938D02*
X010784Y002938D01*
X010806Y002780D02*
X008866Y002780D01*
X008866Y002621D02*
X011547Y002621D01*
X011287Y002780D02*
X011191Y002780D01*
X011191Y002938D02*
X011287Y002938D01*
X011191Y003097D02*
X009089Y003097D01*
X009089Y003255D02*
X010784Y003255D01*
X010789Y003414D02*
X009089Y003414D01*
X009089Y003572D02*
X010804Y003572D01*
X010804Y003731D02*
X009089Y003731D01*
X009089Y003889D02*
X010804Y003889D01*
X010674Y004048D02*
X009089Y004048D01*
X009096Y004206D02*
X010516Y004206D01*
X009949Y004365D02*
X009486Y004365D01*
X009583Y004523D02*
X009852Y004523D01*
X009838Y004682D02*
X009598Y004682D01*
X007875Y004206D02*
X006861Y004206D01*
X006861Y004187D02*
X007229Y004187D01*
X007229Y003918D01*
X007218Y003878D01*
X007197Y003841D01*
X007167Y003811D01*
X007131Y003790D01*
X007090Y003779D01*
X006861Y003779D01*
X006861Y004187D01*
X006765Y004206D02*
X006461Y004206D01*
X006765Y004048D02*
X006861Y004048D01*
X006861Y003889D02*
X006765Y003889D01*
X006451Y003731D02*
X007487Y003731D01*
X007473Y003889D02*
X007221Y003889D01*
X007229Y004048D02*
X007467Y004048D01*
X007467Y004365D02*
X007229Y004365D01*
X007229Y004523D02*
X007488Y004523D01*
X007324Y004682D02*
X007189Y004682D01*
X007234Y004840D02*
X007317Y004840D01*
X007320Y004999D02*
X007198Y004999D01*
X007123Y005157D02*
X007320Y005157D01*
X007320Y005316D02*
X007123Y005316D01*
X007123Y005474D02*
X007320Y005474D01*
X006743Y005474D02*
X006346Y005474D01*
X006346Y005552D02*
X006423Y005552D01*
X006463Y005563D01*
X006479Y005572D01*
X006743Y005572D01*
X006743Y005079D01*
X006683Y005019D01*
X006637Y004910D01*
X006637Y004791D01*
X006679Y004690D01*
X006536Y004690D01*
X006495Y004679D01*
X006459Y004658D01*
X006429Y004628D01*
X006426Y004623D01*
X006379Y004670D01*
X006346Y004670D01*
X006346Y005552D01*
X006346Y005316D02*
X006743Y005316D01*
X006743Y005157D02*
X006346Y005157D01*
X006346Y004999D02*
X006674Y004999D01*
X006637Y004840D02*
X006346Y004840D01*
X006346Y004682D02*
X006504Y004682D01*
X006765Y004523D02*
X006861Y004523D01*
X006861Y004365D02*
X006765Y004365D01*
X006504Y003572D02*
X007487Y003572D01*
X007487Y003414D02*
X006504Y003414D01*
X006504Y003255D02*
X007487Y003255D01*
X008866Y002463D02*
X009093Y002463D01*
X008925Y002304D02*
X008866Y002304D01*
X009185Y002244D02*
X008685Y001787D01*
X006843Y001787D01*
X007217Y002146D02*
X007319Y002146D01*
X007306Y002304D02*
X007217Y002304D01*
X007674Y002304D02*
X007770Y002304D01*
X007770Y002146D02*
X007674Y002146D01*
X009185Y002244D02*
X011185Y002244D01*
X012285Y002922D02*
X012179Y003097D01*
X012175Y004349D01*
X012187Y004410D01*
X012175Y004429D01*
X012175Y004452D01*
X012130Y004496D01*
X012063Y004597D01*
X012106Y004554D01*
X013365Y003295D01*
X013365Y003180D01*
X013414Y003062D01*
X013504Y002972D01*
X013621Y002924D01*
X013749Y002924D01*
X013866Y002972D01*
X013956Y003062D01*
X014005Y003180D01*
X014005Y003307D01*
X013956Y003425D01*
X013866Y003515D01*
X013749Y003564D01*
X013634Y003564D01*
X012782Y004415D01*
X012889Y004415D01*
X012889Y004357D01*
X013169Y004077D01*
X013280Y003966D01*
X013828Y003966D01*
X013828Y003892D01*
X013874Y003782D01*
X013958Y003698D01*
X014067Y003653D01*
X014186Y003653D01*
X014296Y003698D01*
X014380Y003782D01*
X014425Y003892D01*
X014425Y004010D01*
X014380Y004120D01*
X014296Y004204D01*
X014186Y004249D01*
X014097Y004249D01*
X014000Y004346D01*
X013437Y004346D01*
X013368Y004415D01*
X013393Y004415D01*
X013453Y004475D01*
X013514Y004415D01*
X014141Y004415D01*
X014223Y004497D01*
X014223Y005243D01*
X014141Y005325D01*
X014132Y005325D01*
X014166Y005408D01*
X014166Y005527D01*
X014143Y005582D01*
X014242Y005581D01*
X014424Y005307D01*
X014434Y002974D01*
X014434Y002842D01*
X014700Y002576D01*
X014817Y002459D01*
X015786Y002459D01*
X015822Y002423D01*
X015799Y002410D01*
X015769Y002380D01*
X015748Y002344D01*
X015737Y002303D01*
X015737Y002164D01*
X016330Y002164D01*
X016330Y002164D01*
X015737Y002164D01*
X015737Y002025D01*
X015748Y001984D01*
X015769Y001947D01*
X015799Y001918D01*
X015822Y001904D01*
X015781Y001864D01*
X013257Y001864D01*
X013207Y001914D01*
X013281Y001988D01*
X013281Y002340D01*
X013207Y002414D01*
X013281Y002488D01*
X013281Y002840D01*
X013199Y002922D01*
X012285Y002922D01*
X012275Y002938D02*
X013586Y002938D01*
X013784Y002938D02*
X014434Y002938D01*
X014433Y003097D02*
X013970Y003097D01*
X014005Y003255D02*
X014433Y003255D01*
X014432Y003414D02*
X013961Y003414D01*
X013625Y003572D02*
X014431Y003572D01*
X014431Y003731D02*
X014328Y003731D01*
X014424Y003889D02*
X014430Y003889D01*
X014429Y004048D02*
X014410Y004048D01*
X014429Y004206D02*
X014291Y004206D01*
X014428Y004365D02*
X013419Y004365D01*
X013199Y004048D02*
X013150Y004048D01*
X013040Y004206D02*
X012991Y004206D01*
X012889Y004365D02*
X012833Y004365D01*
X012454Y004206D02*
X012175Y004206D01*
X012176Y004048D02*
X012612Y004048D01*
X012771Y003889D02*
X012176Y003889D01*
X012177Y003731D02*
X012929Y003731D01*
X013088Y003572D02*
X012177Y003572D01*
X012178Y003414D02*
X013246Y003414D01*
X013365Y003255D02*
X012178Y003255D01*
X012179Y003097D02*
X013400Y003097D01*
X013281Y002780D02*
X014496Y002780D01*
X014655Y002621D02*
X013281Y002621D01*
X013256Y002463D02*
X014813Y002463D01*
X014579Y002387D02*
X014809Y002157D01*
X015893Y002161D01*
X015737Y002146D02*
X013281Y002146D01*
X013281Y002304D02*
X015738Y002304D01*
X015747Y001987D02*
X013281Y001987D01*
X013876Y002387D02*
X014579Y002387D01*
X013925Y003731D02*
X013467Y003731D01*
X013308Y003889D02*
X013829Y003889D01*
X014223Y004523D02*
X014427Y004523D01*
X014427Y004682D02*
X014223Y004682D01*
X014223Y004840D02*
X014426Y004840D01*
X014425Y004999D02*
X014223Y004999D01*
X014223Y005157D02*
X014425Y005157D01*
X014418Y005316D02*
X014151Y005316D01*
X014166Y005474D02*
X014313Y005474D01*
X015285Y004999D02*
X016784Y004999D01*
X016733Y004840D02*
X015285Y004840D01*
X015286Y004682D02*
X016733Y004682D01*
X016352Y004417D02*
X015743Y003809D01*
X016147Y004523D02*
X015286Y004523D01*
X016352Y004417D02*
X017346Y004417D01*
X017812Y004417D01*
X018260Y004414D01*
X018430Y004128D01*
X018467Y003756D01*
X018872Y003756D01*
X019166Y003462D01*
X019166Y003178D01*
X019130Y003142D01*
X019118Y003154D01*
X019526Y003097D02*
X019993Y003097D01*
X019994Y003255D02*
X019526Y003255D01*
X019526Y003414D02*
X019994Y003414D01*
X019995Y003572D02*
X019469Y003572D01*
X019209Y003731D02*
X019995Y003731D01*
X019996Y003889D02*
X019937Y003889D01*
X019947Y004048D02*
X019996Y004048D01*
X019997Y004206D02*
X019947Y004206D01*
X019997Y004365D02*
X019394Y004365D01*
X019394Y004523D02*
X019234Y004523D01*
X019234Y004365D02*
X018545Y004365D01*
X018605Y004523D02*
X018682Y004523D01*
X018675Y004682D02*
X018682Y004682D01*
X019234Y004682D02*
X019394Y004682D01*
X019394Y004840D02*
X019234Y004840D01*
X019234Y004999D02*
X019394Y004999D01*
X018941Y005157D02*
X020174Y005157D01*
X020322Y005316D02*
X018947Y005316D01*
X018834Y005474D02*
X020322Y005474D01*
X020322Y005633D02*
X016376Y005633D01*
X016376Y005474D02*
X018536Y005474D01*
X018423Y005316D02*
X016376Y005316D01*
X016280Y005157D02*
X018406Y005157D01*
X018335Y004999D02*
X017908Y004999D01*
X017958Y004840D02*
X018264Y004840D01*
X018194Y004682D02*
X017958Y004682D01*
X017896Y004429D02*
X018317Y004419D01*
X018685Y005244D01*
X019456Y006091D02*
X019532Y006015D01*
X019631Y005974D01*
X019739Y005974D01*
X019838Y006015D01*
X019914Y006091D01*
X019955Y006190D01*
X019955Y006297D01*
X019914Y006396D01*
X019838Y006472D01*
X019739Y006514D01*
X019726Y006514D01*
X019420Y006819D01*
X019466Y006865D01*
X019466Y008753D01*
X019384Y008835D01*
X018245Y008835D01*
X018163Y008753D01*
X018163Y006865D01*
X018245Y006783D01*
X018965Y006783D01*
X018965Y006652D01*
X019094Y006524D01*
X019415Y006202D01*
X019415Y006190D01*
X019456Y006091D01*
X019449Y006108D02*
X016376Y006108D01*
X016376Y005950D02*
X020322Y005950D01*
X020322Y006108D02*
X019921Y006108D01*
X019955Y006267D02*
X020322Y006267D01*
X020322Y006425D02*
X019885Y006425D01*
X019656Y006584D02*
X020322Y006584D01*
X020322Y006742D02*
X019498Y006742D01*
X019466Y006901D02*
X020322Y006901D01*
X020321Y007059D02*
X019466Y007059D01*
X019466Y007218D02*
X020321Y007218D01*
X020321Y007376D02*
X019466Y007376D01*
X019466Y007535D02*
X020321Y007535D01*
X020321Y007693D02*
X019466Y007693D01*
X019466Y007852D02*
X020321Y007852D01*
X020423Y008010D02*
X019466Y008010D01*
X019466Y008169D02*
X020667Y008169D01*
X020900Y008327D02*
X019466Y008327D01*
X019466Y008486D02*
X021132Y008486D01*
X021354Y008644D02*
X019466Y008644D01*
X019417Y008803D02*
X021354Y008803D01*
X021354Y008961D02*
X017061Y008961D01*
X017095Y009120D02*
X021354Y009120D01*
X021354Y009278D02*
X017095Y009278D01*
X017095Y009437D02*
X021355Y009437D01*
X021355Y009473D02*
X021355Y009473D01*
X021355Y009595D02*
X017095Y009595D01*
X017095Y009754D02*
X018665Y009754D01*
X018653Y009912D02*
X017095Y009912D01*
X017095Y010071D02*
X019080Y010071D01*
X019123Y010068D02*
X019128Y010073D01*
X019085Y010116D01*
X019128Y010073D02*
X019151Y010095D01*
X019176Y010071D02*
X021355Y010071D01*
X021355Y010229D02*
X019603Y010229D01*
X019593Y010388D02*
X021355Y010388D01*
X021356Y010546D02*
X019583Y010546D01*
X019583Y010705D02*
X021356Y010705D01*
X021356Y010863D02*
X019583Y010863D01*
X019583Y011022D02*
X021356Y011022D01*
X021356Y011180D02*
X019538Y011180D01*
X018978Y011339D02*
X021356Y011339D01*
X021356Y011497D02*
X019440Y011497D01*
X019569Y011656D02*
X021357Y011656D01*
X021357Y011814D02*
X019569Y011814D01*
X019569Y011973D02*
X021357Y011973D01*
X021357Y012131D02*
X019569Y012131D01*
X019549Y012290D02*
X021357Y012290D01*
X021357Y012448D02*
X019549Y012448D01*
X019549Y012607D02*
X021357Y012607D01*
X021358Y012765D02*
X019549Y012765D01*
X019519Y012924D02*
X021353Y012924D01*
X021348Y013082D02*
X019414Y013082D01*
X019414Y013241D02*
X021343Y013241D01*
X021338Y013399D02*
X019428Y013399D01*
X019469Y013558D02*
X021442Y013558D01*
X021536Y013716D02*
X019447Y013716D01*
X019348Y013875D02*
X021630Y013875D01*
X021724Y014033D02*
X015724Y014033D01*
X015755Y014192D02*
X021819Y014192D01*
X021913Y014350D02*
X015755Y014350D01*
X015755Y014509D02*
X021989Y014509D01*
X022208Y014417D02*
X025142Y014411D01*
X025381Y014207D01*
X025381Y013648D01*
X025362Y013629D01*
X025758Y013558D02*
X028251Y013558D01*
X028251Y013716D02*
X025758Y013716D01*
X025758Y013875D02*
X028251Y013875D01*
X028251Y014033D02*
X025727Y014033D01*
X025603Y014192D02*
X028251Y014192D01*
X028251Y014350D02*
X025552Y014350D01*
X025367Y014509D02*
X028251Y014509D01*
X028251Y014667D02*
X017307Y014667D01*
X017289Y014657D02*
X017325Y014678D01*
X017355Y014708D01*
X017376Y014744D01*
X017387Y014785D01*
X017387Y015024D01*
X017009Y015024D01*
X017009Y015139D01*
X016894Y015139D01*
X016894Y015517D01*
X016655Y015517D01*
X016614Y015506D01*
X016578Y015485D01*
X016548Y015455D01*
X016527Y015419D01*
X016516Y015378D01*
X016516Y015139D01*
X016894Y015139D01*
X016894Y015024D01*
X016516Y015024D01*
X016516Y014785D01*
X016527Y014744D01*
X016548Y014708D01*
X016578Y014678D01*
X016614Y014657D01*
X016655Y014646D01*
X016894Y014646D01*
X016894Y015024D01*
X017009Y015024D01*
X017009Y014646D01*
X017248Y014646D01*
X017289Y014657D01*
X017387Y014826D02*
X028251Y014826D01*
X028251Y014984D02*
X017387Y014984D01*
X017387Y015139D02*
X017009Y015139D01*
X017009Y015517D01*
X017248Y015517D01*
X017289Y015506D01*
X017325Y015485D01*
X017355Y015455D01*
X017376Y015419D01*
X017387Y015378D01*
X017387Y015139D01*
X017387Y015143D02*
X028251Y015143D01*
X028251Y015301D02*
X017387Y015301D01*
X017351Y015460D02*
X028251Y015460D01*
X028251Y015618D02*
X014557Y015618D01*
X014558Y015616D02*
X014440Y015734D01*
X014286Y015798D01*
X014119Y015798D01*
X013965Y015734D01*
X013846Y015616D01*
X013782Y015462D01*
X013782Y014735D01*
X013846Y014580D01*
X013965Y014462D01*
X014119Y014398D01*
X014286Y014398D01*
X014440Y014462D01*
X014558Y014580D01*
X014622Y014735D01*
X014622Y015462D01*
X014558Y015616D01*
X014622Y015460D02*
X015085Y015460D01*
X015040Y015301D02*
X014622Y015301D01*
X014622Y015143D02*
X015040Y015143D01*
X015040Y014984D02*
X014622Y014984D01*
X014622Y014826D02*
X015040Y014826D01*
X015121Y014667D02*
X014594Y014667D01*
X014487Y014509D02*
X015155Y014509D01*
X015155Y014350D02*
X010402Y014350D01*
X010402Y014192D02*
X015053Y014192D01*
X014895Y014033D02*
X011487Y014033D01*
X011476Y014074D01*
X011455Y014111D01*
X011425Y014140D01*
X011389Y014161D01*
X011348Y014172D01*
X011119Y014172D01*
X011119Y013765D01*
X011487Y013765D01*
X011487Y014033D01*
X011487Y013875D02*
X014736Y013875D01*
X014301Y013716D02*
X013644Y013716D01*
X013660Y013558D02*
X014301Y013558D01*
X014314Y013399D02*
X013660Y013399D01*
X013660Y013241D02*
X014301Y013241D01*
X014301Y013082D02*
X013660Y013082D01*
X013630Y012924D02*
X014301Y012924D01*
X014191Y012765D02*
X012954Y012765D01*
X013236Y012607D02*
X013332Y012607D01*
X013332Y012448D02*
X013236Y012448D01*
X013236Y012290D02*
X012932Y012290D01*
X013236Y012222D02*
X013332Y012222D01*
X013332Y011815D01*
X013346Y011815D01*
X013323Y011792D01*
X013323Y011219D01*
X013143Y011424D01*
X013146Y011431D01*
X013146Y011558D01*
X013097Y011674D01*
X013008Y011764D01*
X012891Y011812D01*
X012764Y011812D01*
X012647Y011764D01*
X012558Y011674D01*
X012509Y011558D01*
X012509Y011431D01*
X012542Y011352D01*
X012334Y011352D01*
X012334Y010925D01*
X012702Y010925D01*
X012702Y011202D01*
X012764Y011176D01*
X012855Y011176D01*
X013461Y010489D01*
X013461Y010482D01*
X013472Y010470D01*
X013215Y010542D01*
X013187Y010608D01*
X013098Y010698D01*
X012981Y010746D01*
X012854Y010746D01*
X012737Y010698D01*
X012702Y010663D01*
X012702Y010829D01*
X012334Y010829D01*
X012334Y010466D01*
X012320Y010466D01*
X012320Y010059D01*
X012224Y010059D01*
X012224Y010402D01*
X012238Y010402D01*
X012238Y010829D01*
X012334Y010829D01*
X012334Y010925D01*
X012238Y010925D01*
X012238Y011352D01*
X012035Y011352D01*
X012521Y011835D01*
X012850Y011835D01*
X012897Y011882D01*
X012900Y011876D01*
X012930Y011847D01*
X012967Y011826D01*
X013007Y011815D01*
X013236Y011815D01*
X013236Y012222D01*
X013236Y012131D02*
X013332Y012131D01*
X013332Y011973D02*
X013236Y011973D01*
X013345Y011814D02*
X012500Y011814D01*
X012550Y011656D02*
X012340Y011656D01*
X012180Y011497D02*
X012509Y011497D01*
X012334Y011339D02*
X012238Y011339D01*
X012238Y011180D02*
X012334Y011180D01*
X012334Y011022D02*
X012238Y011022D01*
X012334Y010863D02*
X013131Y010863D01*
X013081Y010705D02*
X013270Y010705D01*
X013213Y010546D02*
X013410Y010546D01*
X012754Y010705D02*
X012702Y010705D01*
X012334Y010705D02*
X012238Y010705D01*
X012238Y010546D02*
X012334Y010546D01*
X012320Y010388D02*
X012224Y010388D01*
X012224Y010229D02*
X012320Y010229D01*
X012320Y010071D02*
X012224Y010071D01*
X012224Y009963D02*
X012320Y009963D01*
X012320Y009555D01*
X012549Y009555D01*
X012590Y009566D01*
X012626Y009587D01*
X012656Y009617D01*
X012674Y009648D01*
X012727Y009595D01*
X012728Y009595D02*
X012634Y009595D01*
X012727Y009595D02*
X012843Y009547D01*
X012941Y009547D01*
X012952Y009535D01*
X012952Y009529D01*
X013003Y009477D01*
X013050Y009425D01*
X012988Y009425D01*
X012906Y009343D01*
X012906Y009185D01*
X012583Y009189D01*
X012530Y009203D01*
X012507Y009190D01*
X012479Y009190D01*
X012441Y009153D01*
X012393Y009126D01*
X012386Y009100D01*
X012367Y009081D01*
X012366Y009026D01*
X012345Y008952D01*
X012331Y008940D01*
X012325Y008882D01*
X012267Y008940D01*
X012158Y008986D01*
X012039Y008986D01*
X011929Y008940D01*
X011901Y008912D01*
X011690Y008937D01*
X011690Y009137D01*
X011608Y009219D01*
X010980Y009219D01*
X010933Y009172D01*
X010930Y009177D01*
X010900Y009207D01*
X010864Y009228D01*
X010823Y009239D01*
X010594Y009239D01*
X010594Y008832D01*
X010498Y008832D01*
X010498Y008736D01*
X010130Y008736D01*
X010130Y008467D01*
X010141Y008427D01*
X010162Y008390D01*
X010192Y008361D01*
X010229Y008339D01*
X010269Y008329D01*
X010498Y008329D01*
X010498Y008736D01*
X010594Y008736D01*
X010594Y008329D01*
X010823Y008329D01*
X010864Y008339D01*
X010900Y008361D01*
X010930Y008390D01*
X010933Y008396D01*
X010980Y008349D01*
X011608Y008349D01*
X011690Y008431D01*
X011690Y008534D01*
X011756Y008526D01*
X011705Y008476D01*
X011705Y008210D01*
X011636Y008187D01*
X011545Y008225D01*
X011426Y008225D01*
X011316Y008180D01*
X011232Y008096D01*
X011187Y007986D01*
X011187Y007968D01*
X010928Y008222D01*
X010871Y008280D01*
X010869Y008280D01*
X010868Y008282D01*
X010787Y008281D01*
X009869Y008290D01*
X009869Y008291D01*
X009869Y008371D01*
X009858Y008412D01*
X009849Y008427D01*
X009849Y008942D01*
X009858Y008957D01*
X009869Y008998D01*
X009869Y009078D01*
X009769Y009078D01*
X009769Y009078D01*
X009869Y009078D01*
X009869Y009158D01*
X009858Y009199D01*
X009849Y009215D01*
X009849Y009469D01*
X009946Y009469D01*
X010291Y009813D01*
X011128Y009813D01*
X011128Y009657D01*
X011210Y009575D01*
X011838Y009575D01*
X011885Y009622D01*
X011888Y009617D01*
X011918Y009587D01*
X011955Y009566D01*
X011995Y009555D01*
X012224Y009555D01*
X012224Y009963D01*
X012224Y009912D02*
X012320Y009912D01*
X012320Y009754D02*
X012224Y009754D01*
X012224Y009595D02*
X012320Y009595D01*
X011910Y009595D02*
X011858Y009595D01*
X011690Y009120D02*
X012392Y009120D01*
X012348Y008961D02*
X012217Y008961D01*
X011980Y008961D02*
X011690Y008961D01*
X010898Y008832D02*
X010898Y008736D01*
X010594Y008736D01*
X010594Y008832D01*
X010898Y008832D01*
X010898Y008803D02*
X010594Y008803D01*
X010498Y008803D02*
X009849Y008803D01*
X009859Y008961D02*
X010130Y008961D01*
X010130Y008832D02*
X010130Y009100D01*
X010141Y009141D01*
X010162Y009177D01*
X010192Y009207D01*
X010229Y009228D01*
X010269Y009239D01*
X010498Y009239D01*
X010498Y008832D01*
X010130Y008832D01*
X010130Y008644D02*
X009849Y008644D01*
X009849Y008486D02*
X010130Y008486D01*
X009869Y008327D02*
X011705Y008327D01*
X011690Y008486D02*
X011715Y008486D01*
X011305Y008169D02*
X010983Y008169D01*
X011144Y008010D02*
X011197Y008010D01*
X010594Y008486D02*
X010498Y008486D01*
X010498Y008644D02*
X010594Y008644D01*
X010594Y008961D02*
X010498Y008961D01*
X010498Y009120D02*
X010594Y009120D01*
X010136Y009120D02*
X009869Y009120D01*
X009769Y009078D02*
X009769Y009078D01*
X009849Y009278D02*
X012906Y009278D01*
X013039Y009437D02*
X009849Y009437D01*
X010072Y009595D02*
X011191Y009595D01*
X011128Y009754D02*
X010231Y009754D01*
X009685Y010244D02*
X011685Y010244D01*
X012702Y011022D02*
X012991Y011022D01*
X012755Y011180D02*
X012702Y011180D01*
X013218Y011339D02*
X013323Y011339D01*
X013323Y011497D02*
X013146Y011497D01*
X013105Y011656D02*
X013323Y011656D01*
X012140Y011950D02*
X011733Y011546D01*
X009883Y011546D01*
X009885Y011608D01*
X010074Y011838D01*
X010121Y011892D01*
X010331Y011906D01*
X010331Y011890D01*
X010413Y011808D01*
X011081Y011808D01*
X011163Y011890D01*
X011163Y012400D01*
X011081Y012482D01*
X010413Y012482D01*
X010331Y012400D01*
X010331Y012287D01*
X010114Y012272D01*
X010114Y012615D01*
X010158Y012596D01*
X010285Y012596D01*
X010347Y012622D01*
X010413Y012556D01*
X010680Y012556D01*
X010685Y012554D01*
X010689Y012556D01*
X011081Y012556D01*
X011093Y012569D01*
X011116Y012569D01*
X011118Y012566D01*
X011178Y012568D01*
X011178Y012537D01*
X011595Y012537D01*
X011595Y012876D01*
X011548Y012876D01*
X011771Y013114D01*
X012120Y013118D01*
X012120Y012954D01*
X012202Y012872D01*
X012566Y012872D01*
X012510Y012816D01*
X012510Y012705D01*
X012222Y012705D01*
X012140Y012623D01*
X012140Y011950D01*
X012140Y011973D02*
X011163Y011973D01*
X011163Y012131D02*
X012140Y012131D01*
X012017Y012224D02*
X012038Y012260D01*
X012049Y012301D01*
X012049Y012500D01*
X011632Y012500D01*
X011632Y012537D01*
X012049Y012537D01*
X012049Y012737D01*
X012038Y012777D01*
X012017Y012814D01*
X011987Y012844D01*
X011950Y012865D01*
X011910Y012876D01*
X011632Y012876D01*
X011632Y012537D01*
X011595Y012537D01*
X011595Y012500D01*
X011632Y012500D01*
X011632Y012162D01*
X011910Y012162D01*
X011950Y012173D01*
X011987Y012194D01*
X012017Y012224D01*
X012046Y012290D02*
X012140Y012290D01*
X012140Y012448D02*
X012049Y012448D01*
X012049Y012607D02*
X012140Y012607D01*
X012041Y012765D02*
X012510Y012765D01*
X012150Y012924D02*
X011593Y012924D01*
X011595Y012765D02*
X011632Y012765D01*
X011632Y012607D02*
X011595Y012607D01*
X011595Y012500D02*
X011178Y012500D01*
X011178Y012301D01*
X011188Y012260D01*
X011210Y012224D01*
X011239Y012194D01*
X011276Y012173D01*
X011316Y012162D01*
X011595Y012162D01*
X011595Y012500D01*
X011595Y012448D02*
X011632Y012448D01*
X011632Y012290D02*
X011595Y012290D01*
X011181Y012290D02*
X011163Y012290D01*
X011178Y012448D02*
X011114Y012448D01*
X010380Y012448D02*
X010114Y012448D01*
X010114Y012290D02*
X010331Y012290D01*
X010310Y012607D02*
X010363Y012607D01*
X010134Y012607D02*
X010114Y012607D01*
X009519Y012388D02*
X009519Y012021D01*
X009706Y012021D01*
X009609Y011902D01*
X009603Y011901D01*
X009556Y011839D01*
X009507Y011778D01*
X009507Y011773D01*
X009314Y011516D01*
X009232Y011598D01*
X009115Y011646D01*
X008988Y011646D01*
X008871Y011598D01*
X008836Y011562D01*
X008821Y011598D01*
X008810Y011610D01*
X008812Y011611D01*
X008839Y011661D01*
X008879Y011703D01*
X008878Y011731D01*
X008938Y011839D01*
X008948Y011843D01*
X008977Y011910D01*
X009013Y011974D01*
X009011Y011979D01*
X009035Y012003D01*
X009035Y012044D01*
X009050Y012079D01*
X009077Y012053D01*
X009114Y012031D01*
X009155Y012021D01*
X009423Y012021D01*
X009423Y012388D01*
X009519Y012388D01*
X009519Y012290D02*
X009423Y012290D01*
X009423Y012131D02*
X009519Y012131D01*
X009667Y011973D02*
X009012Y011973D01*
X008924Y011814D02*
X009536Y011814D01*
X009419Y011656D02*
X008836Y011656D01*
X008557Y011977D02*
X008535Y011976D01*
X008511Y011991D01*
X008506Y011989D01*
X008501Y011992D01*
X008441Y011974D01*
X008384Y011972D01*
X008367Y011954D01*
X008343Y011948D01*
X008340Y011943D01*
X008161Y011889D01*
X007808Y011897D01*
X007807Y011898D01*
X007725Y011899D01*
X007643Y011901D01*
X007642Y011901D01*
X007641Y011901D01*
X007582Y011844D01*
X007523Y011787D01*
X007523Y011786D01*
X007522Y011785D01*
X007521Y011703D01*
X007519Y011621D01*
X007520Y011621D01*
X007519Y011591D01*
X007518Y011590D01*
X007518Y011509D01*
X007516Y011427D01*
X007518Y011426D01*
X007518Y010833D01*
X007443Y010833D01*
X007425Y010828D01*
X007407Y010833D01*
X007330Y010833D01*
X007330Y011917D01*
X007341Y011982D01*
X007330Y011997D01*
X007330Y012016D01*
X007285Y012061D01*
X007479Y012061D01*
X007479Y012428D01*
X007575Y012428D01*
X007575Y012061D01*
X007843Y012061D01*
X007884Y012071D01*
X007920Y012092D01*
X007950Y012122D01*
X007953Y012128D01*
X007959Y012119D01*
X007988Y012089D01*
X008025Y012068D01*
X008065Y012057D01*
X008334Y012057D01*
X008334Y012425D01*
X008430Y012425D01*
X008430Y012057D01*
X008602Y012057D01*
X008557Y011977D01*
X008402Y011973D02*
X007339Y011973D01*
X007330Y011814D02*
X007551Y011814D01*
X007520Y011656D02*
X007330Y011656D01*
X007330Y011497D02*
X007518Y011497D01*
X007518Y011339D02*
X007330Y011339D01*
X007330Y011180D02*
X007518Y011180D01*
X007518Y011022D02*
X007330Y011022D01*
X007330Y010863D02*
X007518Y010863D01*
X007918Y010863D02*
X008120Y010863D01*
X008126Y010878D02*
X008110Y010839D01*
X008112Y010833D01*
X008034Y010833D01*
X007993Y010822D01*
X007978Y010813D01*
X007918Y010813D01*
X007918Y011495D01*
X008136Y011489D01*
X008167Y011473D01*
X008216Y011487D01*
X008235Y011487D01*
X008233Y011482D01*
X008233Y011355D01*
X008277Y011249D01*
X008154Y010948D01*
X008126Y010920D01*
X008126Y010878D01*
X008184Y011022D02*
X007918Y011022D01*
X007918Y011180D02*
X008249Y011180D01*
X008240Y011339D02*
X007918Y011339D01*
X007575Y012131D02*
X007479Y012131D01*
X007479Y012290D02*
X007575Y012290D01*
X007575Y012428D02*
X007575Y012524D01*
X007927Y012524D01*
X007927Y012521D01*
X008334Y012521D01*
X008334Y012425D01*
X007982Y012425D01*
X007982Y012428D01*
X007575Y012428D01*
X007575Y012448D02*
X008334Y012448D01*
X008334Y012290D02*
X008430Y012290D01*
X008430Y012131D02*
X008334Y012131D01*
X009924Y011656D02*
X011843Y011656D01*
X012003Y011814D02*
X011087Y011814D01*
X010407Y011814D02*
X010054Y011814D01*
X011163Y013082D02*
X011262Y013082D01*
X011410Y013241D02*
X010013Y013241D01*
X011023Y013399D02*
X011119Y013399D01*
X011119Y013558D02*
X011023Y013558D01*
X011119Y013716D02*
X012137Y013716D01*
X012120Y013558D02*
X011487Y013558D01*
X011487Y013399D02*
X011558Y013399D01*
X011741Y013082D02*
X012120Y013082D01*
X011119Y013875D02*
X011023Y013875D01*
X011023Y014033D02*
X011119Y014033D01*
X011168Y014378D02*
X011182Y014378D01*
X011182Y015078D01*
X011222Y015078D01*
X011222Y014378D01*
X011237Y014378D01*
X011305Y014389D01*
X011371Y014411D01*
X011433Y014442D01*
X011489Y014483D01*
X011538Y014532D01*
X011579Y014588D01*
X011610Y014649D01*
X011632Y014715D01*
X011642Y014784D01*
X011642Y015078D01*
X011222Y015078D01*
X011222Y015118D01*
X011182Y015118D01*
X011182Y015078D01*
X010762Y015078D01*
X010762Y014784D01*
X010773Y014715D01*
X010795Y014649D01*
X010826Y014588D01*
X010867Y014532D01*
X010916Y014483D01*
X010972Y014442D01*
X011034Y014411D01*
X011099Y014389D01*
X011168Y014378D01*
X011182Y014509D02*
X011222Y014509D01*
X011222Y014667D02*
X011182Y014667D01*
X011182Y014826D02*
X011222Y014826D01*
X011222Y014984D02*
X011182Y014984D01*
X011182Y015118D02*
X010762Y015118D01*
X010762Y015413D01*
X010773Y015481D01*
X010795Y015547D01*
X010826Y015609D01*
X010867Y015665D01*
X010916Y015714D01*
X010972Y015755D01*
X011034Y015786D01*
X011099Y015808D01*
X011168Y015818D01*
X011182Y015818D01*
X011182Y015118D01*
X011182Y015143D02*
X011222Y015143D01*
X011222Y015118D02*
X011222Y015818D01*
X011237Y015818D01*
X011305Y015808D01*
X011371Y015786D01*
X011433Y015755D01*
X011489Y015714D01*
X011538Y015665D01*
X011579Y015609D01*
X011610Y015547D01*
X011632Y015481D01*
X011642Y015413D01*
X011642Y015118D01*
X011222Y015118D01*
X011185Y015244D02*
X011185Y016244D01*
X016540Y016218D01*
X016955Y015244D01*
X017009Y015301D02*
X016894Y015301D01*
X016894Y015143D02*
X017009Y015143D01*
X016952Y015081D02*
X018967Y015081D01*
X017009Y014984D02*
X016894Y014984D01*
X016894Y014826D02*
X017009Y014826D01*
X017009Y014667D02*
X016894Y014667D01*
X016596Y014667D02*
X015790Y014667D01*
X015871Y014826D02*
X016516Y014826D01*
X016516Y014984D02*
X015871Y014984D01*
X015871Y015143D02*
X016516Y015143D01*
X016516Y015301D02*
X015871Y015301D01*
X015826Y015460D02*
X016552Y015460D01*
X016894Y015460D02*
X017009Y015460D01*
X014339Y015777D02*
X028251Y015777D01*
X028251Y015935D02*
X010256Y015935D01*
X010408Y015777D02*
X011015Y015777D01*
X011182Y015777D02*
X011222Y015777D01*
X011222Y015618D02*
X011182Y015618D01*
X011182Y015460D02*
X011222Y015460D01*
X011222Y015301D02*
X011182Y015301D01*
X010762Y015301D02*
X010622Y015301D01*
X010622Y015143D02*
X010762Y015143D01*
X010762Y014984D02*
X010622Y014984D01*
X010622Y014826D02*
X010762Y014826D01*
X010789Y014667D02*
X010594Y014667D01*
X010487Y014509D02*
X010890Y014509D01*
X011515Y014509D02*
X011918Y014509D01*
X011965Y014462D02*
X012119Y014398D01*
X012286Y014398D01*
X012440Y014462D01*
X012558Y014580D01*
X012622Y014735D01*
X012622Y015462D01*
X012558Y015616D01*
X012440Y015734D01*
X012286Y015798D01*
X012119Y015798D01*
X011965Y015734D01*
X011846Y015616D01*
X011782Y015462D01*
X011782Y014735D01*
X011846Y014580D01*
X011965Y014462D01*
X011810Y014667D02*
X011616Y014667D01*
X011642Y014826D02*
X011782Y014826D01*
X011782Y014984D02*
X011642Y014984D01*
X011642Y015143D02*
X011782Y015143D01*
X011782Y015301D02*
X011642Y015301D01*
X011635Y015460D02*
X011782Y015460D01*
X011848Y015618D02*
X011572Y015618D01*
X011390Y015777D02*
X012066Y015777D01*
X012339Y015777D02*
X013066Y015777D01*
X013119Y015798D02*
X012965Y015734D01*
X012846Y015616D01*
X012782Y015462D01*
X012782Y014735D01*
X012846Y014580D01*
X012965Y014462D01*
X013119Y014398D01*
X013286Y014398D01*
X013440Y014462D01*
X013558Y014580D01*
X013622Y014735D01*
X013622Y015462D01*
X013558Y015616D01*
X013440Y015734D01*
X013286Y015798D01*
X013119Y015798D01*
X013339Y015777D02*
X014066Y015777D01*
X013848Y015618D02*
X013557Y015618D01*
X013622Y015460D02*
X013782Y015460D01*
X013782Y015301D02*
X013622Y015301D01*
X013622Y015143D02*
X013782Y015143D01*
X013782Y014984D02*
X013622Y014984D01*
X013622Y014826D02*
X013782Y014826D01*
X013810Y014667D02*
X013594Y014667D01*
X013487Y014509D02*
X013918Y014509D01*
X012918Y014509D02*
X012487Y014509D01*
X012594Y014667D02*
X012810Y014667D01*
X012782Y014826D02*
X012622Y014826D01*
X012622Y014984D02*
X012782Y014984D01*
X012782Y015143D02*
X012622Y015143D01*
X012622Y015301D02*
X012782Y015301D01*
X012782Y015460D02*
X012622Y015460D01*
X012557Y015618D02*
X012848Y015618D01*
X011185Y016244D02*
X007185Y016244D01*
X005163Y014235D01*
X005163Y011826D01*
X004663Y011322D01*
X004621Y011339D02*
X004717Y011339D01*
X004717Y011417D02*
X004717Y011049D01*
X004916Y011049D01*
X004912Y011023D01*
X004680Y011023D01*
X004620Y010963D01*
X004560Y011023D01*
X003932Y011023D01*
X003914Y011005D01*
X003874Y011045D01*
X004137Y011045D01*
X004219Y011127D01*
X004219Y011167D01*
X004224Y011148D01*
X004245Y011111D01*
X004275Y011081D01*
X004312Y011060D01*
X004352Y011049D01*
X004621Y011049D01*
X004621Y011417D01*
X004717Y011417D01*
X004717Y011180D02*
X004621Y011180D01*
X004679Y011022D02*
X004561Y011022D01*
X003931Y011022D02*
X003897Y011022D01*
X003465Y011022D02*
X003017Y011022D01*
X003017Y011180D02*
X003309Y011180D01*
X003309Y011339D02*
X002860Y011339D01*
X002782Y011616D02*
X003017Y011851D01*
X003017Y012182D01*
X002782Y012416D01*
X002451Y012416D01*
X002217Y012182D01*
X002217Y011851D01*
X002451Y011616D01*
X002782Y011616D01*
X002821Y011656D02*
X003309Y011656D01*
X003309Y011497D02*
X001141Y011497D01*
X001141Y011339D02*
X001373Y011339D01*
X001217Y011180D02*
X001141Y011180D01*
X001141Y011022D02*
X001217Y011022D01*
X001217Y010863D02*
X001141Y010863D01*
X001141Y010705D02*
X001363Y010705D01*
X001141Y010546D02*
X001818Y010546D01*
X001811Y010388D02*
X001977Y010388D01*
X001970Y010229D02*
X002264Y010229D01*
X002217Y010071D02*
X002017Y010071D01*
X002017Y009912D02*
X002217Y009912D01*
X002172Y009754D02*
X002314Y009754D01*
X001954Y009437D02*
X001141Y009437D01*
X001141Y009595D02*
X001786Y009595D01*
X001314Y009754D02*
X001141Y009754D01*
X001141Y009912D02*
X001217Y009912D01*
X001217Y010071D02*
X001141Y010071D01*
X001141Y010229D02*
X001264Y010229D01*
X001141Y010388D02*
X001422Y010388D01*
X002039Y010863D02*
X002217Y010863D01*
X002217Y011022D02*
X002017Y011022D01*
X002017Y011180D02*
X002217Y011180D01*
X002373Y011339D02*
X001860Y011339D01*
X001782Y011616D02*
X001451Y011616D01*
X001217Y011851D01*
X001217Y012182D01*
X001451Y012416D01*
X001782Y012416D01*
X002017Y012182D01*
X002017Y011851D01*
X001782Y011616D01*
X001821Y011656D02*
X002412Y011656D01*
X002253Y011814D02*
X001980Y011814D01*
X002017Y011973D02*
X002217Y011973D01*
X002217Y012131D02*
X002017Y012131D01*
X001909Y012290D02*
X002324Y012290D01*
X002909Y012290D02*
X003309Y012290D01*
X003309Y012448D02*
X001141Y012448D01*
X001141Y012290D02*
X001324Y012290D01*
X001217Y012131D02*
X001141Y012131D01*
X001141Y011973D02*
X001217Y011973D01*
X001253Y011814D02*
X001141Y011814D01*
X001141Y011656D02*
X001412Y011656D01*
X000541Y011656D02*
X000465Y011656D01*
X000465Y011814D02*
X000541Y011814D01*
X000541Y011973D02*
X000465Y011973D01*
X000465Y012131D02*
X000541Y012131D01*
X000541Y012290D02*
X000465Y012290D01*
X000465Y012448D02*
X000541Y012448D01*
X000541Y012607D02*
X000465Y012607D01*
X000465Y012765D02*
X000541Y012765D01*
X000587Y012924D02*
X000465Y012924D01*
X000465Y013082D02*
X000745Y013082D01*
X000904Y013241D02*
X000465Y013241D01*
X000465Y013399D02*
X001434Y013399D01*
X001451Y013616D02*
X001782Y013616D01*
X002017Y013851D01*
X002017Y014182D01*
X001782Y014416D01*
X001451Y014416D01*
X001217Y014182D01*
X001217Y013851D01*
X001451Y013616D01*
X001351Y013716D02*
X000465Y013716D01*
X000465Y013558D02*
X003585Y013558D01*
X003584Y013399D02*
X002800Y013399D01*
X002958Y013241D02*
X003583Y013241D01*
X003581Y013082D02*
X003017Y013082D01*
X003017Y012924D02*
X003580Y012924D01*
X003579Y012765D02*
X002931Y012765D01*
X003578Y012607D02*
X001141Y012607D01*
X001800Y013399D02*
X002434Y013399D01*
X002351Y013716D02*
X001882Y013716D01*
X002017Y013875D02*
X002217Y013875D01*
X002217Y014033D02*
X002017Y014033D01*
X002007Y014192D02*
X002226Y014192D01*
X002385Y014350D02*
X001849Y014350D01*
X001385Y014350D02*
X000470Y014350D01*
X000469Y014192D02*
X001226Y014192D01*
X001217Y014033D02*
X000467Y014033D01*
X000466Y013875D02*
X001217Y013875D01*
X000472Y014509D02*
X006047Y014509D01*
X005924Y014667D02*
X000473Y014667D01*
X000475Y014826D02*
X005927Y014826D01*
X006060Y014984D02*
X000477Y014984D01*
X000478Y015143D02*
X006537Y015143D01*
X006537Y015301D02*
X000480Y015301D01*
X000481Y015460D02*
X006733Y015460D01*
X006733Y015618D02*
X000483Y015618D01*
X000484Y015777D02*
X006858Y015777D01*
X007016Y015935D02*
X000486Y015935D01*
X000487Y016094D02*
X028251Y016094D01*
X028251Y016252D02*
X000489Y016252D01*
X000479Y016411D02*
X000528Y016411D01*
X002849Y014350D02*
X005539Y014350D01*
X005422Y014192D02*
X003488Y014192D01*
X003646Y014033D02*
X005304Y014033D01*
X005261Y013875D02*
X003805Y013875D01*
X003963Y013716D02*
X005263Y013716D01*
X005262Y013558D02*
X003966Y013558D01*
X003964Y013399D02*
X005261Y013399D01*
X005202Y013241D02*
X003963Y013241D01*
X003961Y013082D02*
X005202Y013082D01*
X005202Y012924D02*
X003960Y012924D01*
X003959Y012765D02*
X005202Y012765D01*
X005202Y012607D02*
X005025Y012607D01*
X005104Y012448D02*
X006007Y012448D01*
X006078Y012290D02*
X005104Y012290D01*
X005104Y012131D02*
X006131Y012131D01*
X005433Y011973D02*
X005104Y011973D01*
X005095Y011814D02*
X005391Y011814D01*
X005179Y011656D02*
X005124Y011656D01*
X004234Y012448D02*
X004219Y012448D01*
X004313Y012607D02*
X003958Y012607D01*
X003309Y012131D02*
X003017Y012131D01*
X003017Y011973D02*
X003309Y011973D01*
X003369Y011814D02*
X002980Y011814D01*
X003017Y010863D02*
X003490Y010863D01*
X003648Y010705D02*
X003129Y010705D01*
X003256Y010546D02*
X003807Y010546D01*
X003850Y010388D02*
X003358Y010388D01*
X003461Y010229D02*
X003850Y010229D01*
X003564Y010071D02*
X005208Y010071D01*
X005423Y009912D02*
X003667Y009912D01*
X003788Y009754D02*
X004608Y009754D01*
X004608Y009595D02*
X004335Y009595D01*
X004485Y009437D02*
X004608Y009437D01*
X005360Y009595D02*
X005401Y009595D01*
X005360Y009754D02*
X005575Y009754D01*
X005835Y010060D02*
X007190Y010060D01*
X007206Y010051D01*
X007247Y010040D01*
X007327Y010040D01*
X007407Y010040D01*
X007425Y010045D01*
X007443Y010040D01*
X007524Y010040D01*
X007604Y010040D01*
X007644Y010051D01*
X007660Y010060D01*
X007708Y010060D01*
X007706Y010026D01*
X007711Y010020D01*
X007711Y010012D01*
X007765Y009958D01*
X007808Y009908D01*
X007808Y009900D01*
X007862Y009846D01*
X007912Y009789D01*
X007920Y009788D01*
X007926Y009782D01*
X008001Y009782D01*
X008026Y009781D01*
X007985Y009682D01*
X007985Y009566D01*
X007888Y009606D01*
X007761Y009606D01*
X007644Y009558D01*
X007555Y009468D01*
X007507Y009351D01*
X007507Y009225D01*
X007555Y009108D01*
X007584Y009079D01*
X006595Y009081D01*
X006604Y009103D01*
X006604Y009221D01*
X006558Y009331D01*
X006474Y009415D01*
X006365Y009460D01*
X006246Y009460D01*
X006169Y009429D01*
X006168Y009632D01*
X006170Y009712D01*
X006168Y009714D01*
X006168Y009717D01*
X006111Y009774D01*
X005835Y010060D01*
X005978Y009912D02*
X007805Y009912D01*
X008015Y009754D02*
X006131Y009754D01*
X006168Y009595D02*
X007734Y009595D01*
X007915Y009595D02*
X007985Y009595D01*
X007542Y009437D02*
X006422Y009437D01*
X006580Y009278D02*
X007507Y009278D01*
X007550Y009120D02*
X006604Y009120D01*
X006188Y009437D02*
X006169Y009437D01*
X007327Y010040D02*
X007327Y010119D01*
X007327Y010040D01*
X007327Y010071D02*
X007327Y010071D01*
X007327Y010119D02*
X007327Y010119D01*
X007524Y010119D02*
X007524Y010119D01*
X007524Y010040D01*
X007524Y010119D01*
X007524Y010071D02*
X007524Y010071D01*
X007518Y010436D02*
X007330Y010436D01*
X007330Y010436D01*
X007518Y010436D01*
X007518Y010436D01*
X008045Y008444D02*
X008402Y008444D01*
X008402Y008445D01*
X008402Y008438D01*
X008448Y008328D01*
X008532Y008244D01*
X008641Y008199D01*
X008760Y008199D01*
X008870Y008244D01*
X008913Y008288D01*
X009076Y008288D01*
X009076Y008211D01*
X009087Y008170D01*
X009094Y008158D01*
X008987Y008202D01*
X008868Y008202D01*
X008759Y008157D01*
X008675Y008073D01*
X008638Y007983D01*
X008511Y008102D01*
X008511Y008168D01*
X008465Y008278D01*
X008381Y008362D01*
X008272Y008407D01*
X008153Y008407D01*
X008043Y008362D01*
X007959Y008278D01*
X007914Y008168D01*
X007914Y008105D01*
X007910Y008105D01*
X006666Y008102D01*
X006635Y008118D01*
X006590Y008102D01*
X006543Y008102D01*
X006519Y008078D01*
X006449Y008054D01*
X006357Y008054D01*
X006294Y008117D01*
X006184Y008162D01*
X006066Y008162D01*
X005956Y008117D01*
X005872Y008033D01*
X005827Y007923D01*
X005827Y007898D01*
X005360Y007898D01*
X005360Y007957D01*
X005370Y007973D01*
X005380Y008014D01*
X005380Y008094D01*
X005380Y008174D01*
X005370Y008215D01*
X005360Y008230D01*
X005360Y008288D01*
X005398Y008288D01*
X005782Y008280D01*
X005825Y008263D01*
X005862Y008278D01*
X005903Y008277D01*
X005935Y008309D01*
X005956Y008318D01*
X006020Y008291D01*
X006138Y008291D01*
X006248Y008337D01*
X006313Y008402D01*
X006342Y008333D01*
X006432Y008243D01*
X006549Y008195D01*
X006675Y008195D01*
X006692Y008202D01*
X007802Y008202D01*
X007913Y008313D01*
X008045Y008444D01*
X008009Y008327D02*
X007928Y008327D01*
X007914Y008169D02*
X005380Y008169D01*
X005380Y008094D02*
X005281Y008094D01*
X005281Y008094D01*
X005281Y008094D01*
X005380Y008094D01*
X005379Y008010D02*
X005863Y008010D01*
X006224Y008327D02*
X006348Y008327D01*
X005731Y007376D02*
X005360Y007376D01*
X005360Y007218D02*
X005737Y007218D01*
X005742Y007059D02*
X005360Y007059D01*
X005360Y006901D02*
X005686Y006901D01*
X005579Y006742D02*
X005360Y006742D01*
X005345Y006584D02*
X005471Y006584D01*
X005364Y006425D02*
X004944Y006425D01*
X004786Y006267D02*
X005258Y006267D01*
X005270Y006108D02*
X004627Y006108D01*
X004469Y005950D02*
X005270Y005950D01*
X005270Y005791D02*
X002957Y005791D01*
X002798Y005633D02*
X005270Y005633D01*
X005270Y004523D02*
X001141Y004523D01*
X001141Y004365D02*
X001399Y004365D01*
X001241Y004206D02*
X001141Y004206D01*
X001141Y004048D02*
X001217Y004048D01*
X001217Y003889D02*
X001141Y003889D01*
X001141Y003731D02*
X001337Y003731D01*
X001271Y003255D02*
X001141Y003255D01*
X001141Y003097D02*
X001204Y003097D01*
X001204Y002938D02*
X001141Y002938D01*
X001141Y002780D02*
X001270Y002780D01*
X001141Y002621D02*
X001474Y002621D01*
X001636Y002463D02*
X001141Y002463D01*
X001141Y002304D02*
X001507Y002304D01*
X001464Y002146D02*
X001141Y002146D01*
X001141Y001987D02*
X001464Y001987D01*
X001464Y001829D02*
X001141Y001829D01*
X001169Y001670D02*
X001464Y001670D01*
X000794Y001195D02*
X000465Y001195D01*
X000465Y001353D02*
X000641Y001353D01*
X000544Y001512D02*
X000465Y001512D01*
X000465Y001670D02*
X000541Y001670D01*
X000541Y001829D02*
X000465Y001829D01*
X000465Y001987D02*
X000541Y001987D01*
X000541Y002146D02*
X000465Y002146D01*
X000465Y002304D02*
X000541Y002304D01*
X000541Y002463D02*
X000465Y002463D01*
X000465Y002621D02*
X000541Y002621D01*
X000541Y002780D02*
X000465Y002780D01*
X000465Y002938D02*
X000541Y002938D01*
X000541Y003097D02*
X000465Y003097D01*
X000465Y003255D02*
X000541Y003255D01*
X000541Y003414D02*
X000465Y003414D01*
X000465Y003572D02*
X000541Y003572D01*
X000541Y003731D02*
X000465Y003731D01*
X000465Y003889D02*
X000541Y003889D01*
X000541Y004048D02*
X000465Y004048D01*
X000465Y004206D02*
X000541Y004206D01*
X000541Y004365D02*
X000465Y004365D01*
X000465Y004523D02*
X000541Y004523D01*
X000541Y004682D02*
X000465Y004682D01*
X000465Y004840D02*
X000541Y004840D01*
X000541Y004999D02*
X000465Y004999D01*
X000465Y005157D02*
X000541Y005157D01*
X000541Y005316D02*
X000465Y005316D01*
X000465Y005474D02*
X000541Y005474D01*
X000541Y005633D02*
X000465Y005633D01*
X000465Y005791D02*
X000541Y005791D01*
X000541Y005950D02*
X000465Y005950D01*
X000465Y006108D02*
X000541Y006108D01*
X000541Y006267D02*
X000465Y006267D01*
X000465Y006425D02*
X000541Y006425D01*
X000541Y006584D02*
X000465Y006584D01*
X000465Y006742D02*
X000541Y006742D01*
X000541Y006901D02*
X000465Y006901D01*
X000465Y007059D02*
X000541Y007059D01*
X000541Y007218D02*
X000465Y007218D01*
X000465Y007376D02*
X000541Y007376D01*
X000541Y007535D02*
X000465Y007535D01*
X000465Y007693D02*
X000541Y007693D01*
X000541Y007852D02*
X000465Y007852D01*
X000465Y008010D02*
X000541Y008010D01*
X000541Y008169D02*
X000465Y008169D01*
X000465Y008327D02*
X000541Y008327D01*
X000541Y008486D02*
X000465Y008486D01*
X000465Y008644D02*
X000541Y008644D01*
X000541Y008803D02*
X000465Y008803D01*
X000465Y008961D02*
X000541Y008961D01*
X000541Y009120D02*
X000465Y009120D01*
X000465Y009278D02*
X000541Y009278D01*
X000541Y009437D02*
X000465Y009437D01*
X000465Y009595D02*
X000541Y009595D01*
X000541Y009754D02*
X000465Y009754D01*
X000465Y009912D02*
X000541Y009912D01*
X000541Y010071D02*
X000465Y010071D01*
X000465Y010229D02*
X000541Y010229D01*
X000541Y010388D02*
X000465Y010388D01*
X000465Y010546D02*
X000541Y010546D01*
X000541Y010705D02*
X000465Y010705D01*
X000465Y010863D02*
X000541Y010863D01*
X000541Y011022D02*
X000465Y011022D01*
X000465Y011180D02*
X000541Y011180D01*
X000541Y011339D02*
X000465Y011339D01*
X000465Y011497D02*
X000541Y011497D01*
X002882Y013716D02*
X003426Y013716D01*
X006310Y014984D02*
X006537Y014984D01*
X007133Y015441D02*
X007133Y015486D01*
X007201Y015554D01*
X008821Y015554D01*
X008782Y015462D01*
X008782Y014735D01*
X008846Y014580D01*
X008965Y014462D01*
X009013Y014442D01*
X009013Y014178D01*
X008883Y014048D01*
X008822Y014048D01*
X008889Y014115D01*
X008938Y014232D01*
X008938Y014359D01*
X008889Y014476D01*
X008800Y014565D01*
X008683Y014614D01*
X008556Y014614D01*
X008439Y014565D01*
X008359Y014485D01*
X007763Y014483D01*
X007770Y014507D01*
X007794Y014529D01*
X007794Y014570D01*
X007916Y014570D01*
X007998Y014652D01*
X007998Y015359D01*
X007916Y015441D01*
X007289Y015441D01*
X007268Y015420D01*
X007247Y015441D01*
X007133Y015441D01*
X007133Y015460D02*
X008782Y015460D01*
X008782Y015301D02*
X007998Y015301D01*
X007998Y015143D02*
X008782Y015143D01*
X008782Y014984D02*
X007998Y014984D01*
X007998Y014826D02*
X008782Y014826D01*
X008810Y014667D02*
X007998Y014667D01*
X007772Y014509D02*
X008383Y014509D01*
X008856Y014509D02*
X008918Y014509D01*
X008938Y014350D02*
X009013Y014350D01*
X009013Y014192D02*
X008921Y014192D01*
X010622Y015460D02*
X010770Y015460D01*
X010833Y015618D02*
X010557Y015618D01*
X015585Y013875D02*
X016165Y013875D01*
X015960Y013716D02*
X015596Y013716D01*
X015754Y013558D02*
X015907Y013558D01*
X016910Y013577D02*
X016921Y013588D01*
X017492Y013288D02*
X018202Y013288D01*
X018262Y013228D01*
X018416Y013164D01*
X018768Y013164D01*
X018814Y013118D01*
X018814Y012976D01*
X018761Y012976D01*
X018679Y012894D01*
X018679Y012266D01*
X018687Y012258D01*
X018670Y012228D01*
X018659Y012187D01*
X018659Y011958D01*
X019066Y011958D01*
X019066Y011862D01*
X018659Y011862D01*
X018659Y011633D01*
X018669Y011595D01*
X018663Y011597D01*
X017920Y011597D01*
X017920Y012443D01*
X017880Y012538D01*
X017807Y012611D01*
X017610Y012809D01*
X017514Y012848D01*
X017459Y012848D01*
X017483Y012872D01*
X017504Y012908D01*
X017514Y012949D01*
X017514Y013088D01*
X016921Y013088D01*
X016921Y013088D01*
X017514Y013088D01*
X017514Y013227D01*
X017504Y013268D01*
X017492Y013288D01*
X017511Y013241D02*
X018249Y013241D01*
X018709Y012924D02*
X017508Y012924D01*
X017514Y013082D02*
X018814Y013082D01*
X018679Y012765D02*
X017653Y012765D01*
X017812Y012607D02*
X018679Y012607D01*
X018679Y012448D02*
X017917Y012448D01*
X017920Y012290D02*
X018679Y012290D01*
X018659Y012131D02*
X017920Y012131D01*
X017920Y011973D02*
X018659Y011973D01*
X018659Y011814D02*
X017920Y011814D01*
X017920Y011656D02*
X018659Y011656D01*
X019066Y011656D02*
X019162Y011656D01*
X019162Y011814D02*
X019066Y011814D01*
X019054Y011850D02*
X019114Y011910D01*
X019316Y011910D01*
X019323Y011917D01*
X019162Y011497D02*
X019066Y011497D01*
X018559Y011022D02*
X017890Y011022D01*
X017911Y010863D02*
X018673Y010863D01*
X018673Y010705D02*
X017911Y010705D01*
X017504Y010546D02*
X018673Y010546D01*
X018663Y010388D02*
X017911Y010388D01*
X017873Y010229D02*
X018653Y010229D01*
X019176Y010025D02*
X019176Y009657D01*
X019464Y009657D01*
X019505Y009668D01*
X019541Y009689D01*
X019571Y009718D01*
X019592Y009755D01*
X019603Y009796D01*
X019603Y010025D01*
X019176Y010025D01*
X019176Y009912D02*
X019080Y009912D01*
X019080Y009754D02*
X019176Y009754D01*
X019591Y009754D02*
X021355Y009754D01*
X021355Y009912D02*
X019603Y009912D01*
X018212Y008803D02*
X016920Y008803D01*
X016761Y008644D02*
X018163Y008644D01*
X018163Y008486D02*
X016603Y008486D01*
X016444Y008327D02*
X018163Y008327D01*
X018163Y008169D02*
X016395Y008169D01*
X016395Y008010D02*
X018163Y008010D01*
X018163Y007852D02*
X016395Y007852D01*
X016395Y007693D02*
X018163Y007693D01*
X018163Y007535D02*
X016395Y007535D01*
X016395Y007376D02*
X018163Y007376D01*
X018163Y007218D02*
X016395Y007218D01*
X016395Y007059D02*
X018163Y007059D01*
X018163Y006901D02*
X016395Y006901D01*
X016277Y006399D02*
X016237Y006409D01*
X015823Y006409D01*
X015823Y005857D01*
X016376Y005857D01*
X016376Y006271D01*
X016365Y006311D01*
X016344Y006348D01*
X016314Y006377D01*
X016277Y006399D01*
X016376Y006267D02*
X019351Y006267D01*
X019192Y006425D02*
X015280Y006425D01*
X015229Y006584D02*
X019034Y006584D01*
X018965Y006742D02*
X015163Y006742D01*
X014964Y006440D02*
X014980Y006405D01*
X015663Y006267D02*
X015823Y006267D01*
X015823Y006108D02*
X015663Y006108D01*
X015663Y005950D02*
X015823Y005950D01*
X015823Y005791D02*
X020322Y005791D01*
X020542Y005675D02*
X020541Y007817D01*
X021574Y008520D01*
X021575Y009564D01*
X021578Y012789D01*
X021561Y013326D01*
X022208Y014417D01*
X022330Y014192D02*
X025061Y014192D01*
X024997Y014033D02*
X024979Y014033D01*
X024249Y014033D02*
X022236Y014033D01*
X022202Y013875D02*
X022142Y013875D01*
X022103Y013716D02*
X022048Y013716D01*
X022082Y013558D02*
X021954Y013558D01*
X021860Y013399D02*
X022123Y013399D01*
X022249Y013241D02*
X021784Y013241D01*
X021789Y013082D02*
X022458Y013082D01*
X022458Y012924D02*
X021794Y012924D01*
X021798Y012765D02*
X022458Y012765D01*
X022458Y012607D02*
X021797Y012607D01*
X021797Y012448D02*
X022458Y012448D01*
X022458Y012290D02*
X021797Y012290D01*
X021797Y012131D02*
X022458Y012131D01*
X022458Y011973D02*
X021797Y011973D01*
X021797Y011814D02*
X022458Y011814D01*
X022458Y011656D02*
X021797Y011656D01*
X021796Y011497D02*
X022458Y011497D01*
X022458Y011339D02*
X021796Y011339D01*
X021796Y011180D02*
X022458Y011180D01*
X022458Y011022D02*
X021796Y011022D01*
X021796Y010863D02*
X022500Y010863D01*
X022653Y010705D02*
X021796Y010705D01*
X021796Y010546D02*
X022811Y010546D01*
X022964Y010388D02*
X021795Y010388D01*
X021795Y010229D02*
X022937Y010229D01*
X022976Y010071D02*
X021795Y010071D01*
X021795Y009912D02*
X023104Y009912D01*
X023565Y009912D02*
X023641Y009912D01*
X023641Y009754D02*
X021795Y009754D01*
X021795Y009595D02*
X023087Y009595D01*
X022957Y009437D02*
X021795Y009437D01*
X021794Y009278D02*
X022917Y009278D01*
X022941Y009120D02*
X021794Y009120D01*
X021794Y008961D02*
X023043Y008961D01*
X023326Y008961D02*
X023343Y008961D01*
X023326Y009120D02*
X023343Y009120D01*
X023326Y009278D02*
X023343Y009278D01*
X023326Y009437D02*
X023343Y009437D01*
X023326Y009595D02*
X023343Y009595D01*
X023582Y009595D02*
X023641Y009595D01*
X023861Y009348D02*
X023862Y010446D01*
X023685Y010744D01*
X023685Y011244D01*
X024685Y012244D01*
X024685Y013558D01*
X024614Y013629D01*
X024218Y013558D02*
X023469Y013558D01*
X023447Y013716D02*
X024218Y013716D01*
X024218Y013875D02*
X023348Y013875D01*
X022775Y013581D02*
X022758Y013564D01*
X023301Y013241D02*
X024234Y013241D01*
X024218Y013399D02*
X023428Y013399D01*
X023058Y013082D02*
X024465Y013082D01*
X024465Y012924D02*
X023058Y012924D01*
X023058Y012765D02*
X024465Y012765D01*
X024465Y012607D02*
X023058Y012607D01*
X023058Y012448D02*
X024465Y012448D01*
X024420Y012290D02*
X023058Y012290D01*
X023058Y012131D02*
X024261Y012131D01*
X024103Y011973D02*
X023058Y011973D01*
X023058Y011814D02*
X023944Y011814D01*
X023786Y011656D02*
X023058Y011656D01*
X023058Y011497D02*
X023627Y011497D01*
X023469Y011339D02*
X023058Y011339D01*
X023058Y011180D02*
X023465Y011180D01*
X023465Y011022D02*
X023185Y011022D01*
X023343Y010863D02*
X023465Y010863D01*
X023905Y010863D02*
X023931Y010863D01*
X023905Y011022D02*
X024012Y011022D01*
X023933Y011180D02*
X025268Y011180D01*
X025273Y011173D02*
X025343Y011103D01*
X025424Y011044D01*
X025513Y010999D01*
X025607Y010968D01*
X025676Y010957D01*
X025676Y011506D01*
X025836Y011506D01*
X025836Y011666D01*
X026385Y011666D01*
X026374Y011734D01*
X026343Y011829D01*
X026298Y011918D01*
X026239Y011999D01*
X026169Y012069D01*
X026088Y012128D01*
X025999Y012173D01*
X025904Y012204D01*
X025836Y012215D01*
X025836Y011666D01*
X025676Y011666D01*
X025676Y012215D01*
X025607Y012204D01*
X025513Y012173D01*
X025424Y012128D01*
X025343Y012069D01*
X025273Y011999D01*
X025214Y011918D01*
X025169Y011829D01*
X025138Y011734D01*
X025127Y011666D01*
X025676Y011666D01*
X025676Y011506D01*
X025127Y011506D01*
X025138Y011438D01*
X025169Y011343D01*
X025214Y011254D01*
X025273Y011173D01*
X025171Y011339D02*
X024091Y011339D01*
X024250Y011497D02*
X025128Y011497D01*
X025164Y011814D02*
X024567Y011814D01*
X024725Y011973D02*
X025253Y011973D01*
X025430Y012131D02*
X024884Y012131D01*
X024905Y012290D02*
X028251Y012290D01*
X028251Y012448D02*
X024905Y012448D01*
X024905Y012607D02*
X028251Y012607D01*
X028251Y012765D02*
X024905Y012765D01*
X024905Y012924D02*
X028251Y012924D01*
X028251Y013082D02*
X024905Y013082D01*
X025742Y013241D02*
X028251Y013241D01*
X028251Y013399D02*
X025758Y013399D01*
X025676Y012131D02*
X025836Y012131D01*
X025836Y011973D02*
X025676Y011973D01*
X025676Y011814D02*
X025836Y011814D01*
X025836Y011656D02*
X026579Y011656D01*
X026408Y011585D02*
X026329Y011506D01*
X025836Y011506D01*
X025836Y010957D01*
X025904Y010968D01*
X025999Y010999D01*
X026007Y011003D01*
X025988Y010956D01*
X025988Y010570D01*
X026135Y010214D01*
X026408Y009942D01*
X026764Y009794D01*
X027149Y009794D01*
X027506Y009942D01*
X027778Y010214D01*
X027926Y010570D01*
X027926Y010956D01*
X027778Y011312D01*
X027506Y011585D01*
X027149Y011732D01*
X026764Y011732D01*
X026408Y011585D01*
X026348Y011814D02*
X028251Y011814D01*
X028251Y011656D02*
X027334Y011656D01*
X027593Y011497D02*
X028251Y011497D01*
X028251Y011339D02*
X027752Y011339D01*
X027833Y011180D02*
X028251Y011180D01*
X028251Y011022D02*
X027898Y011022D01*
X027926Y010863D02*
X028251Y010863D01*
X028251Y010705D02*
X027926Y010705D01*
X027916Y010546D02*
X028251Y010546D01*
X028251Y010388D02*
X027850Y010388D01*
X027784Y010229D02*
X028251Y010229D01*
X028251Y010071D02*
X027634Y010071D01*
X027434Y009912D02*
X028251Y009912D01*
X028251Y009754D02*
X024732Y009754D01*
X024701Y009912D02*
X026480Y009912D01*
X026279Y010071D02*
X024585Y010071D01*
X024495Y010369D02*
X024553Y010399D01*
X024606Y010437D01*
X024653Y010484D01*
X024691Y010537D01*
X024721Y010595D01*
X024742Y010658D01*
X024752Y010722D01*
X024752Y010747D01*
X024343Y010747D01*
X024343Y010338D01*
X024367Y010338D01*
X024432Y010348D01*
X024495Y010369D01*
X024532Y010388D02*
X026063Y010388D01*
X025998Y010546D02*
X024696Y010546D01*
X024749Y010705D02*
X025988Y010705D01*
X025988Y010863D02*
X024738Y010863D01*
X024742Y010853D02*
X024721Y010915D01*
X024691Y010974D01*
X024653Y011027D01*
X024606Y011074D01*
X024553Y011112D01*
X024495Y011142D01*
X024432Y011162D01*
X024367Y011172D01*
X024343Y011172D01*
X024343Y010764D01*
X024752Y010764D01*
X024752Y010788D01*
X024742Y010853D01*
X024657Y011022D02*
X025468Y011022D01*
X025676Y011022D02*
X025836Y011022D01*
X025836Y011180D02*
X025676Y011180D01*
X025676Y011339D02*
X025836Y011339D01*
X025836Y011497D02*
X025676Y011497D01*
X025676Y011656D02*
X024408Y011656D01*
X024343Y011022D02*
X024326Y011022D01*
X024326Y010863D02*
X024343Y010863D01*
X024326Y010705D02*
X024343Y010705D01*
X024326Y010546D02*
X024343Y010546D01*
X024326Y010388D02*
X024343Y010388D01*
X024138Y010388D02*
X024082Y010388D01*
X024082Y010229D02*
X026129Y010229D01*
X024696Y009595D02*
X028251Y009595D01*
X028251Y009437D02*
X024574Y009437D01*
X024334Y009278D02*
X028251Y009278D01*
X028251Y009120D02*
X024503Y009120D01*
X024681Y008961D02*
X028251Y008961D01*
X028251Y008803D02*
X027964Y008803D01*
X028122Y008644D02*
X028251Y008644D01*
X027749Y008169D02*
X023727Y008169D01*
X023732Y008327D02*
X026725Y008327D01*
X026616Y008486D02*
X024623Y008486D01*
X024335Y008759D02*
X024256Y009063D01*
X023861Y009348D01*
X023801Y009120D02*
X023728Y009120D01*
X023626Y008961D02*
X023988Y008961D01*
X023937Y008803D02*
X021794Y008803D01*
X021794Y008644D02*
X023226Y008644D01*
X023444Y008644D02*
X023952Y008644D01*
X024047Y008486D02*
X023670Y008486D01*
X023647Y008010D02*
X024024Y008010D01*
X024335Y007759D02*
X021500Y007759D01*
X021051Y007310D01*
X020983Y007852D02*
X021281Y007852D01*
X021216Y008010D02*
X023022Y008010D01*
X022942Y008169D02*
X021448Y008169D01*
X021692Y008327D02*
X022937Y008327D01*
X022999Y008486D02*
X021794Y008486D01*
X023185Y007244D02*
X023335Y007259D01*
X023185Y007244D02*
X022975Y006719D01*
X022185Y006744D01*
X021354Y006259D02*
X021051Y006562D01*
X020778Y006072D01*
X020778Y004534D01*
X021405Y004523D02*
X022206Y004523D01*
X022206Y004365D02*
X021927Y004365D01*
X021914Y004396D02*
X021955Y004297D01*
X021955Y004190D01*
X021914Y004091D01*
X021905Y004082D01*
X021905Y003769D01*
X022192Y003769D01*
X022206Y003755D01*
X022206Y004931D01*
X022547Y005272D01*
X022659Y005383D01*
X023202Y005383D01*
X023806Y005952D01*
X023807Y006411D01*
X023710Y006591D01*
X023674Y006627D01*
X023674Y006658D01*
X023660Y006685D01*
X023674Y006734D01*
X023674Y007041D01*
X023671Y007034D01*
X023560Y006923D01*
X023414Y006862D01*
X023269Y006862D01*
X023194Y006674D01*
X023192Y006630D01*
X023256Y006656D01*
X023414Y006656D01*
X023560Y006596D01*
X023671Y006484D01*
X023732Y006338D01*
X023732Y006180D01*
X023671Y006034D01*
X023560Y005923D01*
X023414Y005862D01*
X023256Y005862D01*
X023110Y005923D01*
X022998Y006034D01*
X022996Y006039D01*
X021263Y006039D01*
X021136Y006166D01*
X021083Y006166D01*
X020998Y006015D01*
X020998Y005939D01*
X021032Y005972D01*
X021131Y006014D01*
X021239Y006014D01*
X021338Y005972D01*
X021414Y005896D01*
X021455Y005797D01*
X021455Y005690D01*
X021414Y005591D01*
X021405Y005582D01*
X021405Y003689D01*
X021465Y003749D01*
X021465Y004082D01*
X021456Y004091D01*
X021415Y004190D01*
X021415Y004297D01*
X021456Y004396D01*
X021532Y004472D01*
X021631Y004514D01*
X021739Y004514D01*
X021838Y004472D01*
X021914Y004396D01*
X021685Y004244D02*
X021685Y003244D01*
X021403Y003255D02*
X021262Y003255D01*
X021262Y003414D02*
X021403Y003414D01*
X021403Y003572D02*
X021325Y003572D01*
X021405Y003731D02*
X021446Y003731D01*
X021465Y003889D02*
X021405Y003889D01*
X021405Y004048D02*
X021465Y004048D01*
X021415Y004206D02*
X021405Y004206D01*
X021405Y004365D02*
X021443Y004365D01*
X021405Y004682D02*
X022206Y004682D01*
X022206Y004840D02*
X021405Y004840D01*
X021405Y004999D02*
X022274Y004999D01*
X022433Y005157D02*
X021405Y005157D01*
X021405Y005316D02*
X022591Y005316D01*
X022812Y004999D02*
X023915Y004999D01*
X023915Y005157D02*
X023516Y005157D01*
X023684Y005316D02*
X023915Y005316D01*
X023915Y005474D02*
X023853Y005474D01*
X023467Y005633D02*
X021431Y005633D01*
X021455Y005791D02*
X023635Y005791D01*
X023587Y005950D02*
X023803Y005950D01*
X023806Y006108D02*
X023702Y006108D01*
X023732Y006267D02*
X023807Y006267D01*
X023800Y006425D02*
X023696Y006425D01*
X023714Y006584D02*
X023572Y006584D01*
X023674Y006742D02*
X023221Y006742D01*
X023506Y006901D02*
X023674Y006901D01*
X024054Y007059D02*
X024073Y007059D01*
X024054Y007218D02*
X026738Y007218D01*
X027175Y007218D02*
X027798Y007218D01*
X027798Y007376D02*
X024447Y007376D01*
X024222Y007376D02*
X024163Y007376D01*
X024671Y007535D02*
X027798Y007535D01*
X027798Y007693D02*
X024732Y007693D01*
X024726Y007852D02*
X027798Y007852D01*
X027798Y008010D02*
X024646Y008010D01*
X024597Y007059D02*
X026386Y007059D01*
X026228Y006901D02*
X024706Y006901D01*
X024732Y006742D02*
X026108Y006742D01*
X026042Y006584D02*
X024692Y006584D01*
X024562Y006425D02*
X025988Y006425D01*
X025988Y006267D02*
X024555Y006267D01*
X024555Y006108D02*
X025988Y006108D01*
X025828Y005950D02*
X025668Y005950D01*
X025668Y005791D02*
X025828Y005791D01*
X025828Y005633D02*
X025668Y005633D01*
X025668Y005474D02*
X024555Y005474D01*
X024555Y005316D02*
X025121Y005316D01*
X025165Y005157D02*
X024555Y005157D01*
X024555Y004999D02*
X025263Y004999D01*
X025469Y004840D02*
X024555Y004840D01*
X024555Y004682D02*
X027798Y004682D01*
X027798Y004840D02*
X026027Y004840D01*
X025991Y004822D02*
X026080Y004867D01*
X026161Y004925D01*
X026231Y004996D01*
X026290Y005077D01*
X026335Y005166D01*
X026366Y005260D01*
X026377Y005329D01*
X025828Y005329D01*
X025828Y004780D01*
X025896Y004791D01*
X025991Y004822D01*
X025828Y004840D02*
X025668Y004840D01*
X025668Y004999D02*
X025828Y004999D01*
X025828Y005157D02*
X025668Y005157D01*
X025668Y005316D02*
X025828Y005316D01*
X025828Y005474D02*
X026372Y005474D01*
X026375Y005316D02*
X026703Y005316D01*
X026331Y005157D02*
X027798Y005157D01*
X027798Y004999D02*
X026233Y004999D01*
X027210Y005316D02*
X027798Y005316D01*
X027798Y005474D02*
X027542Y005474D01*
X027700Y005633D02*
X027798Y005633D01*
X027798Y004523D02*
X024555Y004523D01*
X024555Y004365D02*
X025667Y004365D01*
X025424Y004206D02*
X024555Y004206D01*
X024555Y004048D02*
X025342Y004048D01*
X025278Y003925D02*
X025278Y003925D01*
X025192Y003889D02*
X024555Y003889D01*
X025006Y003731D02*
X025058Y003731D01*
X025049Y003543D02*
X025085Y003457D01*
X025169Y003373D01*
X025278Y003328D01*
X025397Y003328D01*
X025507Y003373D01*
X025591Y003457D01*
X025636Y003567D01*
X025636Y003686D01*
X025612Y003743D01*
X025667Y003849D01*
X025667Y003757D01*
X025688Y003737D01*
X025667Y003716D01*
X025667Y003099D01*
X025667Y003099D01*
X025667Y002471D01*
X025688Y002450D01*
X025672Y002434D01*
X025448Y002434D01*
X025366Y002515D01*
X025249Y002564D01*
X025121Y002564D01*
X025049Y002534D01*
X025049Y002939D01*
X024989Y002999D01*
X025049Y003060D01*
X025049Y003543D01*
X025049Y003414D02*
X025129Y003414D01*
X025049Y003255D02*
X025667Y003255D01*
X025667Y003097D02*
X025049Y003097D01*
X025049Y002938D02*
X025667Y002938D01*
X025667Y002780D02*
X025049Y002780D01*
X025049Y002621D02*
X025667Y002621D01*
X025675Y002463D02*
X025419Y002463D01*
X024879Y002146D02*
X020850Y002146D01*
X021192Y002304D02*
X021411Y002304D01*
X021403Y002463D02*
X021262Y002463D01*
X021262Y002621D02*
X021403Y002621D01*
X021403Y002780D02*
X021262Y002780D01*
X021262Y002938D02*
X021403Y002938D01*
X021403Y003097D02*
X021236Y003097D01*
X020807Y002688D02*
X020468Y002682D01*
X020218Y002899D01*
X020214Y003068D01*
X020219Y004911D01*
X020542Y005169D01*
X020542Y005675D01*
X020998Y005950D02*
X021009Y005950D01*
X021050Y006108D02*
X021194Y006108D01*
X021354Y006259D02*
X023335Y006259D01*
X023083Y005950D02*
X021361Y005950D01*
X021185Y005744D02*
X021185Y003744D01*
X021905Y003889D02*
X022206Y003889D01*
X022206Y004048D02*
X021905Y004048D01*
X021955Y004206D02*
X022206Y004206D01*
X022586Y004206D02*
X023915Y004206D01*
X023915Y004048D02*
X022586Y004048D01*
X022586Y003889D02*
X023829Y003889D01*
X023461Y003731D02*
X023365Y003731D01*
X023365Y003789D02*
X023097Y003789D01*
X023056Y003778D01*
X023020Y003757D01*
X022990Y003728D01*
X022969Y003691D01*
X022958Y003650D01*
X022958Y003421D01*
X023365Y003421D01*
X023365Y003789D01*
X023365Y003572D02*
X023461Y003572D01*
X023365Y003414D02*
X022586Y003414D01*
X022586Y003572D02*
X022958Y003572D01*
X022993Y003731D02*
X022586Y003731D01*
X022586Y003255D02*
X022958Y003255D01*
X022958Y003097D02*
X022586Y003097D01*
X022586Y002938D02*
X022978Y002938D01*
X022978Y002780D02*
X022586Y002780D01*
X022440Y002621D02*
X022978Y002621D01*
X022978Y002463D02*
X022281Y002463D01*
X022266Y002304D02*
X022986Y002304D01*
X023413Y002625D02*
X024594Y002625D01*
X024147Y002304D02*
X023841Y002304D01*
X024989Y001987D02*
X021790Y001987D01*
X021794Y001974D02*
X021783Y002015D01*
X021762Y002051D01*
X021732Y002081D01*
X021696Y002102D01*
X021655Y002113D01*
X021426Y002113D01*
X021426Y001706D01*
X021794Y001706D01*
X021794Y001974D01*
X021794Y001829D02*
X025667Y001829D01*
X025667Y001987D02*
X025381Y001987D01*
X026538Y001987D02*
X027798Y001987D01*
X027798Y001829D02*
X026538Y001829D01*
X026538Y002146D02*
X027798Y002146D01*
X027798Y002304D02*
X026538Y002304D01*
X026530Y002463D02*
X027798Y002463D01*
X027798Y002621D02*
X026538Y002621D01*
X026538Y002780D02*
X027798Y002780D01*
X027798Y002938D02*
X026538Y002938D01*
X027416Y003097D02*
X027798Y003097D01*
X027798Y003255D02*
X027455Y003255D01*
X027397Y003414D02*
X027798Y003414D01*
X027798Y003572D02*
X026538Y003572D01*
X026523Y003731D02*
X027798Y003731D01*
X027798Y003889D02*
X026538Y003889D01*
X026538Y004048D02*
X027798Y004048D01*
X027798Y004206D02*
X026538Y004206D01*
X026538Y004365D02*
X027798Y004365D01*
X025682Y003731D02*
X025618Y003731D01*
X025636Y003572D02*
X025667Y003572D01*
X025667Y003414D02*
X025547Y003414D01*
X024594Y003373D02*
X024335Y003633D01*
X024335Y006759D01*
X024555Y005950D02*
X025414Y005950D01*
X025242Y005791D02*
X024555Y005791D01*
X024555Y005633D02*
X025154Y005633D01*
X023915Y004840D02*
X022653Y004840D01*
X022586Y004682D02*
X023915Y004682D01*
X023915Y004523D02*
X022586Y004523D01*
X022586Y004365D02*
X023915Y004365D01*
X023415Y004455D02*
X023372Y004411D01*
X023413Y004453D02*
X023415Y004455D01*
X023298Y005474D02*
X021405Y005474D01*
X019999Y004999D02*
X019904Y004999D01*
X019947Y004840D02*
X019994Y004840D01*
X019998Y004682D02*
X019947Y004682D01*
X019947Y004523D02*
X019997Y004523D01*
X019394Y004206D02*
X019234Y004206D01*
X019234Y004048D02*
X019394Y004048D01*
X019394Y003889D02*
X019234Y003889D01*
X018682Y004048D02*
X018659Y004048D01*
X018643Y004206D02*
X018682Y004206D01*
X017896Y004429D02*
X017685Y004244D01*
X015823Y005157D02*
X015663Y005157D01*
X015663Y005316D02*
X015823Y005316D01*
X015823Y005474D02*
X015663Y005474D01*
X015663Y005633D02*
X015823Y005633D01*
X013963Y006491D02*
X013867Y006491D01*
X013867Y006898D01*
X013638Y006898D01*
X013597Y006887D01*
X013561Y006866D01*
X013531Y006836D01*
X013528Y006831D01*
X013481Y006878D01*
X012853Y006878D01*
X012771Y006796D01*
X012771Y006643D01*
X012669Y006643D01*
X012385Y006926D01*
X012385Y007018D01*
X012533Y007018D01*
X012615Y007100D01*
X012615Y007631D01*
X012666Y007580D01*
X012666Y007139D01*
X012748Y007057D01*
X013415Y007057D01*
X013497Y007139D01*
X013497Y007727D01*
X013448Y007776D01*
X013479Y007793D01*
X013508Y007823D01*
X013529Y007859D01*
X013532Y007868D01*
X013532Y007863D01*
X013589Y007806D01*
X013573Y007797D01*
X013544Y007767D01*
X013523Y007731D01*
X013512Y007690D01*
X013512Y007471D01*
X013909Y007471D01*
X013909Y007395D01*
X013512Y007395D01*
X013512Y007176D01*
X013523Y007135D01*
X013544Y007098D01*
X013573Y007069D01*
X013610Y007048D01*
X013651Y007037D01*
X013909Y007037D01*
X013909Y007395D01*
X013985Y007395D01*
X013985Y007037D01*
X014244Y007037D01*
X014285Y007048D01*
X014285Y006850D01*
X014269Y006866D01*
X014233Y006887D01*
X014192Y006898D01*
X013963Y006898D01*
X013963Y006491D01*
X013963Y006584D02*
X013867Y006584D01*
X013867Y006742D02*
X013963Y006742D01*
X014285Y006901D02*
X012411Y006901D01*
X012569Y006742D02*
X012771Y006742D01*
X012745Y007059D02*
X012574Y007059D01*
X012615Y007218D02*
X012666Y007218D01*
X012666Y007376D02*
X012615Y007376D01*
X012615Y007535D02*
X012666Y007535D01*
X013497Y007535D02*
X013512Y007535D01*
X013497Y007693D02*
X013512Y007693D01*
X013525Y007852D02*
X013543Y007852D01*
X013532Y008119D02*
X013143Y008119D01*
X013143Y008195D01*
X013532Y008195D01*
X013532Y008119D01*
X013532Y008169D02*
X013143Y008169D01*
X013143Y008195D02*
X013067Y008195D01*
X013067Y008119D01*
X012692Y008119D01*
X012615Y008197D01*
X012615Y008476D01*
X012612Y008478D01*
X012634Y008509D01*
X012675Y008542D01*
X012677Y008571D01*
X012694Y008594D01*
X012685Y008646D01*
X012700Y008807D01*
X012906Y008805D01*
X012906Y008636D01*
X012988Y008554D01*
X013616Y008554D01*
X013663Y008601D01*
X013666Y008596D01*
X013696Y008566D01*
X013733Y008545D01*
X013773Y008534D01*
X014002Y008534D01*
X014002Y008941D01*
X014098Y008941D01*
X014098Y008534D01*
X014327Y008534D01*
X014368Y008545D01*
X014404Y008566D01*
X014434Y008596D01*
X014455Y008632D01*
X014466Y008673D01*
X014466Y008941D01*
X014098Y008941D01*
X014098Y009037D01*
X014466Y009037D01*
X014466Y009306D01*
X014460Y009328D01*
X014656Y009222D01*
X014692Y009186D01*
X014723Y009186D01*
X014750Y009171D01*
X014799Y009186D01*
X014900Y009186D01*
X014816Y009158D01*
X014804Y009158D01*
X014760Y009140D01*
X014714Y009125D01*
X014705Y009117D01*
X014694Y009113D01*
X014660Y009079D01*
X014624Y009047D01*
X014618Y009037D01*
X014610Y009028D01*
X014591Y008984D01*
X014570Y008941D01*
X014569Y008929D01*
X014564Y008918D01*
X014564Y008870D01*
X014560Y008822D01*
X014564Y008811D01*
X014564Y008248D01*
X014454Y008357D01*
X014363Y008357D01*
X014363Y008452D01*
X014281Y008534D01*
X013614Y008534D01*
X013532Y008452D01*
X013532Y008447D01*
X013529Y008455D01*
X013508Y008492D01*
X013479Y008522D01*
X013442Y008543D01*
X013401Y008554D01*
X013143Y008554D01*
X013143Y008195D01*
X013067Y008195D02*
X013067Y008554D01*
X012808Y008554D01*
X012767Y008543D01*
X012731Y008522D01*
X012701Y008492D01*
X012680Y008455D01*
X012669Y008415D01*
X012669Y008195D01*
X013067Y008195D01*
X013067Y008169D02*
X012643Y008169D01*
X012615Y008327D02*
X012669Y008327D01*
X012697Y008486D02*
X012618Y008486D01*
X012685Y008644D02*
X012906Y008644D01*
X012906Y008803D02*
X012699Y008803D01*
X013067Y008486D02*
X013143Y008486D01*
X013143Y008327D02*
X013067Y008327D01*
X013512Y008486D02*
X013566Y008486D01*
X014002Y008644D02*
X014098Y008644D01*
X014098Y008803D02*
X014002Y008803D01*
X014002Y008941D02*
X013698Y008941D01*
X013698Y009037D01*
X014002Y009037D01*
X014002Y008941D01*
X014002Y008961D02*
X013698Y008961D01*
X014098Y008961D02*
X014580Y008961D01*
X014564Y008803D02*
X014466Y008803D01*
X014458Y008644D02*
X014564Y008644D01*
X014564Y008486D02*
X014329Y008486D01*
X014484Y008327D02*
X014564Y008327D01*
X015744Y008051D02*
X015744Y007809D01*
X014285Y007048D02*
X014285Y007048D01*
X013985Y007059D02*
X013909Y007059D01*
X013909Y007218D02*
X013985Y007218D01*
X013985Y007376D02*
X013909Y007376D01*
X013512Y007376D02*
X013497Y007376D01*
X013497Y007218D02*
X013512Y007218D01*
X013590Y007059D02*
X013417Y007059D01*
X009869Y008291D02*
X009798Y008291D01*
X009796Y008291D01*
X009869Y008291D01*
X009088Y008169D02*
X009068Y008169D01*
X008787Y008169D02*
X008510Y008169D01*
X008449Y008327D02*
X008416Y008327D01*
X008609Y008010D02*
X008649Y008010D01*
X004313Y008392D02*
X003922Y008392D01*
X003922Y008488D01*
X004251Y008488D01*
X004313Y008392D01*
X004253Y008486D02*
X003922Y008486D01*
X003826Y008486D02*
X003103Y008486D01*
X003000Y008389D02*
X003469Y008829D01*
X003489Y008829D01*
X003480Y008824D01*
X003450Y008794D01*
X003429Y008758D01*
X003418Y008717D01*
X003418Y008488D01*
X003826Y008488D01*
X003826Y008392D01*
X003418Y008392D01*
X003418Y008163D01*
X003429Y008123D01*
X003450Y008086D01*
X003480Y008056D01*
X003486Y008053D01*
X003438Y008006D01*
X003438Y007460D01*
X003424Y007460D01*
X003345Y007558D01*
X003265Y007685D01*
X003267Y007695D01*
X003224Y007751D01*
X003187Y007810D01*
X003177Y007812D01*
X003136Y007865D01*
X003130Y007899D01*
X003090Y007925D01*
X003061Y007963D01*
X003027Y007967D01*
X003017Y007974D01*
X003017Y008182D01*
X002863Y008336D01*
X002865Y008336D01*
X002941Y008333D01*
X002943Y008335D01*
X002946Y008335D01*
X003000Y008389D01*
X002872Y008327D02*
X003418Y008327D01*
X003418Y008169D02*
X003017Y008169D01*
X003017Y008010D02*
X003442Y008010D01*
X003438Y007852D02*
X003147Y007852D01*
X003267Y007693D02*
X003438Y007693D01*
X003438Y007535D02*
X003364Y007535D01*
X002252Y007218D02*
X001981Y007218D01*
X001988Y007376D02*
X001823Y007376D01*
X001920Y007444D02*
X001920Y007444D01*
X001830Y007535D02*
X001141Y007535D01*
X001141Y007693D02*
X001374Y007693D01*
X001217Y007852D02*
X001141Y007852D01*
X001141Y008010D02*
X001217Y008010D01*
X001217Y008169D02*
X001141Y008169D01*
X001141Y008327D02*
X001362Y008327D01*
X001141Y008486D02*
X001845Y008486D01*
X001872Y008327D02*
X002362Y008327D01*
X002217Y008169D02*
X002017Y008169D01*
X002017Y008010D02*
X002217Y008010D01*
X002217Y007852D02*
X002050Y007852D01*
X001411Y007376D02*
X001141Y007376D01*
X001141Y007218D02*
X001252Y007218D01*
X001217Y007059D02*
X001141Y007059D01*
X001141Y006901D02*
X001217Y006901D01*
X001141Y006742D02*
X001325Y006742D01*
X001141Y006584D02*
X001781Y006584D01*
X002017Y006901D02*
X002217Y006901D01*
X002217Y007059D02*
X002017Y007059D01*
X002160Y006742D02*
X002325Y006742D01*
X001217Y005157D02*
X001141Y005157D01*
X001141Y004999D02*
X001217Y004999D01*
X001227Y004840D02*
X001141Y004840D01*
X001141Y004682D02*
X001386Y004682D01*
X002607Y003414D02*
X002627Y003414D01*
X002627Y003255D02*
X002607Y003255D01*
X002607Y003097D02*
X002627Y003097D01*
X004751Y003414D02*
X004867Y003414D01*
X004867Y003572D02*
X004751Y003572D01*
X004751Y003731D02*
X004867Y003731D01*
X000942Y001036D02*
X000465Y001036D01*
X010620Y001036D02*
X010795Y001036D01*
X012178Y004365D02*
X012295Y004365D01*
X012137Y004523D02*
X012112Y004523D01*
X017352Y001987D02*
X017492Y001987D01*
X017464Y001975D02*
X017374Y001885D01*
X017326Y001768D01*
X017326Y001640D01*
X017374Y001523D01*
X017464Y001433D01*
X017582Y001384D01*
X017709Y001384D01*
X017779Y001413D01*
X018011Y001430D01*
X018011Y001286D01*
X018093Y001204D01*
X018721Y001204D01*
X018768Y001251D01*
X018771Y001245D01*
X018801Y001215D01*
X018837Y001194D01*
X018837Y001195D02*
X016903Y001195D01*
X016890Y001353D02*
X018011Y001353D01*
X017386Y001512D02*
X017116Y001512D01*
X017194Y001670D02*
X017326Y001670D01*
X017351Y001829D02*
X017273Y001829D01*
X017464Y001975D02*
X017582Y002024D01*
X017709Y002024D01*
X017739Y002012D01*
X018011Y002032D01*
X018093Y002113D01*
X018721Y002113D01*
X018768Y002066D01*
X018771Y002072D01*
X018801Y002101D01*
X018837Y002123D01*
X018878Y002133D01*
X019107Y002133D01*
X019107Y001706D01*
X019203Y001706D01*
X019571Y001706D01*
X019571Y001994D01*
X019560Y002035D01*
X019539Y002072D01*
X019509Y002101D01*
X019473Y002123D01*
X019432Y002133D01*
X019203Y002133D01*
X019203Y001706D01*
X019203Y001611D01*
X019571Y001611D01*
X019571Y001322D01*
X019560Y001282D01*
X019539Y001245D01*
X019509Y001215D01*
X019473Y001194D01*
X019432Y001184D01*
X019203Y001184D01*
X019203Y001611D01*
X019107Y001611D01*
X019107Y001184D01*
X018878Y001184D01*
X018837Y001194D01*
X019107Y001195D02*
X019203Y001195D01*
X019203Y001353D02*
X019107Y001353D01*
X019107Y001512D02*
X019203Y001512D01*
X019155Y001632D02*
X019155Y001658D01*
X019203Y001670D02*
X020234Y001670D01*
X020234Y001512D02*
X019571Y001512D01*
X019571Y001353D02*
X020234Y001353D01*
X020630Y001658D02*
X020630Y002511D01*
X020807Y002688D01*
X020352Y002463D02*
X019119Y002463D01*
X019214Y002621D02*
X020203Y002621D01*
X020021Y002780D02*
X019526Y002780D01*
X019526Y002938D02*
X019995Y002938D01*
X020410Y002304D02*
X019025Y002304D01*
X018803Y002146D02*
X020410Y002146D01*
X020234Y001987D02*
X019571Y001987D01*
X019571Y001829D02*
X020234Y001829D01*
X019473Y001195D02*
X027455Y001195D01*
X027578Y001353D02*
X021794Y001353D01*
X021794Y001341D02*
X021794Y001610D01*
X021426Y001610D01*
X021426Y001202D01*
X021655Y001202D01*
X021696Y001213D01*
X021732Y001234D01*
X021762Y001264D01*
X021783Y001301D01*
X021794Y001341D01*
X021794Y001512D02*
X027701Y001512D01*
X027798Y001670D02*
X021426Y001670D01*
X021378Y001658D02*
X021431Y001605D01*
X021431Y001348D01*
X021426Y001353D02*
X021330Y001353D01*
X021330Y001512D02*
X021426Y001512D01*
X021426Y001829D02*
X021330Y001829D01*
X021330Y001987D02*
X021426Y001987D01*
X019203Y001987D02*
X019107Y001987D01*
X019107Y001829D02*
X019203Y001829D01*
X018791Y002146D02*
X017478Y002146D01*
X017642Y003130D02*
X017719Y003142D01*
X016903Y001036D02*
X027333Y001036D01*
X019685Y006244D02*
X019185Y006744D01*
X019185Y007744D01*
X014708Y009120D02*
X014466Y009120D01*
X014466Y009278D02*
X014552Y009278D01*
X015976Y010297D02*
X016002Y010271D01*
X017408Y010229D02*
X017504Y010229D01*
X017504Y010388D02*
X017408Y010388D01*
X017456Y011337D02*
X017660Y011541D01*
X014032Y012607D02*
X013695Y012607D01*
X013700Y012448D02*
X013747Y012448D01*
X018768Y013588D02*
X018775Y013581D01*
X024082Y010071D02*
X024084Y010071D01*
X026258Y011973D02*
X028251Y011973D01*
X028251Y012131D02*
X026082Y012131D01*
X027527Y007059D02*
X027798Y007059D01*
X027798Y006901D02*
X027686Y006901D01*
X003459Y008803D02*
X003440Y008803D01*
X003418Y008644D02*
X003271Y008644D01*
X002265Y008803D02*
X002070Y008803D01*
X002017Y008961D02*
X002217Y008961D01*
X002217Y009120D02*
X002017Y009120D01*
X001921Y009278D02*
X002313Y009278D01*
X001313Y009278D02*
X001141Y009278D01*
X001141Y009120D02*
X001217Y009120D01*
X001217Y008961D02*
X001141Y008961D01*
X001141Y008803D02*
X001265Y008803D01*
X001141Y008644D02*
X001423Y008644D01*
D32*
X003774Y007780D02*
X003874Y007692D01*
X003774Y007780D02*
X004141Y007780D01*
X004258Y007897D01*
X004984Y007897D01*
X004984Y007700D02*
X004986Y007698D01*
X005744Y007698D01*
X005927Y007515D01*
X005947Y006929D01*
X005470Y006226D01*
X005470Y002116D01*
X005982Y001439D01*
X008727Y001436D01*
X008716Y001432D01*
X008814Y001385D01*
X009008Y001191D01*
X010492Y001191D01*
X010629Y001328D01*
X011246Y001328D01*
X011250Y001333D01*
X011250Y001346D01*
X011345Y001153D01*
X012708Y001164D01*
X012708Y001664D02*
X011856Y001670D01*
X011627Y002059D01*
X011286Y002059D01*
X011250Y002094D01*
X011747Y002490D02*
X012018Y002149D01*
X012580Y002149D01*
X012708Y002164D01*
X012708Y002664D02*
X012184Y002702D01*
X011979Y003040D01*
X011975Y004368D01*
X011770Y004677D01*
X011151Y004677D01*
X010819Y005262D01*
X010820Y006811D01*
X011062Y006886D01*
X011006Y007248D02*
X010696Y007115D01*
X009472Y007110D01*
X009477Y007302D02*
X009472Y007306D01*
X009477Y007302D02*
X010354Y007306D01*
X010438Y007378D01*
X010558Y007445D01*
X010160Y007712D02*
X010146Y007897D01*
X009472Y007897D01*
X009472Y007700D02*
X009098Y007700D01*
X008928Y007904D01*
X008856Y007503D02*
X008212Y008109D01*
X008701Y008497D02*
X008710Y008488D01*
X009472Y008488D01*
X009472Y008291D02*
X010389Y008291D01*
X010549Y008452D01*
X010549Y008781D01*
X010546Y008784D01*
X010710Y009227D02*
X010108Y009221D01*
X009897Y009078D01*
X009472Y009078D01*
X009472Y008881D02*
X009017Y008888D01*
X009017Y009080D01*
X008382Y009071D01*
X008203Y008878D01*
X006483Y008881D01*
X006305Y009162D01*
X005968Y009633D02*
X005459Y010163D01*
X005399Y010163D01*
X004994Y010568D01*
X004246Y010568D02*
X004068Y010568D01*
X003665Y010971D01*
X003665Y011518D01*
X003764Y011441D01*
X006207Y012490D02*
X006205Y012950D01*
X006345Y012960D01*
X006207Y012490D02*
X006376Y012321D01*
X006376Y012308D01*
X006843Y012465D02*
X006725Y011902D01*
X007059Y012032D02*
X007059Y013087D01*
X007136Y013203D01*
X007506Y013203D01*
X007527Y013224D01*
X007130Y013848D02*
X006843Y013561D01*
X006843Y012465D01*
X007327Y012276D02*
X008185Y012276D01*
X008382Y012473D01*
X008419Y012436D01*
X008382Y012473D02*
X008364Y012456D01*
X008364Y012054D01*
X008238Y011927D01*
X007523Y011927D01*
X007520Y011602D01*
X007520Y010294D01*
X007524Y010311D01*
X007524Y010436D01*
X007718Y010454D02*
X007720Y010436D01*
X007718Y010454D02*
X007718Y011507D01*
X007721Y011699D01*
X008188Y011688D01*
X008480Y011776D01*
X008472Y011774D01*
X008677Y011780D01*
X008798Y011998D01*
X008835Y012085D01*
X008833Y013132D01*
X008774Y013221D01*
X008685Y013221D01*
X008654Y013221D01*
X008691Y013184D01*
X008654Y013221D02*
X008382Y013221D01*
X008966Y013848D02*
X007130Y013848D01*
X006595Y014517D02*
X006247Y014208D01*
X005683Y014208D01*
X005461Y013908D01*
X005464Y013905D01*
X005460Y013221D01*
X005597Y012960D01*
X007059Y012032D02*
X007130Y011933D01*
X007130Y010436D01*
X007327Y010436D02*
X007327Y012276D01*
X007527Y012476D01*
X009471Y013184D02*
X009515Y013140D01*
X009831Y013140D01*
X009914Y013005D01*
X009914Y012069D01*
X009921Y011967D01*
X009714Y011715D01*
X009427Y011333D01*
X009426Y010958D01*
X009434Y010966D01*
X009419Y010966D01*
X009419Y010941D01*
X009375Y010930D01*
X008697Y010729D01*
X008705Y010436D01*
X008910Y010565D02*
X008904Y009982D01*
X008008Y009982D01*
X007911Y010094D01*
X007911Y010430D01*
X007917Y010436D01*
X008910Y010565D02*
X009925Y010873D01*
X010208Y010013D02*
X011521Y010013D01*
X011524Y010011D01*
X012272Y010011D02*
X012284Y009998D01*
X012284Y009650D01*
X010773Y009239D01*
X010710Y009227D01*
X011294Y008784D02*
X011296Y008783D01*
X012098Y008687D01*
X012160Y008162D02*
X012142Y008144D01*
X011485Y007927D01*
X011447Y007433D02*
X012130Y007444D01*
X012160Y007414D01*
X012185Y007388D01*
X012185Y006844D01*
X012586Y006443D01*
X013167Y006443D01*
X013185Y006425D01*
X013185Y006044D01*
X013290Y006005D01*
X014390Y006005D01*
X014485Y006044D01*
X014485Y008044D01*
X014371Y008157D01*
X013947Y008157D01*
X013223Y008157D02*
X013947Y007433D01*
X013915Y007401D01*
X013915Y006443D01*
X014350Y005781D02*
X013051Y005790D01*
X012517Y006185D01*
X012528Y006176D01*
X012007Y006697D01*
X011931Y006735D01*
X011936Y006702D01*
X011788Y006806D01*
X011461Y007106D01*
X011006Y007248D01*
X011447Y007433D02*
X010787Y008081D01*
X009472Y008094D01*
X009472Y007503D02*
X008856Y007503D01*
X009472Y006913D02*
X010161Y006913D01*
X010322Y006751D01*
X010322Y005203D01*
X011062Y004463D01*
X011637Y004463D01*
X011747Y004258D01*
X011747Y002490D01*
X012708Y001664D02*
X016330Y001664D01*
X016330Y001164D01*
X016326Y002659D02*
X014900Y002659D01*
X014634Y002925D01*
X014634Y002975D01*
X014624Y005368D01*
X014350Y005781D01*
X013081Y007433D02*
X013081Y007447D01*
X012385Y008144D01*
X012178Y008144D01*
X012160Y008162D01*
X013105Y008157D02*
X013223Y008157D01*
X010208Y010013D02*
X009863Y009669D01*
X009472Y009669D01*
X005968Y009633D02*
X005972Y008596D01*
X006079Y008590D01*
X005977Y008543D01*
X005824Y008479D01*
X005400Y008488D01*
X004984Y008488D01*
X002812Y006821D02*
X002617Y007016D01*
X002812Y006821D02*
X002884Y006745D01*
X005949Y006328D02*
X005949Y005948D01*
X006146Y005948D02*
X006146Y004315D01*
X006065Y004235D01*
X006566Y004719D02*
X006367Y004965D01*
X006349Y005115D01*
X006349Y005942D01*
X006342Y005948D01*
X005949Y006328D02*
X006978Y006904D01*
X007531Y006896D01*
X007525Y006322D01*
X007525Y005949D01*
X007524Y005948D01*
X007520Y005944D01*
X007520Y004768D01*
X007649Y004656D01*
X008263Y004656D01*
X008362Y004557D01*
X008362Y003540D01*
X008263Y003440D01*
X007923Y003440D01*
X008470Y002899D02*
X008889Y003145D01*
X008889Y004187D01*
X008925Y004395D01*
X008968Y004417D01*
X009218Y004633D01*
X009185Y004600D01*
X008624Y004600D01*
X008114Y005110D01*
X008114Y005948D01*
X008311Y005948D02*
X008311Y005379D01*
X008665Y005025D01*
X010103Y005025D01*
X010213Y004916D01*
X010213Y004639D01*
X010218Y004633D01*
X010223Y004628D01*
X010514Y004628D01*
X010624Y004518D01*
X010624Y004381D01*
X011141Y003864D01*
X011239Y003864D01*
X008470Y002899D02*
X008470Y002505D01*
X006104Y002546D02*
X006073Y002515D01*
X007602Y004154D02*
X007888Y004154D01*
X007923Y004189D01*
X007602Y004154D02*
X007327Y004430D01*
X007327Y004466D01*
X007327Y005948D01*
X006566Y004719D02*
X006813Y004471D01*
X006813Y004235D01*
X016326Y002659D02*
X016330Y002664D01*
X019130Y003142D02*
X019154Y003118D01*
X019178Y003069D01*
X026103Y002785D02*
X026103Y003402D01*
X026103Y003402D01*
X010003Y013717D02*
X009471Y013184D01*
X010003Y013717D02*
X010323Y013717D01*
X010202Y013838D01*
X010202Y015098D01*
X010208Y015104D01*
X010208Y015700D01*
X010071Y015837D01*
X008900Y015837D01*
X008817Y015754D01*
X007118Y015754D01*
X006933Y015569D01*
X006933Y015006D01*
X007602Y015005D02*
X007595Y014615D01*
X007497Y014565D01*
X007602Y015005D02*
X007602Y015006D01*
X009202Y015098D02*
X009213Y015088D01*
X009213Y014095D01*
X008966Y013848D01*
X011202Y015098D02*
X011210Y015106D01*
D33*
X011185Y013744D02*
X011664Y013744D01*
X011712Y013695D01*
X011185Y013744D02*
X011071Y013717D01*
X010747Y012893D02*
X010222Y012914D01*
X009471Y013184D02*
X009185Y013244D01*
X008685Y013244D01*
X008685Y013221D01*
X008382Y013221D02*
X008185Y013244D01*
X007685Y013244D01*
X007527Y013224D01*
X006514Y013589D02*
X006760Y014290D01*
X008620Y014295D01*
X007497Y014565D02*
X007441Y014517D01*
X006595Y014517D01*
X006514Y013589D02*
X005830Y013581D01*
X003776Y013635D02*
X003394Y014016D01*
X002617Y014016D01*
X003776Y013635D02*
X003764Y012189D01*
X004212Y012053D02*
X004323Y012135D01*
X004544Y012135D01*
X004669Y012213D01*
X004212Y012053D02*
X004218Y011567D01*
X004081Y011441D01*
X003764Y011441D01*
X005142Y011337D02*
X005056Y010630D01*
X004994Y010568D01*
X005752Y010436D02*
X005752Y010954D01*
X005472Y011234D01*
X005280Y011493D02*
X005231Y011466D01*
X005142Y011337D01*
X005280Y011493D02*
X005520Y011609D01*
X005623Y011900D01*
X006725Y011902D01*
X005949Y011497D02*
X005859Y011588D01*
X005949Y011497D02*
X005949Y010436D01*
X007001Y009772D02*
X007025Y009772D01*
X007001Y009772D02*
X007516Y010051D01*
X007524Y010436D01*
X008114Y010436D02*
X008114Y011169D01*
X008081Y011369D01*
X008551Y011418D02*
X008315Y010840D01*
X008311Y010436D01*
X008508Y010436D02*
X008508Y010778D01*
X008607Y010986D01*
X008728Y010986D01*
X008996Y011314D01*
X009052Y011328D01*
X009185Y011888D02*
X009185Y012244D01*
X009471Y012436D01*
X009914Y012069D02*
X010634Y012116D01*
X011613Y012519D02*
X011825Y012731D01*
X011838Y012971D01*
X012827Y011494D02*
X013651Y010560D01*
X014209Y010560D01*
X013872Y010161D02*
X013872Y009999D01*
X013872Y010161D02*
X012917Y010428D01*
X012185Y010244D02*
X012272Y010011D01*
X012185Y010244D02*
X012185Y010744D01*
X012286Y010877D01*
X012907Y009865D02*
X012917Y009859D01*
X013142Y009607D01*
X014359Y009599D01*
X014771Y009376D01*
X015282Y009376D01*
X015507Y009378D01*
X014050Y008989D02*
X013927Y008989D01*
X013946Y009408D01*
X012800Y009408D01*
X012753Y009443D01*
X012632Y009550D01*
X012611Y009570D01*
X012347Y009650D01*
X012284Y009650D01*
X012556Y008999D02*
X013302Y008989D01*
X012556Y008999D02*
X012512Y008843D01*
X012493Y008639D01*
X012160Y008162D01*
X013105Y008157D02*
X013260Y008527D01*
X013930Y008527D01*
X013946Y008543D01*
X014050Y008989D01*
X010710Y009227D02*
X010685Y008744D01*
X010546Y008784D01*
X009472Y008684D02*
X008974Y008671D01*
X008828Y008816D01*
X008518Y008830D01*
X008323Y008634D01*
X007966Y008634D01*
X007723Y008392D01*
X006733Y008392D01*
X006612Y008513D01*
X006280Y008197D02*
X006185Y008197D01*
X005989Y008197D01*
X005879Y008094D01*
X004984Y008094D01*
X004376Y008094D01*
X004192Y008426D01*
X003869Y008426D01*
X003874Y008440D01*
X004279Y008799D02*
X004605Y008287D01*
X004984Y008287D01*
X004984Y008291D01*
X004984Y008684D02*
X004984Y008688D01*
X004683Y008682D01*
X004118Y009254D01*
X003570Y009254D01*
X003325Y009528D01*
X002134Y009528D01*
X001617Y010016D01*
X002113Y010520D02*
X001617Y011016D01*
X002113Y010520D02*
X002137Y010520D01*
X003049Y010516D01*
X003648Y009593D01*
X003965Y009513D01*
X004160Y009502D01*
X004250Y009409D01*
X004371Y009280D01*
X004579Y009068D01*
X004717Y009063D01*
X004984Y009078D01*
X004984Y008881D02*
X005591Y008881D01*
X005618Y008879D01*
X005958Y008614D02*
X005972Y008596D01*
X005958Y008614D02*
X006079Y008590D01*
X006280Y008197D02*
X006274Y008168D01*
X007770Y008164D01*
X008078Y008432D01*
X008336Y008432D01*
X008582Y008186D01*
X008714Y008143D01*
X008790Y008181D01*
X008923Y008219D01*
X008992Y008288D01*
X009465Y008283D01*
X009472Y008291D01*
X008756Y007306D02*
X008265Y007660D01*
X007924Y007915D01*
X006622Y007912D01*
X006480Y007864D01*
X006125Y007864D01*
X006340Y007475D02*
X006547Y007570D01*
X006568Y007581D01*
X006967Y007705D01*
X007751Y007704D01*
X007918Y007602D01*
X008170Y007448D01*
X008683Y007115D01*
X009472Y007110D01*
X009472Y007306D02*
X008819Y007306D01*
X008756Y007306D01*
X009472Y006913D02*
X007977Y006914D01*
X007852Y007232D01*
X007688Y007442D01*
X007609Y007505D01*
X007564Y007518D01*
X007258Y007518D01*
X006436Y007000D01*
X007196Y006558D02*
X007130Y006426D01*
X007130Y005948D01*
X006933Y005948D02*
X006933Y004853D01*
X006936Y004850D01*
X006813Y004471D02*
X007321Y004471D01*
X007327Y004466D01*
X008505Y005452D02*
X008799Y005239D01*
X009794Y005239D01*
X009894Y005865D01*
X009028Y005547D02*
X008714Y005580D01*
X008714Y005939D01*
X008705Y005948D01*
X008508Y005948D02*
X008508Y005455D01*
X008505Y005452D01*
X007520Y006809D02*
X007531Y006896D01*
X007520Y006809D02*
X007420Y007198D01*
X004984Y007110D02*
X004658Y007110D01*
X004425Y006888D01*
X004277Y006755D01*
X004261Y006739D01*
X002884Y006745D01*
X003220Y007048D02*
X002910Y007523D01*
X002110Y007523D01*
X001617Y008016D01*
X002062Y008530D02*
X001617Y009016D01*
X002062Y008530D02*
X002868Y008526D01*
X003394Y009020D01*
X004023Y009017D01*
X004143Y008934D01*
X004279Y008799D01*
X004984Y009275D02*
X005394Y009275D01*
X005648Y009420D01*
X007725Y009275D02*
X007825Y009288D01*
X007725Y009275D02*
X009472Y009275D01*
X009472Y009472D02*
X009472Y009473D01*
X008982Y009473D01*
X008836Y009618D01*
X008303Y009618D01*
X004984Y007503D02*
X004419Y007503D01*
X004190Y007270D01*
X003333Y007270D01*
X003190Y007448D01*
X003068Y007642D01*
X002958Y007785D01*
X002624Y008009D01*
X002617Y008016D01*
X003220Y007048D02*
X004296Y007048D01*
X004549Y007301D01*
X004746Y007301D01*
X004761Y007316D01*
X004984Y007306D01*
X004984Y006913D02*
X004707Y006897D01*
X004316Y006522D01*
X002104Y006522D01*
X002104Y006529D01*
X001617Y007016D01*
X002617Y006016D02*
X004267Y006016D01*
X004785Y006534D01*
X004785Y006704D01*
X004780Y006709D01*
X004977Y006709D01*
X004984Y006716D01*
X006813Y003420D02*
X006889Y003420D01*
X007923Y003440D02*
X008452Y003440D01*
X008556Y003337D01*
X007722Y002505D02*
X007702Y002485D01*
X007427Y002485D01*
X006854Y002482D02*
X006821Y002515D01*
X006854Y002482D02*
X006854Y001806D01*
X012185Y004744D02*
X012185Y005744D01*
X011995Y005709D01*
X011253Y005714D02*
X011247Y005709D01*
X011253Y005714D02*
X011410Y005006D01*
X012185Y004744D02*
X013685Y003244D01*
X014127Y003951D02*
X013922Y004156D01*
X013359Y004156D01*
X013079Y004435D01*
X013079Y004870D01*
X013827Y004870D02*
X013868Y004911D01*
X013868Y005467D01*
X017642Y003130D02*
X017688Y003130D01*
X018185Y001744D02*
X018407Y001658D01*
X021839Y002625D02*
X022176Y002625D01*
X022396Y002846D01*
X022396Y004852D01*
X022737Y005193D01*
X023277Y005193D01*
X023951Y005827D01*
X024105Y005673D01*
X024105Y003896D01*
X023973Y003764D01*
X023973Y002777D01*
X023822Y002625D01*
X023413Y002625D01*
X025185Y002244D02*
X026185Y002244D01*
X026103Y002115D01*
X025338Y003626D02*
X025572Y004078D01*
X026103Y004071D01*
X023996Y005880D02*
X023997Y006459D01*
X023864Y006706D01*
X023864Y007379D01*
X024335Y007759D01*
X023996Y005880D02*
X023951Y005827D01*
D34*
X019178Y003069D02*
X018785Y002409D01*
X017374Y002409D01*
X017169Y002204D01*
X016889Y001641D01*
X016330Y001664D01*
X007427Y002485D02*
X007324Y002588D01*
X007324Y002985D01*
X006889Y003420D01*
X006813Y003420D02*
X006813Y004235D01*
X006685Y004244D02*
X006685Y003244D01*
X006185Y003244D02*
X006185Y004244D01*
X006185Y003244D02*
X006185Y002744D01*
X014753Y010574D02*
X015228Y010297D01*
X014753Y010574D02*
X014467Y011419D01*
X013719Y011419D02*
X013875Y012221D01*
X014191Y012397D01*
X014382Y012588D01*
X014874Y012588D01*
X014874Y012088D02*
X015458Y011505D01*
X015458Y011231D01*
X015976Y010712D01*
X015976Y010297D01*
X017456Y011337D02*
X018612Y011337D01*
X019128Y010821D01*
X017660Y011541D02*
X017660Y012391D01*
X017462Y012588D01*
X016921Y012588D01*
D35*
X013685Y012744D02*
X013685Y013744D01*
X013185Y014244D01*
X011685Y014244D01*
X011685Y013744D01*
X011712Y013695D01*
X011694Y013289D02*
X012691Y013298D01*
X012516Y013326D01*
X012685Y012744D02*
X013185Y013244D01*
X013264Y013326D01*
X013685Y012744D02*
X013185Y012244D01*
X013284Y012270D01*
X012685Y012244D02*
X012536Y012270D01*
X012685Y012244D02*
X011805Y011371D01*
X009701Y011371D01*
X009714Y011715D01*
X010634Y012116D02*
X010747Y012145D01*
X010685Y012744D02*
X010747Y012893D01*
X010685Y012744D02*
X011185Y012744D01*
X011694Y013289D01*
X012685Y012744D02*
X012685Y012244D01*
X011538Y010877D02*
X011685Y010744D01*
X010685Y010744D01*
X010673Y010873D01*
X011685Y010244D02*
X011524Y010011D01*
X009634Y013116D02*
X009471Y013184D01*
X006933Y015006D02*
X006685Y014744D01*
X006185Y014744D01*
X011185Y015244D02*
X011202Y015098D01*
X004669Y011465D02*
X004663Y011322D01*
X003874Y008440D02*
X003646Y008349D01*
X003315Y008356D01*
X006065Y004235D02*
X006185Y004244D01*
X006685Y004244D02*
X006813Y004235D01*
X006185Y003244D02*
X006049Y003344D01*
X006185Y002744D02*
X006073Y002515D01*
X006854Y001806D02*
X006843Y001787D01*
X010685Y003244D02*
X011185Y003244D01*
X011239Y003116D01*
X011185Y002244D02*
X011250Y002094D01*
X015893Y002161D02*
X016330Y002164D01*
X017346Y004417D02*
X017685Y004244D01*
X020685Y003244D02*
X020807Y003436D01*
X020685Y003244D02*
X021185Y003744D01*
X021685Y003244D02*
X021839Y003373D01*
X026103Y003402D02*
X026185Y003244D01*
X027185Y003244D01*
X019185Y007744D02*
X018814Y007809D01*
D36*
X013868Y005467D03*
X011410Y005006D03*
X009894Y005865D03*
X009028Y005547D03*
X007196Y006558D03*
X006436Y007000D03*
X006340Y007475D03*
X006125Y007864D03*
X006079Y008590D03*
X005618Y008879D03*
X006305Y009162D03*
X005648Y009420D03*
X008212Y008109D03*
X008701Y008497D03*
X008928Y007904D03*
X010160Y007712D03*
X010558Y007445D03*
X011485Y007927D03*
X012098Y008687D03*
X011062Y006886D03*
X007420Y007198D03*
X006936Y004850D03*
X008556Y003337D03*
X006854Y001806D03*
X014127Y003951D03*
X023415Y004455D03*
X025338Y003626D03*
X006376Y012308D03*
X005859Y011588D03*
X005472Y011234D03*
D37*
X009185Y011888D03*
X013685Y003244D03*
X017685Y002822D03*
X017646Y001704D03*
X025185Y002244D03*
D38*
X027185Y003244D03*
X021685Y004244D03*
X021185Y005744D03*
X022185Y006744D03*
X019685Y006244D03*
X018685Y005244D03*
X013876Y002387D03*
X010685Y003244D03*
X006685Y003244D03*
X009685Y010244D03*
X006185Y014744D03*
D39*
X005830Y013581D03*
X008620Y014295D03*
X010222Y012914D03*
X011712Y013695D03*
X011838Y012971D03*
X012827Y011494D03*
X014209Y010560D03*
X013872Y009999D03*
X012907Y009865D03*
X012917Y010428D03*
X015507Y009378D03*
X017096Y007970D03*
X017229Y005911D03*
X020778Y004534D03*
X022542Y005730D03*
X026921Y008580D03*
X019885Y002196D03*
X012597Y003417D03*
X005664Y008113D03*
X006612Y008513D03*
X007825Y009288D03*
X008303Y009618D03*
X007025Y009772D03*
X008081Y011369D03*
X008551Y011418D03*
X009052Y011328D03*
D40*
X005577Y012260D03*
X004467Y014029D03*
X004445Y015504D03*
X008305Y015088D03*
X003315Y008356D03*
X025347Y002966D03*
D41*
X006185Y008197D02*
X006185Y008244D01*
X002622Y004040D02*
X002617Y004016D01*
X002622Y004040D02*
X002685Y003744D01*
X002185Y003244D01*
X002173Y002515D01*
X002701Y001830D01*
X002884Y001837D01*
M02*
