G75*
%MOIN*%
%OFA0B0*%
%FSLAX24Y24*%
%IPPOS*%
%LPD*%
%AMOC8*
5,1,8,0,0,1.08239X$1,22.5*
%
%ADD10C,0.0540*%
%ADD11C,0.0620*%
%ADD12C,0.0614*%
%ADD13C,0.1007*%
%ADD14C,0.0574*%
%ADD15C,0.1438*%
%ADD16C,0.0580*%
%ADD17OC8,0.0580*%
%ADD18C,0.0377*%
%ADD19C,0.0420*%
%ADD20C,0.0320*%
%ADD21C,0.0416*%
%ADD22R,0.0416X0.0416*%
D10*
X009218Y004633D03*
X010218Y004633D03*
D11*
X001884Y002117D02*
X001884Y001557D01*
X002884Y001557D02*
X002884Y002117D01*
X003884Y002117D02*
X003884Y001557D01*
X004884Y001557D02*
X004884Y002117D01*
X009202Y014818D02*
X009202Y015378D01*
X010202Y015378D02*
X010202Y014818D01*
X011202Y014818D02*
X011202Y015378D01*
X012202Y015378D02*
X012202Y014818D01*
X013202Y014818D02*
X013202Y015378D01*
X014202Y015378D02*
X014202Y014818D01*
D12*
X018498Y013581D02*
X019052Y013581D01*
X022498Y013581D02*
X023052Y013581D01*
D13*
X025756Y011586D03*
X025748Y005409D03*
D14*
X023335Y006259D03*
X024335Y006759D03*
X023335Y007259D03*
X024335Y007759D03*
X023335Y008259D03*
X024335Y008759D03*
X023335Y009259D03*
X024335Y009759D03*
X023335Y010244D03*
X024335Y010755D03*
D15*
X026957Y010763D03*
X026957Y006259D03*
D16*
X001617Y003016D03*
D17*
X002617Y003016D03*
X002617Y004016D03*
X001617Y004016D03*
X001617Y005016D03*
X002617Y005016D03*
X002617Y006016D03*
X001617Y006016D03*
X001617Y007016D03*
X002617Y007016D03*
X002617Y008016D03*
X001617Y008016D03*
X001617Y009016D03*
X002617Y009016D03*
X002617Y010016D03*
X001617Y010016D03*
X001617Y011016D03*
X002617Y011016D03*
X002617Y012016D03*
X001617Y012016D03*
X001617Y013016D03*
X002617Y013016D03*
X002617Y014016D03*
X001617Y014016D03*
D18*
X005859Y011588D03*
X005472Y011234D03*
X006376Y012308D03*
X005648Y009420D03*
X006305Y009162D03*
X005618Y008879D03*
X006079Y008590D03*
X006125Y007864D03*
X006340Y007475D03*
X006436Y007000D03*
X007196Y006558D03*
X007420Y007198D03*
X008928Y007904D03*
X008212Y008109D03*
X008701Y008497D03*
X010160Y007712D03*
X010558Y007445D03*
X011485Y007927D03*
X012098Y008687D03*
X011062Y006886D03*
X009894Y005865D03*
X009028Y005547D03*
X006936Y004850D03*
X008556Y003337D03*
X006854Y001806D03*
X011410Y005006D03*
X013868Y005467D03*
X014127Y003951D03*
X023415Y004455D03*
X025338Y003626D03*
D19*
X025185Y002244D03*
X017685Y002822D03*
X017646Y001704D03*
X013685Y003244D03*
X009185Y011888D03*
D20*
X009685Y010244D03*
X006185Y014744D03*
X019685Y006244D03*
X018685Y005244D03*
X021185Y005744D03*
X022185Y006744D03*
X021685Y004244D03*
X027185Y003244D03*
X013876Y002387D03*
X010685Y003244D03*
X006685Y003244D03*
D21*
X012597Y003417D03*
X017229Y005911D03*
X020778Y004534D03*
X022542Y005730D03*
X026921Y008580D03*
X017096Y007970D03*
X015507Y009378D03*
X013872Y009999D03*
X014209Y010560D03*
X012917Y010428D03*
X012907Y009865D03*
X012827Y011494D03*
X011838Y012971D03*
X011712Y013695D03*
X010222Y012914D03*
X008620Y014295D03*
X005830Y013581D03*
X008081Y011369D03*
X008551Y011418D03*
X009052Y011328D03*
X007025Y009772D03*
X007825Y009288D03*
X008303Y009618D03*
X006612Y008513D03*
X005664Y008113D03*
X019885Y002196D03*
D22*
X025347Y002966D03*
X005577Y012260D03*
X004467Y014029D03*
X004445Y015504D03*
X008305Y015088D03*
X003315Y008356D03*
M02*
